<?xml version="1.0" encoding="UTF-8" standalone="no"?>
<!-- Created with Inkscape (http://www.inkscape.org/) -->

<svg
   width="300mm"
   height="130mm"
   viewBox="0 0 299.99999 130"
   version="1.1"
   id="svg5"
   xml:space="preserve"
   inkscape:version="1.2.2 (732a01da63, 2022-12-09)"
   sodipodi:docname="back.svg"
   xmlns:inkscape="http://www.inkscape.org/namespaces/inkscape"
   xmlns:sodipodi="http://sodipodi.sourceforge.net/DTD/sodipodi-0.dtd"
   xmlns="http://www.w3.org/2000/svg"
   xmlns:svg="http://www.w3.org/2000/svg"><sodipodi:namedview
     id="namedview7"
     pagecolor="#505050"
     bordercolor="#eeeeee"
     borderopacity="1"
     inkscape:showpageshadow="0"
     inkscape:pageopacity="0"
     inkscape:pagecheckerboard="0"
     inkscape:deskcolor="#505050"
     inkscape:document-units="mm"
     showgrid="false"
     inkscape:zoom="0.71624579"
     inkscape:cx="327.40157"
     inkscape:cy="514.48819"
     inkscape:window-width="1920"
     inkscape:window-height="991"
     inkscape:window-x="-9"
     inkscape:window-y="-9"
     inkscape:window-maximized="1"
     inkscape:current-layer="layer1" /><defs
     id="defs2" /><g
     inkscape:label="Vrstva 1"
     inkscape:groupmode="layer"
     id="layer1"><path
       style="fill:#ffffff;stroke-width:0.236142;fill-opacity:1"
       d="m 75.729383,129.66481 c -1.605786,-0.39748 -3.714075,-1.40743 -4.885162,-2.3402 C 66.258201,123.67185 5.0511984,72.80196 4.0066984,71.77511 1.2313584,69.04667 0.01916837,66.19659 2.1837258e-4,62.35508 -0.01698163,58.86299 0.98138837,56.0982 3.1695984,53.57826 4.2864384,52.29211 3.2731984,53.04179 42.84795,24.22095 62.913705,9.6078005 73.878284,1.7670805 75.008893,1.2228105 c 4.81714,-2.31893 10.486903,-1.28244002 14.350026,2.62333 2.856868,2.88843 3.957461,5.74933 3.792476,9.8582395 -0.147899,3.68342 -1.257773,6.35041 -3.653257,8.77866 -0.481796,0.48839 -9.356605,7.06491 -19.721794,14.61452 L 50.930545,50.8241 169.4612,50.8281 c 130.1475,0.004 120.174,-0.11037 123.24827,1.41983 5.24987,2.6131 8.20912,8.61496 7.03475,14.26766 -1.03253,4.96996 -4.05963,8.37845 -9.05511,10.19597 -0.96473,0.351 -11.28521,0.39422 -120.06871,0.50288 L 51.607139,77.33332 69.414592,92.09951 c 9.7941,8.12142 18.160605,15.12915 18.592232,15.57276 4.316456,4.43624 4.881446,11.45161 1.344777,16.69795 -2.887524,4.28338 -8.65337,6.52436 -13.622218,5.29445 z"
       id="path373" /></g></svg>
