<?xml version="1.0" encoding="UTF-8" standalone="no"?>
<!-- Created with Inkscape (http://www.inkscape.org/) -->

<svg
   width="60mm"
   height="85mm"
   viewBox="0 0 60 85"
   version="1.1"
   id="svg5"
   xml:space="preserve"
   inkscape:version="1.2.2 (732a01da63, 2022-12-09)"
   sodipodi:docname="help.svg"
   xmlns:inkscape="http://www.inkscape.org/namespaces/inkscape"
   xmlns:sodipodi="http://sodipodi.sourceforge.net/DTD/sodipodi-0.dtd"
   xmlns="http://www.w3.org/2000/svg"
   xmlns:svg="http://www.w3.org/2000/svg"><sodipodi:namedview
     id="namedview7"
     pagecolor="#505050"
     bordercolor="#eeeeee"
     borderopacity="1"
     inkscape:showpageshadow="0"
     inkscape:pageopacity="0"
     inkscape:pagecheckerboard="0"
     inkscape:deskcolor="#505050"
     inkscape:document-units="mm"
     showgrid="false"
     inkscape:zoom="0.71624579"
     inkscape:cx="258.98931"
     inkscape:cy="323.21307"
     inkscape:window-width="1920"
     inkscape:window-height="991"
     inkscape:window-x="-9"
     inkscape:window-y="-9"
     inkscape:window-maximized="1"
     inkscape:current-layer="layer1" /><defs
     id="defs2" /><g
     inkscape:label="Vrstva 1"
     inkscape:groupmode="layer"
     id="layer1"><path
       style="fill:#ffffff;stroke-width:0.484582;fill-opacity:1"
       d="m 22.532455,76.973676 v -8.02632 l 7.856098,0.13346 7.856099,0.13347 0.13284,7.89286 0.13284,7.89285 h -7.988921 -7.988938 z m 0.109633,-19.2951 c 0.402609,-9.510391 2.574609,-12.852797 15.198644,-23.388596 6.74657,-5.630565 8.3002,-9.700082 5.77953,-15.138681 -2.16672,-4.674918 -6.43529,-7.006641 -12.834379,-7.010844 -7.809286,-0.0055 -12.85099,3.720428 -15.321941,11.322096 l -0.908458,2.794813 -2.65899,-0.301763 C 7.6307736,25.471471 0.20304762,24.356589 0.02032562,24.173012 c -0.09228,-0.0927 0.138503,-1.639618 0.512956,-3.437553 C 1.4944176,16.120221 3.8344116,11.94746 7.5308426,8.257139 13.462624,2.335182 19.892778,0 30.267683,0 c 10.265199,0 16.556179,2.237722 22.723379,8.082778 2.53305,2.400729 3.85063,4.146547 5.20072,6.891079 1.74324,3.543697 1.80822,3.85989 1.80822,8.800959 0,4.806708 -0.0987,5.327717 -1.58674,8.384404 -1.76937,3.634421 -6.65373,8.929939 -13.69162,14.84415 -6.21873,5.225866 -7.68562,7.772616 -7.68562,13.343426 v 2.79606 H 29.723391 22.41078 Z"
       id="path302" /></g></svg>
