<?xml version="1.0" encoding="UTF-8" standalone="no"?>
<!-- Created with Inkscape (http://www.inkscape.org/) -->

<svg
   width="350mm"
   height="350mm"
   viewBox="0 0 350 350"
   version="1.1"
   id="svg5"
   xml:space="preserve"
   inkscape:version="1.2.2 (732a01da63, 2022-12-09)"
   sodipodi:docname="beast.svg"
   xmlns:inkscape="http://www.inkscape.org/namespaces/inkscape"
   xmlns:sodipodi="http://sodipodi.sourceforge.net/DTD/sodipodi-0.dtd"
   xmlns="http://www.w3.org/2000/svg"
   xmlns:svg="http://www.w3.org/2000/svg"><sodipodi:namedview
     id="namedview7"
     pagecolor="#505050"
     bordercolor="#eeeeee"
     borderopacity="1"
     inkscape:showpageshadow="0"
     inkscape:pageopacity="0"
     inkscape:pagecheckerboard="0"
     inkscape:deskcolor="#505050"
     inkscape:document-units="mm"
     showgrid="false"
     inkscape:zoom="0.35812289"
     inkscape:cx="141.01305"
     inkscape:cy="339.26901"
     inkscape:window-width="1920"
     inkscape:window-height="991"
     inkscape:window-x="-9"
     inkscape:window-y="-9"
     inkscape:window-maximized="1"
     inkscape:current-layer="layer1" /><defs
     id="defs2" /><g
     inkscape:label="Vrstva 1"
     inkscape:groupmode="layer"
     id="layer1"><circle
       style="fill:#a0a0a0;fill-opacity:1;stroke-width:0.305035"
       id="path340"
       cx="175.00034"
       cy="175"
       r="175" /><path
       style="fill:#000000;stroke-width:0.783993"
       d="m 161.55401,322.96573 c -9.79775,-3.80477 -13.88646,-7.43497 -19.46379,-17.28108 -2.85521,-5.04052 -8.72919,-22.11175 -12.27462,-35.67302 -0.53178,-2.03405 -4.0407,-9.34986 -7.7976,-16.25735 l -6.83072,-12.55909 0.25683,-8.09173 c 0.4324,-13.62275 -2.9337,-21.80342 -12.3854,-30.10029 -6.34043,-5.56576 -9.81983,-6.98682 -15.31191,-6.25375 -4.7856,0.63877 -7.7776,-0.77391 -11.10272,-5.2422 -2.30092,-3.09197 -2.59056,-4.07944 -2.59056,-8.83182 0,-5.05217 -0.16556,-5.52702 -2.96809,-8.51275 -7.03916,-7.49936 -9.06117,-13.9177 -8.8158,-27.98349 l 0.18604,-10.6651 -3.37696,-6.06775 c -3.63596,-6.53312 -4.66915,-10.18875 -3.77544,-13.35821 0.31368,-1.11256 3.62602,-4.66858 7.44375,-7.99146 7.5656,-6.58494 11.67771,-12.407724 14.67512,-20.780056 1.51627,-4.235224 1.92601,-7.463228 2.2512,-17.73544 0.33052,-10.440755 0.6258,-12.717518 1.75152,-13.504939 0.7447,-0.5209 5.09343,-2.816323 9.66384,-5.100939 4.57042,-2.28462 12.23626,-6.22114 17.0352,-8.747821 14.51807,-7.643888 15.93565,-8.287559 23.42325,-10.635659 35.29525,-11.068532 76.2497,-8.014305 104.32781,7.78038 3.48568,1.960783 12.34665,6.56066 19.69107,10.221964 l 13.35346,6.6569 0.5467,12.204322 c 0.60633,13.534133 1.66478,18.097852 6.16866,26.596729 2.37841,4.488124 4.37922,6.779049 10.73241,12.288849 4.29791,3.72733 8.05453,7.64301 8.35504,8.7088 1.08129,3.83473 -0.88556,8.52556 -7.76593,18.52127 -0.77334,1.12354 -0.92786,3.22176 -0.54956,7.46401 0.8567,9.60775 0.52201,15.37754 -1.17316,20.22553 -1.76293,5.04179 -5.99777,11.4079 -8.71607,13.10261 -1.54612,0.96392 -1.72216,1.6946 -1.4893,6.18103 0.29616,5.70509 -0.82827,8.44399 -5.11835,12.4678 -2.28504,2.14323 -3.06336,2.4058 -7.17808,2.42153 -2.53834,0.009 -6.06832,0.31773 -7.84448,0.68447 -6.31339,1.30367 -15.66972,11.57587 -18.84937,20.69456 -1.3939,3.99738 -1.65011,6.44056 -1.44197,13.75039 l 0.25315,8.88927 -7.27101,12.93057 c -6.50659,11.57113 -7.6693,14.29145 -11.05944,25.87456 -6.62678,22.64184 -9.71721,29.30173 -16.89416,36.40692 -3.48399,3.44915 -11.90787,7.97023 -14.85353,7.97186 -0.57751,3.2e-4 -1.74328,0.38597 -2.59062,0.85699 -1.96279,1.09108 -4.25373,0.32968 -4.25373,-1.41354 0,-0.73883 0.77054,-3.29468 1.71234,-5.67974 1.62819,-4.12335 3.65634,-15.85865 2.86284,-16.56495 -0.20556,-0.18285 -0.82535,0.62881 -1.37731,1.80397 -0.91957,1.95781 -1.05891,1.54851 -1.66481,-4.89012 -0.36368,-3.86468 -1.04438,-8.6241 -1.51265,-10.57648 -1.42361,-5.93555 -1.0661,-7.82229 2.41072,-12.72239 1.79416,-2.52863 4.57532,-8.16425 6.18037,-12.52357 1.60505,-4.35932 3.85542,-9.0197 5.00083,-10.35635 1.87377,-2.18664 7.6535,-5.40645 8.44316,-4.70358 0.1732,0.15416 0.36364,9.08621 0.42321,19.849 0.11135,20.10752 -0.42608,24.87413 -3.73968,33.17118 -1.4689,3.67806 -4.60281,8.47237 -5.19413,7.94604 -0.21572,-0.19204 0.23904,-2.87496 1.01067,-5.96206 1.21116,-4.84561 1.26593,-6.47204 0.40061,-11.89797 -0.55129,-3.45678 -1.30072,-6.44923 -1.66541,-6.64986 -0.36473,-0.20072 -0.92473,1.71501 -1.24452,4.25692 -0.31974,2.54194 -1.29046,6.52294 -2.15709,8.84669 -0.86666,2.32372 -2.37274,7.48282 -3.34688,11.46467 -0.97413,3.98184 -2.28374,8.13847 -2.91023,9.23702 -1.80812,3.17045 -1.48869,3.67353 1.97711,3.1141 3.92632,-0.63376 9.59673,-3.53247 13.22119,-6.75859 3.60422,-3.2081 8.26182,-11.50393 13.02146,-23.19304 5.50091,-13.5095 7.17203,-21.51386 7.78199,-37.27426 0.29135,-7.52865 0.79313,-12.6626 1.15663,-11.83447 0.63623,1.44947 0.64281,1.44932 0.72988,-0.0168 0.0483,-0.81362 0.58385,-2.27589 1.19006,-3.24948 1.09356,-1.75625 1.10691,-1.74793 1.69838,1.0583 0.45724,2.16943 0.78891,2.5819 1.42345,1.77018 0.83434,-1.06726 0.81902,-0.87552 -0.56486,7.07791 l -0.5148,2.95861 1.68411,-1.84912 c 0.92625,-1.01704 2.72963,-3.6798 4.00753,-5.91726 2.15769,-3.77797 2.3063,-4.60132 2.08398,-11.54433 -0.29992,-9.36725 1.42368,-17.39886 5.23518,-24.39437 3.22283,-5.91511 5.34157,-8.04826 11.47155,-11.54965 3.9122,-2.23461 4.84445,-2.44374 11.15262,-2.50178 7.71823,-0.071 9.63229,-1.01573 12.33707,-6.08916 1.33263,-2.49967 1.32802,-2.85868 -0.0845,-6.55711 l -1.49418,-3.91266 4.12858,-3.89319 c 8.22759,-7.75848 11.25391,-16.64382 9.61137,-28.21936 -1.14009,-8.03452 -0.56392,-10.64599 3.71548,-16.84012 3.03176,-4.38825 4.52031,-8.60358 3.84718,-10.89468 -0.21953,-0.74746 -3.53734,-3.91537 -7.37274,-7.0398 -5.83818,-4.75591 -7.5171,-6.66923 -10.31228,-11.752116 -4.90903,-8.926791 -5.96281,-13.281707 -6.56493,-27.131083 L 265.59547,58.51079 253.13691,52.727346 c -6.85219,-3.180895 -15.4529,-7.573617 -19.11266,-9.761608 -8.27172,-4.945251 -13.22118,-7.16932 -21.19634,-9.524688 -17.08604,-5.046173 -38.48457,-6.906977 -53.40135,-4.643764 -18.76309,2.84678 -32.71181,7.39336 -45.90136,14.961539 -3.19929,1.835758 -11.23907,5.908608 -17.86618,9.050773 l -12.04928,5.713031 -0.50958,12.91762 c -0.41241,10.454379 -0.86381,13.904927 -2.3672,18.095211 -3.88121,10.81779 -7.85816,15.86514 -19.1017,24.24291 -2.55401,1.90304 -2.71908,2.29021 -2.25672,5.29278 0.27436,1.78176 2.03862,5.9212 3.92054,9.19876 l 3.42168,5.95921 -0.59068,10.61466 c -0.49399,8.87724 -0.36112,11.31752 0.81181,14.9088 1.71234,5.24287 4.47401,9.33037 9.31025,13.77987 l 3.66777,3.37445 -1.26928,2.70394 c -1.70138,3.62445 -1.59564,5.58259 0.46813,8.66871 2.65835,3.97526 3.77674,4.43794 10.72733,4.43794 5.77786,0 6.76097,0.22992 11.26722,2.63511 9.96897,5.3209 13.15484,9.43869 16.67363,21.55085 1.78958,6.16002 2.0292,8.22284 1.59453,13.72702 -0.60831,7.70316 0.147,10.6306 4.14973,16.08282 2.94434,4.01059 2.97995,4.03114 2.55854,1.47841 -1.57719,-9.55394 -1.5784,-9.61553 -0.19012,-9.61553 0.73746,0 1.34083,0.2774 1.34083,0.61638 0,0.33903 0.56091,0.61638 1.24648,0.61638 0.81317,0 1.28714,-0.7928 1.36347,-2.28061 0.25916,-5.052 1.38496,6.32824 1.46279,14.78703 0.0495,5.38522 0.74349,12.20035 1.74774,17.16458 3.511,17.35548 11.9681,37.07115 18.79063,43.80581 4.63809,4.57832 16.17848,9.22266 16.07113,6.46767 -0.0196,-0.50853 -1.3261,-5.08513 -2.90286,-10.17026 -1.57676,-5.08515 -3.87095,-12.99697 -5.09819,-17.58184 -1.36923,-5.11533 -2.4902,-7.97311 -2.90131,-7.39656 -0.36847,0.51677 -0.66676,4.10158 -0.66286,7.96629 0.006,6.51984 0.45153,9.64797 1.97262,13.86856 1.01209,2.80821 -0.96027,1.88438 -3.15824,-1.47933 -5.15765,-7.89303 -7.46148,-23.01853 -6.64916,-43.65391 0.56659,-14.39298 0.60297,-14.61522 2.31921,-14.16436 2.57833,0.67731 7.40879,3.74494 8.60699,5.46591 0.57559,0.82672 1.79264,4.35134 2.70456,7.83252 1.73777,6.6337 2.91456,9.12319 6.62215,14.00903 1.23482,1.62725 2.43464,3.63481 2.66629,4.46124 0.49452,1.76423 -1.43211,23.91577 -2.13446,24.54091 -0.26324,0.23428 -0.71439,-0.12077 -1.00257,-0.78934 -0.75255,-1.74558 -2.00812,-1.49768 -2.00812,0.39652 0,0.88653 1.16921,5.76963 2.59823,10.85132 2.48873,8.85015 2.53457,9.28088 1.08764,10.22263 -1.94314,1.26473 -2.28414,1.21748 -8.4247,-1.16711 z m 12.04633,-110.8235 c -0.27199,-18.18357 -0.0812,-32.86379 0.52177,-40.13502 l 0.95062,-11.46467 0.51332,13.31381 c 0.46504,12.0616 -0.55782,66.06702 -1.26319,66.69488 -0.16149,0.14372 -0.48662,-12.64031 -0.72252,-28.409 z m -43.93845,18.66764 c -0.12012,-0.40681 -0.24819,-4.23453 -0.28468,-8.50605 -0.0605,-7.09318 -0.30172,-8.24103 -2.78253,-13.2421 -3.24374,-6.53904 -7.81632,-13.37876 -11.33794,-16.95944 -2.5135,-2.55565 -2.52359,-2.59643 -0.52822,-2.1355 5.52049,1.27527 4.41913,-3.40555 -1.80146,-7.65621 -1.95618,-1.3367 -3.90413,-2.69703 -4.32876,-3.02296 -0.42464,-0.32592 1.68966,-0.38796 4.69844,-0.13784 4.62256,0.3842 6.0616,0.20001 9.28387,-1.18842 2.09734,-0.90372 4.59037,-2.61443 5.54008,-3.80159 3.26483,-4.08111 4.0219,-10.04303 1.15077,-9.06237 -0.82939,0.28329 -1.20394,-0.10182 -1.20394,-1.23779 0,-1.25884 0.25252,-1.46248 1.06723,-0.86064 1.44125,1.06466 10.64208,2.33894 16.9378,2.3458 8.44189,0.009 11.80275,-1.74367 17.26377,-9.00399 4.83796,-6.43198 6.15437,-6.24753 2.44936,0.3432 -3.11006,5.5324 -4.86754,6.93547 -10.9407,8.73436 -4.41894,1.30892 -6.38904,1.50342 -10.89241,1.07537 -11.10036,-1.05509 -10.29627,-1.27937 -11.66909,3.25485 -1.49867,4.94991 -7.71795,11.13457 -11.1969,11.13457 -2.52056,0 -2.8814,1.1758 -0.56194,1.83105 2.68616,0.75886 9.22773,10.10015 10.95444,15.64284 2.11496,6.7889 2.09762,19.17743 -0.038,27.27531 -0.85834,3.25448 -1.65892,5.5844 -1.77904,5.17759 z m 87.29841,-6.36862 c -4.16927,-15.01899 -1.42235,-28.04754 8.19734,-38.87988 l 3.32148,-3.74019 -3.67377,-2.30492 c -4.25111,-2.66714 -6.80327,-6.00881 -7.50873,-9.83158 -0.70026,-3.79457 -3.07796,-4.81141 -7.87743,-3.36886 -5.65885,1.70086 -16.60957,-0.26764 -20.9532,-3.76653 -2.13839,-1.72253 -5.46761,-6.89274 -6.3721,-9.89573 -0.60952,-2.02367 -0.56543,-2.22016 0.24568,-1.09495 6.95214,9.64424 10.74824,12.55803 18.15344,13.93416 4.05656,0.75386 5.38994,0.68755 9.73774,-0.48418 3.78392,-1.01977 5.3179,-1.15056 6.16396,-0.52555 0.83931,0.62 1.40139,0.60091 2.2055,-0.075 0.88116,-0.74058 0.90232,-0.60108 0.11532,0.76034 -2.23492,3.86629 2.91874,11.81064 8.77845,13.53199 1.62203,0.47648 5.34276,0.73066 8.26832,0.56484 2.92556,-0.1658 5.31848,-0.11928 5.31761,0.10341 -8.2e-4,0.22272 -1.84216,1.52147 -4.09175,2.88615 -5.55869,3.37217 -7.23904,5.17618 -7.77984,8.35233 l -0.45927,2.69737 3.46555,-1.7639 c 4.74787,-2.4166 5.51041,-2.22502 2.47637,0.62218 -1.4089,1.32213 -4.65525,5.89876 -7.21413,10.17027 -2.55885,4.27151 -4.65801,7.59776 -4.66475,7.39167 -0.007,-0.20608 0.33763,-1.46068 0.76532,-2.78798 1.01878,-3.16182 -0.35392,-2.4235 -2.19238,1.17922 -1.03745,2.03297 -1.436,5.22087 -1.57256,12.57847 -0.10058,5.42043 -0.35856,10.01166 -0.57323,10.20274 -0.21468,0.19107 -1.24019,-2.71411 -2.27894,-6.45599 z m -10.27086,-8.23958 c -0.28357,-0.91533 -0.75069,-4.02181 -1.03812,-6.90331 -0.64197,-6.43576 0.32444,-9.20793 4.71757,-13.53237 3.68421,-3.62661 4.08282,-3.58919 1.60385,0.15056 -2.1216,3.20067 -4.25678,12.12391 -4.2344,17.6963 0.0184,4.57888 -0.23711,5.20946 -1.0489,2.5888 z m -64.82421,-3.14356 c -0.90073,-6.44616 -2.83904,-12.78717 -5.20025,-17.01208 l -2.06689,-3.69828 3.47932,2.95863 c 1.91363,1.62724 3.99672,4.02969 4.62908,5.33875 1.20575,2.49599 1.44107,11.75047 0.38148,15.0018 -0.48223,1.47969 -0.72652,0.9625 -1.22274,-2.58882 z m 87.5825,-8.04148 c 0,-0.91631 4.2236,-7.07194 5.2335,-7.62748 0.50659,-0.2787 -0.13945,1.13574 -1.43568,3.14319 -2.51536,3.89546 -3.79782,5.40972 -3.79782,4.48429 z m -114.02074,-5.35024 c -1.23928,-1.78779 -2.73859,-3.25053 -3.33179,-3.25053 -0.59321,0 -1.59328,-0.73361 -2.22238,-1.63025 l -1.14382,-1.63025 2.3195,1.35276 c 2.83406,1.65286 5.99377,4.76555 6.68581,6.58634 0.93486,2.45963 -0.0236,1.86641 -2.30732,-1.42807 z m 120.54389,-0.13596 c 1.02522,-1.28158 2.29414,-2.56674 2.81981,-2.8559 0.52562,-0.28917 0.11683,0.52281 -0.90839,1.80441 -1.02523,1.28158 -2.29416,2.56674 -2.81981,2.8559 -0.52564,0.28916 -0.11685,-0.52283 0.90839,-1.80441 z m -75.75044,-1.79417 c -0.71346,-1.51122 -3.18444,-4.76617 -5.49103,-7.23321 l -4.19379,-4.48551 6.0089,-10.73835 6.0089,-10.73834 0.66093,6.87673 c 0.81031,8.43108 0.30224,24.70101 -0.84994,27.21726 l -0.84672,1.84913 z m 26.02295,-2.79972 c -1.03229,-5.39739 -0.70924,-17.5709 0.68698,-25.88796 l 0.55876,-3.32845 5.03088,7.76639 c 7.79652,12.0358 7.62962,11.34267 3.72963,15.48885 -1.82274,1.93779 -3.94022,3.9858 -4.70551,4.55113 -0.7653,0.56534 -2.03231,2.36203 -2.81561,3.99268 l -1.42416,2.96479 z M 98.15208,171.72649 c -14.14007,-3.9159 -18.92327,-6.88492 -22.40906,-13.90967 -1.9694,-3.96883 -2.1947,-6.66224 -1.27185,-15.20446 l 0.65854,-6.09568 -3.1154,-4.49263 c -1.71346,-2.47094 -2.85851,-4.72055 -2.54453,-4.99915 0.314,-0.2786 4.55879,-0.4914 9.43292,-0.47291 7.98983,0.0304 9.59475,0.27932 16.30631,2.52959 20.05481,6.72412 31.19656,18.93303 31.19656,34.18457 0,4.67396 -0.22,5.35239 -2.35069,7.24892 -4.90589,4.36671 -13.12181,4.75095 -25.9028,1.21142 z m 133.05701,1.64719 c -4.39125,-1.12412 -6.51988,-2.70026 -8.45696,-6.26194 -1.45967,-2.6839 -1.62677,-3.66529 -0.90264,-5.30124 0.48876,-1.1042 1.05133,-3.86127 1.25019,-6.12684 0.47709,-5.43617 3.90402,-10.35318 11.53784,-16.55466 6.50943,-5.28811 16.31939,-10.08436 24.27702,-11.86945 5.0332,-1.12906 17.11453,-1.42974 19.7768,-0.49218 1.30566,0.45981 1.12802,0.98798 -1.66198,4.94068 -3.40955,4.83047 -3.69607,6.87441 -2.33818,16.68004 0.81832,5.90912 -0.79439,9.81991 -6.20329,15.04295 -4.09834,3.95754 -9.27037,6.33524 -19.39724,8.91742 -7.63814,1.9476 -13.0633,2.25864 -17.88156,1.02522 z m -98.44257,-15.23502 c -0.2194,-0.71192 -0.627,-2.62578 -0.90576,-4.25303 -0.47114,-2.75025 -0.41773,-2.8575 0.75842,-1.52285 0.69589,0.78967 1.26526,2.70353 1.26526,4.25301 0,3.00526 -0.46559,3.6395 -1.11792,1.52287 z m 83.10844,0.80129 c -1.44333,-1.2847 -0.42186,-6.5591 1.99996,-10.32679 3.42682,-5.33119 3.89732,-5.04958 0.77161,0.46183 -2.0521,3.61845 -2.41728,4.98038 -1.98321,7.39657 0.51952,2.89186 0.33532,3.46858 -0.78836,2.46839 z m -40.99958,-5.05432 c -0.003,-2.84767 0.14352,-4.10327 0.32709,-2.79019 0.18356,1.31305 0.1866,3.64297 0.007,5.17758 -0.17987,1.53461 -0.33008,0.46029 -0.33376,-2.38739 z m -47.00987,1.84915 c -0.91873,-2.80219 -0.80601,-4.15175 0.267,-3.19667 0.49278,0.43862 0.7707,1.75335 0.61761,2.92165 l -0.27832,2.12416 z m 92.04913,-1.69872 c -0.71014,-3.12452 -0.15657,-4.33793 1.02544,-2.24784 0.42231,0.74677 0.50797,2.18987 0.19033,3.20691 -0.53698,1.71924 -0.62236,1.65189 -1.21577,-0.95907 z M 251.6343,95.695788 c -3.32566,-5.172379 -4.13461,-8.411992 -3.73163,-14.943719 0.38784,-6.286668 2.17976,-10.618789 5.49668,-13.288796 l 1.69193,-1.361917 -1.22666,3.580884 c -1.47808,4.314837 -0.53932,12.566052 2.14481,18.851964 2.2732,5.323576 2.12935,5.992832 -0.53041,2.467448 -1.22217,-1.619976 -2.47493,-3.111832 -2.78385,-3.315236 -0.30871,-0.2034 -0.78487,-0.8691 -1.05764,-1.479315 -0.87331,-1.953433 0.44859,5.423996 1.58422,8.841364 0.60201,1.811659 0.95427,3.418807 0.78282,3.571428 -0.17147,0.15264 -1.23811,-1.163225 -2.37027,-2.924105 z M 97.14459,93.418749 c 0.43409,-4.829157 -0.65815,-5.603578 -2.77188,-1.965317 -2.02773,3.490241 -2.18367,2.221881 -0.42401,-3.448675 2.39244,-7.709777 2.83384,-13.334036 1.41813,-18.070089 l -1.21605,-4.068111 2.44905,2.588795 c 5.36935,5.675757 6.41622,17.21294 2.28193,25.148312 l -2.11947,4.068108 z"
       id="path443" /><path
       id="path340-9"
       style="fill:#000000;fill-opacity:1;stroke-width:0.305035"
       d="M 175.00017,2.9736329e-7 A 175,175 0 0 0 0,175.00017 175,175 0 0 0 175.00017,349.99983 175,175 0 0 0 350.00034,175.00017 175,175 0 0 0 175.00017,2.9736329e-7 Z M 175.00017,15.00012 A 160,160 0 0 1 335.00022,175.00017 160,160 0 0 1 175.00017,335.00022 160,160 0 0 1 15.00012,175.00017 160,160 0 0 1 175.00017,15.00012 Z" /></g></svg>
