<?xml version="1.0" encoding="UTF-8" standalone="no"?>
<!-- Created with Inkscape (http://www.inkscape.org/) -->

<svg
   width="350mm"
   height="350mm"
   viewBox="0 0 350 350"
   version="1.1"
   id="svg31738"
   xml:space="preserve"
   inkscape:version="1.2.2 (732a01da63, 2022-12-09)"
   sodipodi:docname="both.svg"
   xmlns:inkscape="http://www.inkscape.org/namespaces/inkscape"
   xmlns:sodipodi="http://sodipodi.sourceforge.net/DTD/sodipodi-0.dtd"
   xmlns="http://www.w3.org/2000/svg"
   xmlns:svg="http://www.w3.org/2000/svg"><sodipodi:namedview
     id="namedview31740"
     pagecolor="#505050"
     bordercolor="#eeeeee"
     borderopacity="1"
     inkscape:showpageshadow="0"
     inkscape:pageopacity="0"
     inkscape:pagecheckerboard="0"
     inkscape:deskcolor="#505050"
     inkscape:document-units="mm"
     showgrid="false"
     inkscape:zoom="0.25323113"
     inkscape:cx="266.55491"
     inkscape:cy="578.52287"
     inkscape:window-width="1920"
     inkscape:window-height="991"
     inkscape:window-x="-9"
     inkscape:window-y="-9"
     inkscape:window-maximized="1"
     inkscape:current-layer="layer1" /><defs
     id="defs31735" /><g
     inkscape:label="Vrstva 1"
     inkscape:groupmode="layer"
     id="layer1"><circle
       style="fill:#a0a0a0;fill-opacity:1;stroke-width:0.305035"
       id="path340-6"
       cx="175.00034"
       cy="174.99998"
       r="175" /><path
       style="fill:#000000;stroke-width:0.783993"
       d="m 161.55401,322.96573 c -9.79775,-3.80477 -13.88646,-7.43497 -19.46379,-17.28108 -2.85521,-5.04052 -8.72919,-22.11175 -12.27462,-35.67302 -0.53178,-2.03405 -4.0407,-9.34986 -7.7976,-16.25735 l -6.83072,-12.55909 0.25683,-8.09173 c 0.4324,-13.62275 -2.9337,-21.80342 -12.3854,-30.10029 -6.34043,-5.56576 -9.81983,-6.98682 -15.31191,-6.25375 -4.7856,0.63877 -7.7776,-0.77391 -11.10272,-5.2422 -2.30092,-3.09197 -2.59056,-4.07944 -2.59056,-8.83182 0,-5.05217 -0.16556,-5.52702 -2.96809,-8.51275 -7.03916,-7.49936 -9.06117,-13.9177 -8.8158,-27.98349 l 0.18604,-10.6651 -3.37696,-6.06775 c -3.63596,-6.53312 -4.66915,-10.18875 -3.77544,-13.35821 0.31368,-1.11256 3.62602,-4.66858 7.44375,-7.99146 7.5656,-6.58494 11.67771,-12.40772 14.67512,-20.78006 1.51627,-4.23522 1.92601,-7.46322 2.2512,-17.73544 0.33052,-10.44075 0.6258,-12.71751 1.75152,-13.50493 0.7447,-0.5209 5.09343,-2.81633 9.66384,-5.10094 4.57042,-2.28462 12.23626,-6.22114 17.0352,-8.74782 14.51807,-7.64389 15.93565,-8.28756 23.42325,-10.63566 35.29525,-11.06854 76.2497,-8.01431 104.32781,7.78038 3.48568,1.96078 12.34665,6.56066 19.69107,10.22196 l 13.35346,6.6569 0.5467,12.20432 c 0.60633,13.53414 1.66478,18.09785 6.16866,26.59673 2.37841,4.48813 4.37922,6.77905 10.73241,12.28885 4.29791,3.72733 8.05453,7.64301 8.35504,8.7088 1.08129,3.83473 -0.88556,8.52556 -7.76593,18.52127 -0.77334,1.12354 -0.92786,3.22176 -0.54956,7.46401 0.8567,9.60775 0.52201,15.37754 -1.17316,20.22553 -1.76293,5.04179 -5.99777,11.4079 -8.71607,13.10261 -1.54612,0.96392 -1.72216,1.6946 -1.4893,6.18103 0.29616,5.70509 -0.82827,8.44399 -5.11835,12.4678 -2.28504,2.14323 -3.06336,2.4058 -7.17808,2.42153 -2.53834,0.009 -6.06832,0.31773 -7.84448,0.68447 -6.31339,1.30367 -15.66972,11.57587 -18.84937,20.69456 -1.3939,3.99738 -1.65011,6.44056 -1.44197,13.75039 l 0.25315,8.88927 -7.27101,12.93057 c -6.50659,11.57113 -7.6693,14.29145 -11.05944,25.87456 -6.62678,22.64184 -9.71721,29.30173 -16.89416,36.40692 -3.48399,3.44915 -11.90787,7.97023 -14.85353,7.97186 -0.57751,3.2e-4 -1.74328,0.38597 -2.59062,0.85699 -1.96279,1.09108 -4.25373,0.32968 -4.25373,-1.41354 0,-0.73883 0.77054,-3.29468 1.71234,-5.67974 1.62819,-4.12335 3.65634,-15.85865 2.86284,-16.56495 -0.20556,-0.18285 -0.82535,0.62881 -1.37731,1.80397 -0.91957,1.95781 -1.05891,1.54851 -1.66481,-4.89012 -0.36368,-3.86468 -1.04438,-8.6241 -1.51265,-10.57648 -1.42361,-5.93555 -1.0661,-7.82229 2.41072,-12.72239 1.79416,-2.52863 4.57532,-8.16425 6.18037,-12.52357 1.60505,-4.35932 3.85542,-9.0197 5.00083,-10.35635 1.87377,-2.18664 7.6535,-5.40645 8.44316,-4.70358 0.1732,0.15416 0.36364,9.08621 0.42321,19.849 0.11135,20.10752 -0.42608,24.87413 -3.73968,33.17118 -1.4689,3.67806 -4.60281,8.47237 -5.19413,7.94604 -0.21572,-0.19204 0.23904,-2.87496 1.01067,-5.96206 1.21116,-4.84561 1.26593,-6.47204 0.40061,-11.89797 -0.55129,-3.45678 -1.30072,-6.44923 -1.66541,-6.64986 -0.36473,-0.20072 -0.92473,1.71501 -1.24452,4.25692 -0.31974,2.54194 -1.29046,6.52294 -2.15709,8.84669 -0.86666,2.32372 -2.37274,7.48282 -3.34688,11.46467 -0.97413,3.98184 -2.28374,8.13847 -2.91023,9.23702 -1.80812,3.17045 -1.48869,3.67353 1.97711,3.1141 3.92632,-0.63376 9.59673,-3.53247 13.22119,-6.75859 3.60422,-3.2081 8.26182,-11.50393 13.02146,-23.19304 5.50091,-13.5095 7.17203,-21.51386 7.78199,-37.27426 0.29135,-7.52865 0.79313,-12.6626 1.15663,-11.83447 0.63623,1.44947 0.64281,1.44932 0.72988,-0.0168 0.0483,-0.81362 0.58385,-2.27589 1.19006,-3.24948 1.09356,-1.75625 1.10691,-1.74793 1.69838,1.0583 0.45724,2.16943 0.78891,2.5819 1.42345,1.77018 0.83434,-1.06726 0.81902,-0.87552 -0.56486,7.07791 l -0.5148,2.95861 1.68411,-1.84912 c 0.92625,-1.01704 2.72963,-3.6798 4.00753,-5.91726 2.15769,-3.77797 2.3063,-4.60132 2.08398,-11.54433 -0.29992,-9.36725 1.42368,-17.39886 5.23518,-24.39437 3.22283,-5.91511 5.34157,-8.04826 11.47155,-11.54965 3.9122,-2.23461 4.84445,-2.44374 11.15262,-2.50178 7.71823,-0.071 9.63229,-1.01573 12.33707,-6.08916 1.33263,-2.49967 1.32802,-2.85868 -0.0845,-6.55711 l -1.49418,-3.91266 4.12858,-3.89319 c 8.22759,-7.75848 11.25391,-16.64382 9.61137,-28.21936 -1.14009,-8.03452 -0.56392,-10.64599 3.71548,-16.84012 3.03176,-4.38825 4.52031,-8.60358 3.84718,-10.89468 -0.21953,-0.74746 -3.53734,-3.91537 -7.37274,-7.0398 -5.83818,-4.75591 -7.5171,-6.66923 -10.31228,-11.75212 -4.90903,-8.92679 -5.96281,-13.2817 -6.56493,-27.13108 l -0.52977,-12.18386 -12.45856,-5.78344 c -6.85219,-3.1809 -15.4529,-7.57362 -19.11266,-9.76161 -8.27172,-4.94525 -13.22118,-7.16932 -21.19634,-9.52469 -17.08604,-5.04617 -38.48457,-6.90698 -53.40135,-4.64376 -18.76309,2.84678 -32.71181,7.39336 -45.90136,14.96153 -3.19929,1.83576 -11.23907,5.90861 -17.86618,9.05078 l -12.04928,5.71303 -0.50958,12.91762 c -0.41241,10.45438 -0.86381,13.90493 -2.3672,18.09521 -3.88121,10.81779 -7.85816,15.86514 -19.1017,24.24291 -2.55401,1.90304 -2.71908,2.29021 -2.25672,5.29278 0.27436,1.78176 2.03862,5.9212 3.92054,9.19876 l 3.42168,5.95921 -0.59068,10.61466 c -0.49399,8.87724 -0.36112,11.31752 0.81181,14.9088 1.71234,5.24287 4.47401,9.33037 9.31025,13.77987 l 3.66777,3.37445 -1.26928,2.70394 c -1.70138,3.62445 -1.59564,5.58259 0.46813,8.66871 2.65835,3.97526 3.77674,4.43794 10.72733,4.43794 5.77786,0 6.76097,0.22992 11.26722,2.63511 9.96897,5.3209 13.15484,9.43869 16.67363,21.55085 1.78958,6.16002 2.0292,8.22284 1.59453,13.72702 -0.60831,7.70316 0.147,10.6306 4.14973,16.08282 2.94434,4.01059 2.97995,4.03114 2.55854,1.47841 -1.57719,-9.55394 -1.5784,-9.61553 -0.19012,-9.61553 0.73746,0 1.34083,0.2774 1.34083,0.61638 0,0.33903 0.56091,0.61638 1.24648,0.61638 0.81317,0 1.28714,-0.7928 1.36347,-2.28061 0.25916,-5.052 1.38496,6.32824 1.46279,14.78703 0.0495,5.38522 0.74349,12.20035 1.74774,17.16458 3.511,17.35548 11.9681,37.07115 18.79063,43.80581 4.63809,4.57832 16.17848,9.22266 16.07113,6.46767 -0.0196,-0.50853 -1.3261,-5.08513 -2.90286,-10.17026 -1.57676,-5.08515 -3.87095,-12.99697 -5.09819,-17.58184 -1.36923,-5.11533 -2.4902,-7.97311 -2.90131,-7.39656 -0.36847,0.51677 -0.66676,4.10158 -0.66286,7.96629 0.006,6.51984 0.45153,9.64797 1.97262,13.86856 1.01209,2.80821 -0.96027,1.88438 -3.15824,-1.47933 -5.15765,-7.89303 -7.46148,-23.01853 -6.64916,-43.65391 0.56659,-14.39298 0.60297,-14.61522 2.31921,-14.16436 2.57833,0.67731 7.40879,3.74494 8.60699,5.46591 0.57559,0.82672 1.79264,4.35134 2.70456,7.83252 1.73777,6.6337 2.91456,9.12319 6.62215,14.00903 1.23482,1.62725 2.43464,3.63481 2.66629,4.46124 0.49452,1.76423 -1.43211,23.91577 -2.13446,24.54091 -0.26324,0.23428 -0.71439,-0.12077 -1.00257,-0.78934 -0.75255,-1.74558 -2.00812,-1.49768 -2.00812,0.39652 0,0.88653 1.16921,5.76963 2.59823,10.85132 2.48873,8.85015 2.53457,9.28088 1.08764,10.22263 -1.94314,1.26473 -2.28414,1.21748 -8.4247,-1.16711 z m 12.04633,-110.8235 c -0.27199,-18.18357 -0.0812,-32.86379 0.52177,-40.13502 l 0.95062,-11.46467 0.51332,13.31381 c 0.46504,12.0616 -0.55782,66.06702 -1.26319,66.69488 -0.16149,0.14372 -0.48662,-12.64031 -0.72252,-28.409 z m -43.93845,18.66764 c -0.12012,-0.40681 -0.24819,-4.23453 -0.28468,-8.50605 -0.0605,-7.09318 -0.30172,-8.24103 -2.78253,-13.2421 -3.24374,-6.53904 -7.81632,-13.37876 -11.33794,-16.95944 -2.5135,-2.55565 -2.52359,-2.59643 -0.52822,-2.1355 5.52049,1.27527 4.41913,-3.40555 -1.80146,-7.65621 -1.95618,-1.3367 -3.90413,-2.69703 -4.32876,-3.02296 -0.42464,-0.32592 1.68966,-0.38796 4.69844,-0.13784 4.62256,0.3842 6.0616,0.20001 9.28387,-1.18842 2.09734,-0.90372 4.59037,-2.61443 5.54008,-3.80159 3.26483,-4.08111 4.0219,-10.04303 1.15077,-9.06237 -0.82939,0.28329 -1.20394,-0.10182 -1.20394,-1.23779 0,-1.25884 0.25252,-1.46248 1.06723,-0.86064 1.44125,1.06466 10.64208,2.33894 16.9378,2.3458 8.44189,0.009 11.80275,-1.74367 17.26377,-9.00399 4.83796,-6.43198 6.15437,-6.24753 2.44936,0.3432 -3.11006,5.5324 -4.86754,6.93547 -10.9407,8.73436 -4.41894,1.30892 -6.38904,1.50342 -10.89241,1.07537 -11.10036,-1.05509 -10.29627,-1.27937 -11.66909,3.25485 -1.49867,4.94991 -7.71795,11.13457 -11.1969,11.13457 -2.52056,0 -2.8814,1.1758 -0.56194,1.83105 2.68616,0.75886 9.22773,10.10015 10.95444,15.64284 2.11496,6.7889 2.09762,19.17743 -0.038,27.27531 -0.85834,3.25448 -1.65892,5.5844 -1.77904,5.17759 z m 87.29841,-6.36862 c -4.16927,-15.01899 -1.42235,-28.04754 8.19734,-38.87988 l 3.32148,-3.74019 -3.67377,-2.30492 c -4.25111,-2.66714 -6.80327,-6.00881 -7.50873,-9.83158 -0.70026,-3.79457 -3.07796,-4.81141 -7.87743,-3.36886 -5.65885,1.70086 -16.60957,-0.26764 -20.9532,-3.76653 -2.13839,-1.72253 -5.46761,-6.89274 -6.3721,-9.89573 -0.60952,-2.02367 -0.56543,-2.22016 0.24568,-1.09495 6.95214,9.64424 10.74824,12.55803 18.15344,13.93416 4.05656,0.75386 5.38994,0.68755 9.73774,-0.48418 3.78392,-1.01977 5.3179,-1.15056 6.16396,-0.52555 0.83931,0.62 1.40139,0.60091 2.2055,-0.075 0.88116,-0.74058 0.90232,-0.60108 0.11532,0.76034 -2.23492,3.86629 2.91874,11.81064 8.77845,13.53199 1.62203,0.47648 5.34276,0.73066 8.26832,0.56484 2.92556,-0.1658 5.31848,-0.11928 5.31761,0.10341 -8.2e-4,0.22272 -1.84216,1.52147 -4.09175,2.88615 -5.55869,3.37217 -7.23904,5.17618 -7.77984,8.35233 l -0.45927,2.69737 3.46555,-1.7639 c 4.74787,-2.4166 5.51041,-2.22502 2.47637,0.62218 -1.4089,1.32213 -4.65525,5.89876 -7.21413,10.17027 -2.55885,4.27151 -4.65801,7.59776 -4.66475,7.39167 -0.007,-0.20608 0.33763,-1.46068 0.76532,-2.78798 1.01878,-3.16182 -0.35392,-2.4235 -2.19238,1.17922 -1.03745,2.03297 -1.436,5.22087 -1.57256,12.57847 -0.10058,5.42043 -0.35856,10.01166 -0.57323,10.20274 -0.21468,0.19107 -1.24019,-2.71411 -2.27894,-6.45599 z m -10.27086,-8.23958 c -0.28357,-0.91533 -0.75069,-4.02181 -1.03812,-6.90331 -0.64197,-6.43576 0.32444,-9.20793 4.71757,-13.53237 3.68421,-3.62661 4.08282,-3.58919 1.60385,0.15056 -2.1216,3.20067 -4.25678,12.12391 -4.2344,17.6963 0.0184,4.57888 -0.23711,5.20946 -1.0489,2.5888 z m -64.82421,-3.14356 c -0.90073,-6.44616 -2.83904,-12.78717 -5.20025,-17.01208 l -2.06689,-3.69828 3.47932,2.95863 c 1.91363,1.62724 3.99672,4.02969 4.62908,5.33875 1.20575,2.49599 1.44107,11.75047 0.38148,15.0018 -0.48223,1.47969 -0.72652,0.9625 -1.22274,-2.58882 z m 87.5825,-8.04148 c 0,-0.91631 4.2236,-7.07194 5.2335,-7.62748 0.50659,-0.2787 -0.13945,1.13574 -1.43568,3.14319 -2.51536,3.89546 -3.79782,5.40972 -3.79782,4.48429 z m -114.02074,-5.35024 c -1.23928,-1.78779 -2.73859,-3.25053 -3.33179,-3.25053 -0.59321,0 -1.59328,-0.73361 -2.22238,-1.63025 l -1.14382,-1.63025 2.3195,1.35276 c 2.83406,1.65286 5.99377,4.76555 6.68581,6.58634 0.93486,2.45963 -0.0236,1.86641 -2.30732,-1.42807 z m 120.54389,-0.13596 c 1.02522,-1.28158 2.29414,-2.56674 2.81981,-2.8559 0.52562,-0.28917 0.11683,0.52281 -0.90839,1.80441 -1.02523,1.28158 -2.29416,2.56674 -2.81981,2.8559 -0.52564,0.28916 -0.11685,-0.52283 0.90839,-1.80441 z m -75.75044,-1.79417 c -0.71346,-1.51122 -3.18444,-4.76617 -5.49103,-7.23321 l -4.19379,-4.48551 6.0089,-10.73835 6.0089,-10.73834 0.66093,6.87673 c 0.81031,8.43108 0.30224,24.70101 -0.84994,27.21726 l -0.84672,1.84913 z m 26.02295,-2.79972 c -1.03229,-5.39739 -0.70924,-17.5709 0.68698,-25.88796 l 0.55876,-3.32845 5.03088,7.76639 c 7.79652,12.0358 7.62962,11.34267 3.72963,15.48885 -1.82274,1.93779 -3.94022,3.9858 -4.70551,4.55113 -0.7653,0.56534 -2.03231,2.36203 -2.81561,3.99268 l -1.42416,2.96479 z M 98.15208,171.72649 c -14.14007,-3.9159 -18.92327,-6.88492 -22.40906,-13.90967 -1.9694,-3.96883 -2.1947,-6.66224 -1.27185,-15.20446 l 0.65854,-6.09568 -3.1154,-4.49263 c -1.71346,-2.47094 -2.85851,-4.72055 -2.54453,-4.99915 0.314,-0.2786 4.55879,-0.4914 9.43292,-0.47291 7.98983,0.0304 9.59475,0.27932 16.30631,2.52959 20.05481,6.72412 31.19656,18.93303 31.19656,34.18457 0,4.67396 -0.22,5.35239 -2.35069,7.24892 -4.90589,4.36671 -13.12181,4.75095 -25.9028,1.21142 z m 133.05701,1.64719 c -4.39125,-1.12412 -6.51988,-2.70026 -8.45696,-6.26194 -1.45967,-2.6839 -1.62677,-3.66529 -0.90264,-5.30124 0.48876,-1.1042 1.05133,-3.86127 1.25019,-6.12684 0.47709,-5.43617 3.90402,-10.35318 11.53784,-16.55466 6.50943,-5.28811 16.31939,-10.08436 24.27702,-11.86945 5.0332,-1.12906 17.11453,-1.42974 19.7768,-0.49218 1.30566,0.45981 1.12802,0.98798 -1.66198,4.94068 -3.40955,4.83047 -3.69607,6.87441 -2.33818,16.68004 0.81832,5.90912 -0.79439,9.81991 -6.20329,15.04295 -4.09834,3.95754 -9.27037,6.33524 -19.39724,8.91742 -7.63814,1.9476 -13.0633,2.25864 -17.88156,1.02522 z m -98.44257,-15.23502 c -0.2194,-0.71192 -0.627,-2.62578 -0.90576,-4.25303 -0.47114,-2.75025 -0.41773,-2.8575 0.75842,-1.52285 0.69589,0.78967 1.26526,2.70353 1.26526,4.25301 0,3.00526 -0.46559,3.6395 -1.11792,1.52287 z m 83.10844,0.80129 c -1.44333,-1.2847 -0.42186,-6.5591 1.99996,-10.32679 3.42682,-5.33119 3.89732,-5.04958 0.77161,0.46183 -2.0521,3.61845 -2.41728,4.98038 -1.98321,7.39657 0.51952,2.89186 0.33532,3.46858 -0.78836,2.46839 z m -40.99958,-5.05432 c -0.003,-2.84767 0.14352,-4.10327 0.32709,-2.79019 0.18356,1.31305 0.1866,3.64297 0.007,5.17758 -0.17987,1.53461 -0.33008,0.46029 -0.33376,-2.38739 z m -47.00987,1.84915 c -0.91873,-2.80219 -0.80601,-4.15175 0.267,-3.19667 0.49278,0.43862 0.7707,1.75335 0.61761,2.92165 l -0.27832,2.12416 z m 92.04913,-1.69872 c -0.71014,-3.12452 -0.15657,-4.33793 1.02544,-2.24784 0.42231,0.74677 0.50797,2.18987 0.19033,3.20691 -0.53698,1.71924 -0.62236,1.65189 -1.21577,-0.95907 z M 251.6343,95.69579 c -3.32566,-5.17238 -4.13461,-8.41199 -3.73163,-14.94372 0.38784,-6.28667 2.17976,-10.61879 5.49668,-13.2888 l 1.69193,-1.36191 -1.22666,3.58088 c -1.47808,4.31484 -0.53932,12.56605 2.14481,18.85196 2.2732,5.32358 2.12935,5.99284 -0.53041,2.46745 -1.22217,-1.61997 -2.47493,-3.11183 -2.78385,-3.31523 -0.30871,-0.2034 -0.78487,-0.8691 -1.05764,-1.47932 -0.87331,-1.95343 0.44859,5.424 1.58422,8.84136 0.60201,1.81166 0.95427,3.41881 0.78282,3.57143 -0.17147,0.15264 -1.23811,-1.16322 -2.37027,-2.9241 z M 97.14459,93.41875 c 0.43409,-4.82916 -0.65815,-5.60358 -2.77188,-1.96532 -2.02773,3.49024 -2.18367,2.22188 -0.42401,-3.44867 2.39244,-7.70978 2.83384,-13.33404 1.41813,-18.07009 l -1.21605,-4.06811 2.44905,2.58879 c 5.36935,5.67576 6.41622,17.21294 2.28193,25.14831 l -2.11947,4.06811 z"
       id="path443" /><path
       id="path340-9-9"
       style="fill:#000000;fill-opacity:1;stroke-width:0.305035"
       d="M 175.00017,0 A 175,175 0 0 0 0,175.00017 175,175 0 0 0 175.00017,349.99983 175,175 0 0 0 350.00034,175.00017 175,175 0 0 0 175.00017,0 Z m 0,15.00012 A 160,160 0 0 1 335.00022,175.00017 160,160 0 0 1 175.00017,335.00022 160,160 0 0 1 15.00012,175.00017 160,160 0 0 1 175.00017,15.00012 Z" /><path
       id="path340-8"
       style="fill:#ffffff;fill-opacity:1;stroke-width:0.294867"
       d="M 175.00017,6.76943 V 345.10278 A 169.16667,169.16667 0 0 0 344.1671,175.93585 169.16667,169.16667 0 0 0 175.00017,6.76943 Z" /><path
       id="path750"
       style="fill:#000000;stroke-width:2.78189"
       d="m 176.10087,0.93619 c -0.36803,0 -0.73325,0.0102 -1.1007,0.0124 v 42.10802 c 2.42708,-8.00277 3.44077,-3.92267 13.39194,37.91965 4.72963,19.88691 9.36572,38.97407 10.30377,42.41601 h -5.2e-4 c 2.41208,8.85581 -3.44283,7.89598 -8.48269,-1.39061 -2.95953,-5.45337 -4.17817,-6.25157 -4.26227,-2.78122 -0.0801,3.49817 -2.39544,4.8674 -8.23102,4.8674 -0.85401,0 -1.78919,0.0546 -2.71921,0.11007 v 5.8999 c 1.03927,0.0521 2.05845,0.10005 3.22926,0.1819 8.82206,0.61707 17.58677,2.68387 19.47684,4.593 2.74438,2.77233 1.85848,2.87607 -4.39663,0.51521 -5.92285,-2.23553 -12.16798,-3.15571 -18.30947,-2.90628 v 8.81497 c 13.69481,-0.38856 27.38294,7.76483 32.89825,23.58667 3.46783,9.93605 3.45462,12.79289 -0.0951,22.11596 -2.34479,6.15866 -8.0496,13.38339 -13.43122,17.00879 l -0.004,-5.2e-4 c -6.28632,4.23503 -12.81471,6.22295 -19.36781,5.98981 v 32.65331 l 0.46353,-2.34301 c 1.63452,-8.26049 4.29229,-13.58262 7.18096,-14.38155 2.5223,-0.69718 7.21845,-2.01854 10.43606,-2.93626 5.60488,-1.59872 5.34805,0.27238 -6.12366,44.60865 -4.93561,19.07537 -9.58326,35.93118 -11.95689,43.53688 v 39.78103 c 61.14081,0.52782 122.60673,-34.93535 153.56633,-90.56346 15.49843,-27.84748 21.43383,-51.48348 21.43383,-85.35293 0,-48.72253 -16.56057,-88.37301 -51.60718,-123.56145 C 265.41675,18.32848 223.30055,0.93618 176.10099,0.93618 Z m 12.6938,12.08402 c 3.63652,-0.10279 11.18594,1.52077 25.58966,5.2033 25.0724,6.4101 40.3937,13.80253 58.7685,28.35537 7.46885,5.9155 12.47719,10.70777 11.12955,10.65517 -1.34764,-0.055 -6.20689,-3.29698 -10.79779,-7.20473 -14.00326,-11.91951 -47.4776,-26.54303 -68.23924,-29.8111 -10.67333,-1.67998 -19.40605,-4.0292 -19.40605,-5.22035 0,-1.23294 0.77346,-1.91599 2.95537,-1.97766 z m 4.24677,19.20348 c 1.57414,-0.17099 3.84816,3.34672 4.78266,9.11779 0.805,4.9718 2.90866,14.92568 4.67516,22.1201 1.76587,7.19453 2.77643,16.582 2.24431,20.86074 -0.67872,5.45852 -2.81253,0.20829 -7.15305,-17.59738 -3.4024,-13.95721 -6.18619,-27.41224 -6.18619,-29.89998 0,-3.06819 0.69263,-4.49868 1.63711,-4.60127 z m 14.86783,2.22415 c 0.46779,0.0324 0.99285,0.10333 1.58026,0.20464 3.06062,0.52793 5.95071,1.33027 6.42183,1.78335 v 5.2e-4 c 0.47114,0.45308 -0.18623,19.42105 -1.46089,42.15143 -2.6346,46.98118 -6.83826,46.77419 -7.96127,-0.39274 -0.36417,-15.29763 -1.09069,-31.56925 -1.61334,-36.15851 -0.70282,-6.16608 -0.24114,-7.8156 3.03341,-7.58869 z m 19.31613,6.41667 c 5.18827,-0.21571 22.55874,9.18169 23.72724,13.38729 1.4448,5.20004 6.80186,38.95371 8.43514,53.14766 0.61623,5.35415 0.73215,-3.7105 0.25787,-20.14347 -0.89387,-30.97015 -0.62453,-31.54492 10.36112,-22.1139 4.23085,3.63213 4.86895,9.59268 4.86895,45.46958 h 5.2e-4 c 0,46.20147 1.18441,44.08024 -20.81992,37.28403 -12.05082,-3.722 -11.9235,-3.44161 -17.77256,-39.10563 -2.54068,-15.49148 -2.62655,-14.92583 -1.19992,7.8879 l 1.53685,24.57627 -6.60941,-0.93431 -6.60942,-0.93482 0.57723,-48.32419 c 0.31748,-26.57832 1.24328,-48.99 2.05827,-49.80471 0.24455,-0.24446 0.65133,-0.36939 1.18804,-0.3917 z m 15.51275,21.96765 c -0.69389,-0.33893 -0.85863,3.87719 -0.99994,14.20378 -0.13797,10.07091 0.68834,19.26233 1.83607,20.42563 3.25231,3.29656 4.08256,-19.05743 1.09347,-29.43593 -0.90659,-3.14708 -1.51326,-4.99013 -1.9296,-5.19348 z m -67.73798,0.45475 v 4.6948 c 1.78869,0.37257 1.70832,-0.82 0,-4.6948 z m 122.13466,7.95455 c 0.14362,-0.14357 1.27179,0.69636 3.47834,2.42621 2.67803,2.09953 4.86895,4.29027 4.86895,4.8674 v 5.2e-4 c 0,2.28916 -2.28474,0.81576 -5.91953,-3.81734 -1.73048,-2.20575 -2.57138,-3.33321 -2.42776,-3.47679 z m -10.57145,10.12652 c 0.0346,-0.006 0.0696,0.003 0.10491,0.0243 1.12962,0.69424 5.34324,6.87292 9.36376,13.73095 6.8279,11.64672 7.20471,14.06824 5.71542,36.7099 l -1.59474,24.24038 3.57911,-17.37051 c 1.96841,-9.55383 4.24519,-18.03636 5.05912,-18.85001 1.84148,-1.84081 10.60297,28.8149 10.60297,37.09851 0,6.7447 -4.8191,7.42684 -17.38963,2.46134 -7.32605,-2.89372 -7.65236,-3.85835 -7.73648,-22.65081 -0.0667,-15.46259 -0.72437,-18.52662 -3.10007,-14.43943 -1.65866,2.85357 -2.45707,11.92792 -1.77353,20.16518 0.68332,8.23714 0.2008,14.97635 -1.07281,14.97635 -2.70969,0 -3.06742,-4.81937 -3.43338,-46.31604 -0.14589,-16.52691 0.60159,-29.60935 1.67535,-29.78009 z m 20.70726,1.97145 c 0.14635,-0.0369 0.37525,0.0357 0.6904,0.23048 1.6809,1.0384 4.35871,4.32184 5.95106,7.29619 4.22811,7.89739 1.34416,6.60855 -4.22507,-1.88825 -2.13737,-3.26037 -3.05057,-5.4784 -2.41639,-5.63842 z m -104.73675,54.65506 c 0.14362,-0.14357 1.27133,0.69687 3.47782,2.42673 2.67814,2.09952 4.86895,4.29028 4.86895,4.8674 0,2.28915 -2.28464,0.81575 -5.91953,-3.81734 -1.73042,-2.20574 -2.57087,-3.33321 -2.42724,-3.47679 z m -26.84074,8.98447 c -0.23079,6.7e-4 -0.46198,0.0174 -0.69298,0.0243 v 7.73234 c 0.36869,-0.0343 0.73575,-0.0532 1.1007,-0.0532 9.38301,0 21.51965,12.05696 20.35845,20.22461 -0.80721,5.67675 -2.45794,6.22225 -19.61844,6.47454 -0.64183,0.01 -1.21011,-0.006 -1.84071,-0.001 v 22.3175 c 1.69834,0.009 3.38723,-0.0681 4.92424,-0.26872 19.34816,-2.52475 29.46106,-21.89014 20.74396,-39.72315 -5.3811,-11.00828 -15.05595,-16.75569 -24.97522,-16.72663 z m 48.8058,5.52473 c 0.48625,0.0301 1.0204,0.14831 1.57975,0.36276 2.23741,0.85833 14.4449,4.33508 27.12806,7.72615 12.68318,3.39106 24.72577,7.43997 26.76116,8.99738 2.03539,1.55741 7.04373,2.97772 11.12955,3.15536 28.63138,1.24709 30.33596,4.17787 5.34179,9.18394 -9.5644,1.91565 -21.03821,4.26325 -25.49715,5.21777 -6.84115,1.46383 -7.82369,0.99665 -6.29212,-2.9931 2.04339,-5.32313 -1.48925,-3.97771 -10.64173,4.05247 -3.0607,2.68537 -10.57337,6.24698 -16.69458,7.91476 -14.79616,4.03148 -15.91116,3.89072 -14.30714,-1.80403 0.754,-2.67706 2.18888,-8.93364 3.18998,-13.90354 1.00063,-4.96982 4.53745,-10.95 7.85947,-13.28963 5.14502,-3.6236 5.42174,-4.64817 1.86656,-6.9143 -2.29546,-1.46321 -6.36485,-2.6822 -9.04286,-2.7032 -2.67804,-0.0234 -4.86896,-1.42835 -4.86896,-3.12177 0,-1.26976 1.02948,-1.97137 2.48822,-1.88102 z m 91.24404,38.66689 c 3.4888,0.08 3.6381,1.8788 3.60857,5.92832 -0.0305,4.49106 -0.70714,5.20982 -2.39624,2.54609 -1.50917,-2.37987 -3.06118,2.53718 -4.3248,13.70201 -1.08401,9.57758 -4.7011,22.51217 -8.03775,28.74398 l -6.0663,11.33058 -1.39164,-19.46962 -1.39113,-19.46961 -1.98644,24.83259 c -1.40643,17.58262 -3.33747,26.10946 -6.61458,29.20494 -4.27816,4.04103 -4.49599,3.66115 -2.88252,-5.01571 0.95992,-5.16292 1.74512,-22.26866 1.74512,-38.01319 v -28.62667 l 14.04927,-3.01171 c 8.24145,-1.76685 12.97493,-2.74425 15.68844,-2.682 z m -41.2011,8.79429 c 2.66006,-0.1132 3.03857,4.53454 2.79105,23.25956 -0.17889,13.54905 -1.11817,32.7564 -2.0867,42.68319 l -1.76165,18.04902 -15.9675,10.95489 c -8.78223,6.02534 -16.65787,10.26525 -17.50022,9.4232 -0.84275,-0.84243 -3.30549,-14.52008 -5.47253,-30.39453 l -3.94033,-28.86284 1.18752,31.01723 c 0.89514,23.38698 0.2886,31.76276 -2.466,34.04805 -2.00922,1.66734 -4.47645,2.20751 -5.4839,1.20045 -1.66375,-1.66316 -2.77115,-98.25137 -1.12655,-98.25137 0.38751,0 9.06174,-2.38912 19.27635,-5.30924 22.27311,-6.36729 21.63786,-7.14907 22.03431,27.09241 0.25197,21.73412 0.5476,23.01351 2.99775,12.98422 1.49519,-6.11914 2.13968,-18.94841 1.43195,-28.50938 -0.70775,-9.56108 -0.90662,-17.38343 -0.44286,-17.38343 0.46376,0 2.82404,-0.76005 5.24464,-1.68827 0.47794,-0.18332 0.90467,-0.29699 1.28467,-0.31316 z m -28.47061,14.14539 c -0.38632,-0.0421 -0.95653,0.56692 -1.74563,1.76268 -3.64427,5.52204 -3.52931,17.82461 0.44493,47.66376 h -5.1e-4 c 1.80593,13.55882 3.8342,24.65276 4.50618,24.65276 0.67293,0 0.25527,-13.45554 -0.92759,-29.9005 -1.18315,-16.44484 -1.95184,-33.6543 -1.70997,-38.24366 0.21039,-3.98581 0.0765,-5.86491 -0.56741,-5.93504 z m -34.66713,14.4756 c 1.38134,0.13143 1.97566,12.38305 2.08307,40.82904 0.14175,37.45206 -0.5638,46.58837 -3.59771,46.58837 -8.25397,0 -7.7519,-65.17986 0.66456,-86.26916 0.31172,-0.78105 0.59427,-1.17258 0.85008,-1.14825 z m -12.88397,48.4048 c 0.69808,-0.0688 0.60985,5.25532 0.32763,18.12189 -0.41372,18.84177 -1.23844,22.36452 -5.42448,23.16345 -4.33505,0.82753 -4.7071,-0.52478 -3.05408,-11.09545 1.03531,-6.62076 3.47626,-17.04443 5.42448,-23.16344 1.40315,-4.40768 2.24881,-6.9794 2.72645,-7.02645 z" /></g></svg>
