<?xml version="1.0" encoding="UTF-8" standalone="no"?>
<!-- Created with Inkscape (http://www.inkscape.org/) -->

<svg
   width="240mm"
   height="300mm"
   viewBox="0 0 240 300"
   version="1.1"
   id="svg5"
   xml:space="preserve"
   inkscape:version="1.2.2 (732a01da63, 2022-12-09)"
   sodipodi:docname="deadOdin.svg"
   xmlns:inkscape="http://www.inkscape.org/namespaces/inkscape"
   xmlns:sodipodi="http://sodipodi.sourceforge.net/DTD/sodipodi-0.dtd"
   xmlns="http://www.w3.org/2000/svg"
   xmlns:svg="http://www.w3.org/2000/svg"><sodipodi:namedview
     id="namedview7"
     pagecolor="#505050"
     bordercolor="#eeeeee"
     borderopacity="1"
     inkscape:showpageshadow="0"
     inkscape:pageopacity="0"
     inkscape:pagecheckerboard="0"
     inkscape:deskcolor="#505050"
     inkscape:document-units="mm"
     showgrid="false"
     inkscape:zoom="0.50646225"
     inkscape:cx="141.17538"
     inkscape:cy="543.96947"
     inkscape:window-width="1902"
     inkscape:window-height="973"
     inkscape:window-x="0"
     inkscape:window-y="0"
     inkscape:window-maximized="0"
     inkscape:current-layer="layer1" /><defs
     id="defs2" /><g
     inkscape:label="Vrstva 1"
     inkscape:groupmode="layer"
     id="layer1"><path
       style="fill:#ff0000;fill-opacity:1;stroke-width:1.61601"
       d="m 118.7019,298.11997 c 0,-1.13473 -2.13375,-5.4456 -4.74167,-9.57973 l -4.74168,-7.51661 3.96405,-4.4097 3.96407,-4.40969 -5.45915,-5.11365 c -3.00252,-2.81251 -5.45913,-4.35043 -5.45913,-3.41767 0,1.23317 -0.72362,1.2021 -2.65181,-0.11411 -2.14325,-1.46292 -2.85701,-1.37025 -3.721764,0.483 -0.58848,1.26124 -0.443999,3.14911 0.321004,4.19528 1.04166,1.42453 0.63388,1.39706 -1.624036,-0.10908 -1.969866,-1.31414 -3.014952,-4.15645 -3.014952,-8.19969 0,-4.24164 -1.076502,-6.98956 -3.422047,-8.73541 -3.267551,-2.43204 -3.516551,-2.4018 -5.515355,0.66989 -1.151316,1.76929 -1.698132,4.91707 -1.215144,6.99505 l 0.878166,3.77813 -3.36336,-3.57601 c -3.32322,-3.53331 -6.908623,-11.768 -6.980851,-16.03307 -0.0204,-1.20907 -0.777851,-3.16136 -1.683077,-4.33835 -1.425469,-1.85348 -2.077998,-1.81781 -4.87302,0.2664 -3.084559,2.29992 -3.199237,2.04092 -2.595145,-5.86082 0.54966,-7.18914 0.285961,-8.03085 -2.022215,-6.45538 -3.937957,2.68788 -5.149171,-3.03807 -2.982853,-14.10133 1.386919,-7.08283 1.223382,-10.11254 -0.756186,-14.00915 -5.292722,-10.41813 -5.852665,-8.1685 -6.371868,25.59952 -0.0693,4.50851 -1.265116,7.84894 -3.603559,10.06645 -1.924889,1.82533 -3.993507,4.59814 -4.596929,6.16181 -1.024777,2.65548 -1.380768,2.6901 -5.398695,0.52512 -4.666009,-2.51444 -5.975103,-0.82061 -1.648296,2.13277 1.459302,0.99608 2.213848,2.3958 1.676763,3.1105 -0.537101,0.71471 -0.115499,1.29947 0.936779,1.29947 1.052308,0 3.470754,-2.10628 5.374328,-4.68067 2.748218,-3.71677 3.688579,-4.19307 4.565847,-2.31283 0.607619,1.30235 0.314185,3.58289 -0.652135,5.0679 -1.250399,1.92155 -1.03308,3.51425 0.753752,5.52404 6.242073,7.02087 1.201531,18.76588 -10.120125,23.58104 -5.660384,2.40737 -6.184416,2.00368 -3.250956,-2.50432 1.539631,-2.36609 1.100155,-4.27562 -2.140227,-9.29927 -3.52695,-5.46793 -3.781535,-6.85641 -1.88483,-10.28011 1.66693,-3.00892 1.697533,-4.44918 0.12756,-6.00499 -1.190197,-1.17948 -1.639743,-4.20347 -1.060962,-7.13679 0.56061,-2.84121 0.193559,-5.50228 -0.830643,-6.02289 -1.061636,-0.53953 -1.370679,-3.17599 -0.733293,-6.25542 1.314174,-6.3492 1.504218,-8.53519 1.163522,-13.38313 -0.682829,-9.71626 0.07846,-18.70465 1.897341,-22.40126 1.625471,-3.30354 1.406892,-5.17923 -1.146164,-9.83569 -2.229865,-4.06694 -2.873346,-7.80636 -2.195025,-12.75589 l 0.959637,-7.0022 -4.438399,4.24375 c -2.868475,2.74271 -4.159681,5.44295 -3.650426,7.63392 1.328221,5.71449 -1.637957,2.48311 -3.94711,-4.29997 -2.593783,-7.61918 -0.315191,-16.65715 5.242391,-20.79366 4.57915,-3.40829 4.555671,-5.07227 -0.05725,-4.08007 -3.015863,0.64863 -2.395239,-0.68988 3.673594,-7.92306 7.181707,-8.55955 7.268471,-8.81485 5.243685,-15.42826 -1.698032,-5.5462 -1.580503,-7.58479 0.670657,-11.63256 1.50124,-2.69935 3.922973,-8.32625 5.381628,-12.504196 2.623724,-7.515054 2.605836,-7.621295 -1.67137,-9.926208 -2.377909,-1.281402 -4.323474,-3.633618 -4.323474,-5.227146 0,-1.593527 -0.64008,-2.897316 -1.422355,-2.897316 -0.782293,0 -6.026482,-3.609468 -11.653757,-8.0211 C 10.432763,61.894942 1.5498319,48.30493 0.21214801,37.723009 -1.625289,23.187757 8.6544782,7.8808574 24.003707,2.2966048 c 11.060613,-4.0239565 12.789,-1.62726325 4.931739,6.8386271 -8.136049,8.7662731 -9.843901,15.7792141 -5.469578,22.4596451 6.544058,9.994005 23.241327,18.175078 37.438471,18.343409 8.416003,0.09969 10.281348,-0.463068 16.277748,-4.913086 8.516784,-6.320282 17.775973,-11.040055 24.276273,-12.374524 2.95921,-0.607579 5.69725,-2.475569 6.65028,-4.53715 3.31035,-7.160944 19.6563,-7.995568 23.42323,-1.195992 1.05038,1.895962 4.81905,4.404656 8.37485,5.57478 3.55578,1.170126 12.16404,5.748985 19.12948,10.175187 8.85106,5.624466 13.4043,7.662782 15.12161,6.769442 1.35144,-0.703014 4.96795,-0.900647 8.03673,-0.439248 8.51727,1.280741 24.74312,-5.831849 32.09544,-14.068975 3.24167,-3.631792 5.91381,-7.515998 5.93812,-8.631508 0.1084,-4.973904 -4.60613,-13.954815 -9.19565,-17.5174795 -2.75858,-2.1413983 -5.01562,-5.1211327 -5.01562,-6.6217178 0,-2.23046624 0.89426,-2.55439011 4.90031,-1.77504524 8.54119,1.66160544 18.9779,8.73386944 24.01444,16.27296554 12.19326,18.251958 1.6803,44.556651 -23.95876,59.947629 -2.60782,1.565442 -5.19258,4.324338 -5.74385,6.130842 -0.55135,1.80651 -2.67754,3.72186 -4.72499,4.256322 -2.83448,0.739908 -3.43912,1.724748 -2.53437,4.127922 0.65356,1.735884 1.87551,5.794128 2.71549,9.01835 0.83999,3.22418 2.66833,8.07739 4.063,10.78494 1.90678,3.70169 2.11796,6.53386 0.85144,11.41781 -1.58654,6.11806 -1.26134,7.08057 5.60324,16.58376 10.36101,14.3436 9.05463,16.15455 -1.62208,2.24864 -10.58068,-13.78084 -12.03687,-12.87254 -1.78193,1.1114 3.92024,5.34581 7.12772,10.36812 7.12772,11.16076 0,0.79264 1.16017,2.39531 2.57816,3.5615 1.8769,1.54368 2.16091,3.26633 1.04413,6.33324 -1.12104,3.07867 -1.58787,3.42375 -1.73393,1.28174 -0.10987,-1.61209 -1.7177,-5.56902 -3.57279,-8.79325 l -3.37288,-5.86214 -0.1051,8.06048 c -0.0653,5.00536 1.20142,10.42783 3.34196,14.30638 3.36765,6.10204 3.36902,6.21162 0.06,4.75518 -4.15424,-1.82857 -6.27655,-4.40617 -3.62783,-4.40617 1.3755,0 1.40649,-0.83489 0.10511,-2.83471 -1.01452,-1.55913 -1.8446,-6.37928 -1.8446,-10.71148 0,-4.50752 -1.08576,-9.09352 -2.53834,-10.7215 -2.26469,-2.53811 -2.44143,-1.81787 -1.63935,6.6812 0.49447,5.23933 1.47813,11.17476 2.18595,13.18988 0.70782,2.01509 1.02454,7.12621 0.70383,11.35794 -0.3207,4.23178 -0.55914,9.83747 -0.5298,12.45711 0.15948,14.25774 0.16434,44.83376 0.007,47.9965 -0.0999,2.01512 0.34435,5.73281 0.98705,8.26157 0.81377,3.20196 0.22794,5.77839 -1.92991,8.48687 -2.49813,3.13573 -2.71161,4.5874 -1.10192,7.49301 1.64661,2.97226 1.51925,3.60382 -0.72669,3.60382 -5.84151,0 -12.72059,-4.44055 -15.92064,-10.27693 -2.90422,-5.29695 -3.03372,-6.68204 -1.0028,-10.72622 2.74271,-5.46151 3.54607,-19.95837 1.25302,-22.61074 -0.87775,-1.01526 -1.17093,-4.4518 -0.65153,-7.63675 0.64634,-3.96314 0.15732,-6.3281 -1.54959,-7.49313 -1.37862,-0.94103 -2.51933,-4.40759 -2.55065,-7.7514 -0.054,-5.74555 -0.19476,-5.90203 -2.80862,-3.11805 -1.81841,1.93678 -2.46118,4.79554 -1.89477,8.42722 0.48174,3.08903 0.15091,5.13715 -0.75525,4.67652 -2.12082,-1.07807 -2.02416,1.73888 0.29538,8.60891 1.03838,3.07545 1.33738,7.65348 0.66439,10.17341 l -1.22355,4.58163 -2.31155,-4.3112 c -1.29614,-2.41742 -2.37512,-3.27144 -2.45627,-1.94416 -0.0797,1.30189 -1.62873,3.93987 -3.4425,5.8622 -1.81378,1.92227 -3.75695,6.38869 -4.31816,9.92527 -0.56125,3.53662 -2.28466,7.47001 -3.82994,8.7409 -2.55813,2.10395 -2.80957,1.87314 -2.80957,-2.57937 0,-4.11834 -0.4101,-4.61021 -2.5984,-3.11655 -1.42914,0.97548 -4.37861,5.01323 -6.55441,8.97271 -3.90708,7.11121 -6.88398,9.27354 -6.88398,5.00077 0,-3.4172 -2.46241,-2.6414 -9.52727,3.00166 -7.31135,5.83995 -7.42379,6.14039 -3.78054,10.10197 4.37219,4.75417 3.24184,12.85887 -2.74074,19.65118 -5.72841,6.50378 -7.11654,7.28768 -7.11654,4.01903 z m 8.62363,-8.99747 c 2.89199,-5.22029 2.57575,-11.68264 -0.68045,-13.90524 -3.84106,-2.6218 -6.9305,0.1872 -5.1329,4.66704 l 1.38236,3.44496 1.28992,-3.66381 c 1.10899,-3.14995 1.31484,-2.87942 1.46755,1.92826 0.0976,3.07567 -0.65248,6.86776 -1.66701,8.42684 -1.01454,1.55913 -1.14325,2.83477 -0.28602,2.83477 0.85723,0 2.48917,-1.67977 3.62656,-3.73282 z M 52.015414,261.26577 c 0.603106,-2.64407 0.24225,-6.01586 -0.801934,-7.4929 -1.800543,-2.54697 -1.902704,-2.53429 -1.979966,0.2454 -0.06062,2.17231 -0.471708,2.42478 -1.588901,0.97532 -1.125886,-1.46082 -1.789344,-1.08986 -2.62128,1.46552 -1.767361,5.42871 -1.254791,6.57602 1.567053,3.50761 2.581255,-2.80676 2.616223,-2.80565 2.616223,0.0864 0,1.61208 -1.177301,4.21128 -2.616223,5.7759 -3.805511,4.13801 -3.307218,5.92734 0.79944,2.87072 1.940959,-1.44464 4.022467,-4.78995 4.625588,-7.43402 z m 63.379016,-0.56988 c -2.73871,-7.3403 -6.87855,-8.88028 -4.71677,-1.75456 0.93564,3.08404 5.60741,8.99974 7.10734,8.99974 0.17202,0 -0.90378,-3.26033 -2.39057,-7.24518 z m 22.83736,-9.18552 c -0.0683,-3.20751 -0.18749,-3.17799 -2.72981,0.67614 -1.46214,2.21662 -3.26182,4.03022 -3.99929,4.03022 -1.4596,0 -7.455,7.78552 -7.455,9.68099 0,0.64253 3.20748,-1.57708 7.12773,-4.93253 4.19604,-3.59146 7.09837,-7.48027 7.05637,-9.45482 z m -15.30722,8.73664 c 0.591,-1.81367 1.02441,-5.60575 0.96322,-8.4269 l -0.11123,-5.12939 -2.40176,5.12939 c -2.80776,5.99647 -3.34458,11.72435 -1.09879,11.72435 0.86575,0 2.0576,-1.48386 2.64856,-3.29745 z m 69.65322,-3.66387 c -1.73665,-5.17863 -1.76805,-7.58014 -0.15804,-12.09071 1.25474,-3.5153 1.19563,-3.54853 -1.45739,-0.81905 -4.22776,4.34953 -3.34885,16.93998 1.18254,16.93998 1.08638,0 1.25573,-1.57665 0.4329,-4.03022 z M 99.992762,253.5004 c -1.33395,-4.37119 -4.09089,-7.54241 -6.557118,-7.54241 -0.91563,0 -0.41652,1.46574 1.109154,3.25718 1.525662,1.79145 2.773938,4.79804 2.773938,6.68143 0,2.08075 0.75579,3.04005 1.926318,2.4451 1.115516,-0.56706 1.430226,-2.60479 0.747708,-4.8413 z m 96.560488,-7.17606 c -0.4482,-1.41058 -0.81492,-0.25645 -0.81492,2.56475 0,2.82114 0.36672,3.97526 0.81492,2.56469 0.44821,-1.41064 0.44821,-3.71881 0,-5.12944 z m -113.489956,1.05208 c 0,-4.19284 -4.791912,-13.14279 -7.036801,-13.14279 -2.427563,0 -2.378147,0.33341 0.789067,5.32824 1.464054,2.30879 2.666849,5.68163 2.672892,7.49528 0.006,1.81359 0.812843,3.29746 1.792907,3.29746 0.980064,0 1.781935,-1.34018 1.781935,-2.97819 z m 73.059146,-5.17419 c 0,-0.60237 -1.60374,0.0985 -3.56386,1.55741 -1.96011,1.45894 -3.56385,3.62859 -3.56385,4.82142 0,1.39556 1.27062,0.84028 3.56385,-1.55747 1.96012,-2.04939 3.56386,-4.21904 3.56386,-4.82136 z m -56.240685,-3.71821 c -0.799163,-1.06344 0.151385,-1.01199 2.794355,0.1512 3.20611,1.41124 4.3159,1.36727 5.56082,-0.2199 1.28801,-1.64239 1.88489,-1.60538 3.47291,0.21493 1.45157,1.66409 2.13814,1.75089 2.8251,0.35723 0.49913,-1.01253 1.84135,-1.35446 2.98271,-0.75973 3.37715,1.75965 11.87357,1.66304 11.90312,-0.13572 0.0162,-0.99448 0.64016,-0.86503 1.55531,0.32292 1.22322,1.58761 2.32704,1.63153 5.53355,0.2199 2.64296,-1.16332 3.59352,-1.21483 2.79435,-0.1512 -0.66614,0.88653 -0.1395,1.61181 1.1704,1.61181 4.91073,0 9.96519,-4.55232 13.89409,-12.51378 2.50647,-5.07902 4.56245,-7.54352 5.38259,-6.4521 2.52578,3.36121 7.03044,-5.18512 7.82319,-14.84229 0.42558,-5.18389 1.96121,-13.54713 3.41259,-18.58497 2.72617,-9.46275 1.65408,-12.20402 -2.00608,-5.12938 l -2.0851,4.03028 0.60304,-4.03027 c 0.33168,-2.21662 -0.0878,-4.03022 -0.93177,-4.03022 -0.84416,0 -1.54711,0.82437 -1.56211,1.83193 -0.0186,1.2449 -0.55674,1.14337 -1.67963,-0.31686 -2.89908,-3.76988 -5.42027,4.9312 -5.42748,18.73142 -0.006,10.38744 -0.70228,13.66657 -3.78942,17.83155 -4.16136,5.61427 -8.77541,8.94235 -10.90027,7.86229 -0.75414,-0.38333 -2.11542,0.82926 -3.02507,2.69465 -0.90965,1.86538 -1.70474,2.56724 -1.76686,1.55968 -0.17556,-2.84774 -3.67336,-2.1558 -3.70409,0.73276 -0.0156,1.46492 -0.58872,1.92843 -1.33646,1.08095 -1.73423,-1.96553 -11.10978,-2.28624 -11.10978,-0.37998 0,0.86093 -1.12845,0.71968 -2.67289,-0.33456 -2.13247,-1.45556 -3.21333,-1.45556 -5.3458,0 -2.09953,1.43306 -2.67289,1.43793 -2.67289,0.0222 0,-0.99099 -1.151,-1.43855 -2.55777,-0.99454 -1.40677,0.44424 -2.94946,0.0222 -3.4282,-0.94236 -0.64729,-1.301 -1.2987,-1.24817 -2.5408,0.20604 -1.29245,1.51328 -1.90075,1.23128 -2.68862,-1.24661 -0.564778,-1.77632 -1.865195,-2.77191 -2.920114,-2.23573 -1.046034,0.53178 -1.901868,0.26808 -1.901868,-0.58535 0,-0.85364 -1.002336,-1.5602 -2.227417,-1.57017 -1.225073,-0.0113 -4.232087,-2.48309 -6.682241,-5.49579 -4.020787,-4.94394 -4.407607,-6.70946 -3.970152,-18.12096 0.495479,-12.92472 -2.003754,-22.77256 -4.826107,-19.01674 -1.21083,1.61131 -1.63092,1.60273 -2.429903,-0.0498 -0.5313,-1.09873 -1.090308,-0.0222 -1.242235,2.39891 l -0.27624,4.39662 -2.558843,-5.12938 -2.558838,-5.12944 0.97848,5.8622 c 0.538199,3.22417 1.445927,12.12733 2.017278,19.78478 0.904812,12.12688 1.585806,14.35563 5.279789,17.27941 2.574421,2.03771 4.256893,2.61361 4.281462,1.46558 0.0222,-1.04017 2.820745,2.35244 6.218857,7.53921 5.825712,8.89212 8.754558,11.74523 12.110616,11.79746 0.792886,0.0113 0.896596,-0.70284 0.23046,-1.58932 z m 100.228625,-1.57474 c 2.26831,-1.75262 4.09981,-4.22576 4.07,-5.4958 -0.045,-1.93789 -0.34734,-1.8953 -1.87707,0.26532 -1.4322,2.02269 -2.56626,2.24719 -5.2916,1.04759 -3.62723,-1.59657 -5.0998,0.50515 -1.60026,2.28421 1.27729,0.64923 1.20825,1.60394 -0.21822,3.01756 -3.27013,3.24068 0.33719,2.4199 4.91713,-1.11872 z M 45.506033,231.90507 c 3.015377,-2.08678 5.48251,-4.79782 5.48251,-6.02455 0,-1.60439 -0.913355,-1.30272 -3.254363,1.07502 l -3.254363,3.30537 -3.873365,-3.41936 c -4.287179,-3.78468 -5.301981,-2.10269 -1.387655,2.29997 2.157491,2.42667 2.098668,3.03801 -0.445512,4.63016 -1.653084,1.03447 -2.019562,1.85458 -0.840491,1.8809 1.149883,0.0275 4.557828,-1.66073 7.573212,-3.74751 z m 122.885017,-5.73192 c -0.14736,-4.30845 -0.17891,-4.32312 -1.57702,-0.73276 -0.78467,2.01511 -1.49434,4.98288 -1.57702,6.59496 -0.12384,2.41463 0.15395,2.54376 1.57702,0.73276 0.95005,-1.20907 1.65971,-4.17678 1.57702,-6.59496 z m -49.68915,-1.46553 c 0,-1.20906 0.80187,-2.19827 1.78193,-2.19827 0.98007,0 1.78193,0.98921 1.78193,2.19827 0,2.90219 2.89209,2.82093 4.26418,-0.11963 2.37621,-5.09284 1.226,-6.31624 -5.60063,-5.95704 -3.90806,0.2055 -6.60827,1.08366 -6.50404,2.1151 0.54096,5.35349 0.8676,6.16014 2.4947,6.16014 0.98006,0 1.78193,-0.98927 1.78193,-2.19834 z m -7.45484,-4.14326 c 0.3996,-2.77612 -0.24924,-3.91722 -2.22742,-3.91722 -1.9302,0 -2.79125,1.39395 -2.79125,4.51875 0,5.60714 4.19742,5.10402 5.01867,-0.60153 z m 23.16509,0.95881 c -0.72651,-5.04736 -5.01867,-6.39739 -5.01867,-1.57858 0,3.71427 1.28992,5.4958 3.97922,5.4958 0.88181,0 1.34957,-1.76275 1.03945,-3.91722 z m 67.60848,-1.92471 c 4.72641,-5.73724 3.8597,-7.87864 -1.13539,-2.80526 -3.38931,3.44241 -3.49181,3.4526 -7.17228,0.71321 -2.05362,-1.5285 -3.73384,-2.09814 -3.73384,-1.26584 0,0.8323 1.23931,2.35913 2.754,3.393 1.51468,1.03387 2.31601,2.81849 1.78072,3.96574 -1.75763,3.76711 3.35013,1.04484 7.50679,-4.00085 z m -97.57417,-0.10681 c 0,-2.61554 -0.74231,-4.10583 -1.78193,-3.57735 -2.32012,1.17932 -2.32012,8.0605 0,8.0605 0.98006,0 1.78193,-2.01744 1.78193,-4.48315 z m 35.63861,0.81928 c 0,-2.01512 -0.80186,-3.66386 -1.78192,-3.66386 -0.98008,0 -1.78194,1.64874 -1.78194,3.66386 0,2.0151 0.80186,3.66387 1.78194,3.66387 0.98006,0 1.78192,-1.64877 1.78192,-3.66387 z m -40.272692,-2.68749 c 0.800732,-2.74139 0.578462,-3.83048 -0.653958,-3.20401 -1.026864,0.52176 -3.167064,-0.12024 -4.756009,-1.42703 -1.588943,-1.30683 -3.947561,-2.04198 -5.241372,-1.63363 -1.495883,0.47195 -1.991615,-0.033 -1.361525,-1.38128 0.54498,-1.16802 0.103203,-2.12367 -0.981714,-2.12367 -2.540016,0 -2.507388,2.30192 0.08915,6.2922 2.015034,3.09667 2.092974,3.10276 3.438618,0.2703 1.107373,-2.33112 1.401361,-1.97518 1.502095,1.81863 0.09475,3.56782 0.77643,4.51151 2.798135,3.87346 1.51371,-0.47748 2.672892,-0.033 2.672892,1.02301 0,2.77124 1.11966,1.19621 2.493642,-3.50771 z m 43.079662,-3.55291 c -1.9356,-1.59193 -2.49092,0.38327 -1.34235,4.77488 l 1.14991,4.39662 0.60877,-4.16426 c 0.33479,-2.29029 0.14747,-4.54358 -0.41629,-5.00724 z m 6.49534,0.51845 c -0.519,-0.72933 0.0717,-0.80964 1.31317,-0.17892 1.31449,0.66818 2.9058,0.30354 3.8119,-0.87273 2.44333,-3.1726 1.87736,-5.68351 -1.28109,-5.68351 -2.38712,0 -2.49851,0.38886 -0.63894,2.23185 1.84161,1.825 1.80017,2.09497 -0.22727,1.48092 -4.51292,-1.36676 -7.23783,1.37712 -5.85797,5.89881 1.13247,3.711 1.43201,3.8666 2.55325,1.32656 0.69866,-1.58273 0.84579,-3.47421 0.32701,-4.20326 z m -101.331941,1.39554 c 2.59327,-1.97661 4.715033,-4.38703 4.715033,-5.35654 0,-1.08416 -1.354246,-0.75463 -3.518202,0.85595 -3.378769,2.51485 -3.71267,2.51385 -8.424967,-0.0275 l -4.906767,-2.64418 3.267132,4.10095 c 2.67823,3.36177 2.831758,4.32784 0.851757,5.35965 -1.927698,1.00461 -1.838299,1.26329 0.442818,1.28123 1.572004,0.0113 4.97994,-1.5948 7.573204,-3.57147 z m 153.676011,-12.9369 2.87956,-4.71955 -4.01614,3.18894 c -3.72147,2.95504 -4.32357,3.02328 -8.20689,0.93062 -2.30493,-1.24208 -4.19078,-1.68165 -4.19078,-0.97681 0,0.7049 1.66469,2.13664 3.6993,3.18164 3.15028,1.61806 3.34864,2.24979 1.33645,4.25631 -2.11403,2.10817 -1.94259,2.17209 1.62804,0.60735 2.19499,-0.96191 5.2867,-3.87272 6.87046,-6.4685 z M 48.646281,200.2708 c 4.941142,-3.81779 5.613422,-7.16948 0.705308,-3.5163 -3.258794,2.4255 -3.599511,2.39614 -7.276216,-0.62779 -5.106861,-4.20011 -6.352101,-2.91377 -1.793446,1.85264 2.629874,2.7497 2.996399,3.96248 1.361405,4.50464 -1.601172,0.53118 -1.509982,0.7748 0.320712,0.85761 1.406931,0.0637 4.413936,-1.31824 6.682237,-3.0708 z m 78.614569,-3.24194 c -0.6252,-5.28043 -3.83306,-6.13367 -4.67699,-1.24396 -0.68728,3.98197 -3.88196,2.88784 -3.88196,-1.32949 0,-4.677 -4.38765,-2.31731 -4.99509,2.68634 -0.52278,4.30634 -0.30353,4.45029 6.77702,4.45029 7.11738,0 7.30252,-0.12468 6.77702,-4.56318 z m -22.81439,-1.63208 c 0,-2.82116 -0.80187,-5.12939 -1.78193,-5.12939 -0.98007,0 -1.78193,2.30823 -1.78193,5.12939 0,2.82121 0.80186,5.12943 1.78193,5.12943 0.98006,0 1.78193,-2.30822 1.78193,-5.12943 z m 6.1303,1.29265 c 1.29693,-4.24989 0.43896,-5.75137 -2.44789,-4.28397 -2.29296,1.16554 -2.55995,8.12075 -0.31176,8.12075 0.87382,0 2.11565,-1.72657 2.75962,-3.83678 z m 23.83539,-0.0804 c -0.82125,-5.70553 -5.01867,-6.20859 -5.01867,-0.60151 0,3.1248 0.86105,4.51875 2.79126,4.51875 1.97816,0 2.62702,-1.1411 2.22741,-3.91721 z m 5.67292,2.4517 c 0,-0.80605 1.14704,-1.46558 2.54896,-1.46558 1.40193,0 2.89646,-1.48385 3.3212,-3.29746 l 0.77222,-3.29745 0.24265,3.38397 c 0.32609,4.54757 3.80652,2.57101 3.80652,-2.16173 0,-2.80292 -0.70289,-3.5123 -2.81864,-2.84457 -1.55025,0.48906 -3.49612,0.88956 -4.32416,0.88956 -0.82804,0 -1.87225,1.15412 -2.32045,2.5647 -0.77612,2.44256 -0.82476,2.44256 -1.02163,0 -0.39137,-4.85609 -3.77057,-2.5576 -3.77057,2.5647 0,2.82115 0.80188,5.12938 1.78194,5.12938 0.98006,0 1.78193,-0.65947 1.78193,-1.46552 z m -44.612936,-4.39662 0.29052,3.66386 1.724711,-3.54904 c 1.250803,-2.57383 1.097359,-3.87645 -0.558479,-4.7406 -4.114381,-2.14722 -6.73797,-1.29713 -6.73797,2.18316 0,4.84928 2.436888,6.24606 3.823446,2.19153 l 1.167102,-3.41278 z m -44.483591,-7.5007 c 0,-2.55787 -0.745232,-4.0178 -1.781934,-3.49087 -0.980058,0.49794 -1.78193,2.88424 -1.78193,5.30237 0,2.55794 0.745233,4.01787 1.78193,3.49088 0.980061,-0.49795 1.781934,-2.88424 1.781934,-5.30238 z m 140.772517,3.38421 c 0,-1.45804 -1.26233,-3.93119 -2.80516,-5.4958 -2.70741,-2.74571 -2.77035,-2.71714 -1.80625,0.81906 0.54936,2.01511 1.00983,4.48819 1.02321,5.49579 0.0144,1.00756 0.8262,1.83188 1.80626,1.83188 0.98007,0 1.78194,-1.19289 1.78194,-2.65093 z m 5.34579,-4.18825 c 0,-8.13881 -0.85631,-7.925 -2.44598,0.61067 -0.71749,3.85242 -0.47221,6.22851 0.64297,6.22851 0.99164,0 1.803,-3.0776 1.803,-6.83918 z m 5.92042,-0.28692 c 1.15021,-4.72986 -1.64308,-14.85707 -4.09787,-14.85707 -0.88435,0 -0.82864,2.08656 0.12703,4.76303 0.93549,2.61964 1.19282,7.31958 0.57186,10.44428 -1.31655,6.62464 1.78036,6.30554 3.39891,-0.35005 z m -91.4258,2.36307 c 0.0204,-1.34178 0.43896,-1.29753 1.56594,0.1656 2.64017,3.42729 37.58034,0.40488 37.63357,-3.25542 0.0144,-0.9202 0.54017,-3.32183 1.17072,-5.33693 l 1.14637,-3.66386 -4.10289,2.9311 -4.10289,2.9311 2.03466,-3.19105 c 1.69317,-2.65548 1.51239,-3.3241 -1.07717,-3.9838 -1.71149,-0.4359 3.93133,-0.47855 12.53961,-0.0941 17.32182,0.7732 23.06621,-0.69144 29.63046,-7.55483 3.92215,-4.10088 5.16366,-14.31362 1.93927,-15.95258 -0.98006,-0.49793 -1.78192,-0.27803 -1.78192,0.48966 0,0.76738 -1.20548,1.77567 -2.67881,2.24066 -2.26732,0.7156 -2.23105,0.28362 0.23603,-2.81328 2.2639,-2.8417 2.71425,-5.96456 2.01665,-13.98351 -0.91154,-10.47795 -3.69903,-15.57598 -6.4876,-11.86509 -1.13476,1.5101 -1.8554,1.45711 -3.59224,-0.26418 -1.19498,-1.1842 -5.35446,-2.59522 -9.24329,-3.13561 -5.78615,-0.80399 -9.14779,-0.1584 -18.50555,3.55331 -6.28921,2.49468 -11.96216,5.23734 -12.60649,6.09478 -2.50006,3.32698 1.41958,3.14668 13.0283,-0.59915 14.9161,-4.81306 20.19798,-4.88862 26.57103,-0.37999 4.04004,2.85809 4.93788,4.65536 4.78118,9.57072 -0.111,3.48168 -1.49963,7.23936 -3.26972,8.84797 -3.97431,3.61185 -18.68154,6.1854 -28.222,4.93845 -7.09969,-0.9279 -7.33534,-0.84259 -4.79382,1.73527 2.5171,2.55306 2.32246,2.5457 -3.33933,-0.12683 -3.30674,-1.56075 -6.90757,-3.99183 -8.00185,-5.40241 -1.09428,-1.41057 -3.49398,-2.56469 -5.33266,-2.56469 -2.6171,0 -3.0952,0.71604 -2.20167,3.29746 5.0326,14.53907 5.31617,17.27786 2.05377,19.83545 -1.7655,1.38411 -3.52423,1.85537 -3.91308,1.0485 -1.60271,-3.3256 -4.53241,-5.77081 -5.2678,-4.39663 -2.12931,3.97898 -3.94289,5.14705 -6.66008,4.2895 -3.6676,-1.1575 -3.76839,-5.32181 -0.35466,-14.65091 3.45949,-9.454 1.15638,-11.16817 -7.04664,-5.2446 -6.295912,4.54634 -9.199216,5.8663 -7.277092,3.30848 0.54276,-0.72229 -4.785882,-1.25233 -11.922864,-1.18592 -13.592544,0.1263 -23.033089,-2.53727 -25.161852,-7.09979 -2.527807,-5.41774 -1.083821,-12.54362 3.266928,-16.12191 5.707925,-4.69445 13.832058,-4.67823 26.187534,0.0498 10.805986,4.13729 14.297566,4.58373 12.930296,1.65336 -0.5196,-1.11369 -6.078062,-4.16776 -12.352113,-6.7869 -10.704929,-4.4688 -11.877732,-4.65491 -19.046039,-3.02288 -4.201273,0.95649 -9.242413,1.94792 -11.202541,2.20315 -1.960124,0.25537 -4.027544,0.54835 -4.594261,0.65118 -0.566736,0.10307 -1.937215,3.41798 -3.045529,7.36695 -2.164374,7.71174 -0.89816,13.89476 4.140772,20.21964 2.768596,3.47521 2.741788,3.53879 -0.829284,1.96698 -2.02971,-0.8934 -3.690384,-2.39254 -3.690384,-3.33147 0,-1.20663 -0.555895,-1.24988 -1.896219,-0.14735 -1.04292,0.85771 -1.644322,4.38482 -1.336445,7.83797 0.467868,5.24776 1.680144,7.02225 7.384386,10.80903 6.705018,4.45106 7.128678,4.52351 24.174781,4.1334 16.173924,-0.37002 17.583714,-0.17058 20.795306,2.94644 l 3.44514,3.34343 -3.70417,-2.56468 c -4.202752,-2.90996 -7.87837,-3.34959 -7.87837,-0.94236 0,0.89228 -1.175646,1.25127 -2.612532,0.79778 -2.084448,-0.65782 -2.392902,0.12517 -1.52598,3.87346 1.353618,5.85262 0.797484,5.40773 7.650732,6.12105 3.17918,0.33065 6.22877,0.97044 6.77684,1.42121 1.90152,1.5639 7.53038,0.80987 7.55753,-1.01238 z m -49.135282,-17.8942 c -3.160953,-1.95529 -2.92163,-2.02763 2.777795,-0.83928 3.430218,0.7152 7.840495,1.60156 9.800623,1.96964 2.024976,0.37998 0.825521,0.74267 -2.777796,0.83927 -3.487915,0.0935 -7.898196,-0.79281 -9.800622,-1.96963 z m 107.020732,0.80804 c 4.90031,-0.50515 10.11245,-1.45069 11.58256,-2.10064 1.47008,-0.64995 1.11635,-0.14345 -0.78607,1.12527 -2.15626,1.43815 -6.51844,2.22924 -11.58256,2.10062 l -8.12358,-0.2064 z m -34.60696,-5.14119 c -0.0774,-1.54495 0.3438,-2.41054 0.93591,-1.92355 0.59213,0.48685 0.65543,1.75101 0.1407,2.80897 -0.5688,1.16913 -0.99108,0.82182 -1.07659,-0.88542 z m -89.237208,13.71404 c 0,-3.59259 -0.705773,-5.58997 -1.781936,-5.04293 -3.017471,1.53376 -1.995289,10.99153 1.187955,10.99153 0.326705,0 0.593945,-2.67685 0.593945,-5.9486 z m -5.758323,-7.28187 c 0.231072,-10.24798 -1.752261,-12.67397 -3.725964,-4.5576 -0.865571,3.55941 1.422482,14.85708 3.008918,14.85708 0.266634,0 0.589302,-4.6348 0.717046,-10.29948 z m -7.928407,-21.26798 c 7.150396,-6.90885 10.416304,-11.66896 8.875543,-12.93612 -0.617048,-0.50736 -2.393055,0.6175 -3.946652,2.50005 -12.05057,14.60222 -14.387895,18.11421 -14.24655,21.40645 0.152477,3.55242 0.241037,3.51613 1.735802,-0.71155 0.866297,-2.4502 4.278134,-7.06667 7.581857,-10.25883 z m 90.999318,10.36945 c -1.51954,-4.15862 -4.25344,-6.34167 -4.25344,-3.39644 0,1.30439 -0.42078,3.27342 -0.93508,4.37569 -0.60116,1.28839 0.35309,2.00414 2.67178,2.00414 2.79701,0 3.3621,-0.66984 2.51674,-2.98339 z m 5.89456,-18.30651 c 5.14625,-2.58071 5.60776,-3.38974 4.80405,-8.42136 -2.40416,-15.05144 -2.4232,-15.09243 -7.0141,-15.09243 -3.18613,0 -4.37409,0.79607 -4.37409,2.93111 0,1.61207 -0.80186,2.9311 -1.78193,2.9311 -0.98006,0 -1.78193,-1.31903 -1.78193,-2.9311 0,-2.27977 -1.18794,-2.93111 -5.34579,-2.93111 -4.42993,0 -5.34579,0.59268 -5.34579,3.4593 0,1.90262 -0.50304,6.47771 -1.11785,10.16689 -1.07286,6.43754 -0.87562,6.82898 4.90031,9.72507 7.46048,3.74074 9.87594,3.76374 17.05712,0.1623 z m -12.69361,-8.23026 c -1.5401,-1.26668 -2.80018,-2.98843 -2.80018,-3.82622 0,-0.83778 1.60374,0.033 3.56386,1.93662 l 3.56386,3.4598 3.56386,-3.4598 c 3.87105,-3.75808 4.64864,-3.14392 1.71923,1.35784 -2.23381,3.43284 -5.84061,3.63241 -9.61063,0.53178 z m -77.641265,-1.78569 c 0,-1.39557 -1.270612,-0.84027 -3.563857,1.55748 -4.59066,4.79986 -4.59066,6.68081 0,3.26394 1.960119,-1.45893 3.563857,-3.62854 3.563857,-4.82142 z m 12.446228,-4.33819 c 0.01482,-1.00756 -1.261304,-1.83193 -2.836257,-1.83193 -1.879077,0 -2.491694,0.79697 -1.781927,2.31815 0.594888,1.27504 1.093889,3.08864 1.108901,4.03027 0.03636,2.28393 3.473892,-2.14017 3.509283,-4.51649 z m 144.363657,1.16946 c 0,-1.47831 -1.29943,-3.09793 -2.88764,-3.59916 -2.29704,-0.72495 -2.66647,-0.23262 -1.80626,2.40793 0.59479,1.82557 1.09234,3.85275 1.10573,4.50486 0.0144,0.65212 0.82618,0.77807 1.80625,0.27973 0.98006,-0.49795 1.78192,-2.11526 1.78192,-3.59353 z m -90.87845,-3.61207 c 0,-1.14187 -1.00234,-2.41064 -2.22742,-2.81948 -1.67622,-0.55939 -1.56597,-1.12804 0.4455,-2.29799 2.08251,-1.21129 1.19694,-1.55963 -4.00934,-1.57714 -7.876567,-0.0276 -8.428543,1.56618 -1.987104,5.73337 5.500214,3.55828 7.778384,3.83984 7.778384,0.96124 z m 40.9844,-2.32041 6.23676,-4.31776 -8.01868,-0.0168 c -6.1405,-0.0113 -7.39264,0.34729 -5.34579,1.53771 2.01145,1.1699 2.12169,1.73859 0.44549,2.29799 -2.37693,0.79319 -3.13451,4.92244 -0.89097,4.85624 0.73505,-0.0222 4.14299,-1.98242 7.5732,-4.35717 z m 40.00435,-2.76903 c -0.93107,-0.71693 -6.50405,-2.31809 -12.38442,-3.55818 -5.88037,-1.24004 -8.91255,-2.3022 -6.73816,-2.36037 3.00111,-0.0804 3.6719,-0.72345 2.78473,-2.67037 -1.04882,-2.30164 -0.84054,-2.3449 2.03069,-0.4215 2.84649,1.90665 3.47289,1.83536 5.67941,-0.64647 2.09629,-2.35781 2.48008,-2.41934 2.48008,-0.39767 0,1.31552 -0.99425,2.89731 -2.20946,3.51496 -2.38476,1.21217 3.71391,3.11871 10.22815,3.19748 l 3.56385,0.0445 -3.56385,-1.25953 c -3.27183,-1.15634 -3.19882,-1.26982 0.89097,-1.38499 3.54814,-0.0997 3.91082,-0.41483 1.78192,-1.54611 -2.21709,-1.17838 -2.06516,-1.4283 0.89096,-1.46552 2.95614,-0.039 3.10808,-0.28692 0.89098,-1.46558 -2.13165,-1.13296 -1.8009,-1.4252 1.63344,-1.44309 14.61483,-0.0759 -19.07002,-6.91401 -39.74479,-8.06796 -8.93064,-0.49854 -18.23087,-1.25199 -20.66717,-1.67446 -3.97391,-0.689112 -4.10382,-0.91815 -1.26266,-2.225814 2.64538,-1.217538 3.01354,-2.828022 2.23533,-9.777709 -1.54807,-13.82481 -2.57371,-25.092629 -3.8255,-42.027512 -0.65538,-8.866531 -1.98922,-16.945351 -2.96405,-17.952905 -2.29112,-2.368056 -11.06989,-2.368056 -13.37266,0 -0.97979,1.007554 -3.08975,16.340763 -4.68879,34.073827 -3.49284,38.734713 -3.47685,35.905747 -0.20292,35.905747 1.47009,0 2.6729,0.498539 2.6729,1.107648 0,0.609186 -4.61075,1.272878 -10.2461,1.474778 -21.298565,0.76328 -51.210041,5.09592 -54.794372,7.93696 -1.149882,0.91139 0.114223,1.08604 3.563864,0.49242 l 5.345793,-0.92022 -4.454825,2.22997 c -2.768881,1.38603 -3.443256,2.25816 -1.781936,2.30441 2.37591,0.0659 2.37591,0.23208 0,1.49499 -2.064515,1.09735 -1.456136,1.44924 2.672897,1.54612 4.606594,0.10806 4.852995,0.2997 1.781935,1.38498 -4.51888,1.59708 -0.340848,1.88799 7.824527,0.54504 4.180801,-0.68767 5.134836,-1.37877 3.770257,-2.73108 -1.443139,-1.43013 -0.277021,-1.47012 5.55198,-0.1905 l 7.378835,1.61983 -7.522895,1.22358 c -14.537787,2.36451 -5.605297,2.60734 12.878394,0.35005 10.278623,-1.25526 25.560776,-2.28226 33.960346,-2.28226 14.90579,0 49.31467,3.20384 61.78465,5.7528 3.43023,0.70119 6.5976,1.3424 7.03863,1.42488 0.441,0.0825 0.0401,-0.4365 -0.89096,-1.15347 z M 87.620828,111.26486 c -0.54924,-0.73088 0.606269,-0.98373 2.56773,-0.5619 4.160778,0.89489 4.686738,1.89076 0.998579,1.89076 -1.412249,0 -3.017093,-0.59802 -3.566309,-1.32888 z m 28.510882,0 c -0.54924,-0.73088 0.72617,-0.95792 2.83421,-0.5046 2.52619,0.54336 4.65313,-0.0986 6.23921,-1.88234 1.32353,-1.48867 2.40642,-2.05305 2.40642,-1.25415 0,3.86106 -9.13684,6.75892 -11.47984,3.64099 z m 28.70518,0.35172 c -2.39988,-1.97378 -1.10304,-3.72052 1.46225,-1.96958 1.45761,0.99493 3.90486,1.41302 5.43832,0.92901 1.6037,-0.50627 2.32566,-0.26472 1.69947,0.5688 -1.23422,1.64245 -6.80506,1.94804 -8.60004,0.47196 z M 113.50791,87.312989 c -0.83341,-1.813596 -1.07645,-3.904813 -0.54006,-4.647157 0.53634,-0.742344 1.61918,0.08196 2.40627,1.831932 1.65773,3.685632 7.22138,4.1883 10.49128,0.947899 3.07086,-3.043213 4.27572,-1.653523 1.82786,2.10822 -2.84223,4.367819 -12.14003,4.209953 -14.18532,-0.240961 z m 2.81808,-16.731601 c -2.3972,-1.971571 -1.08623,-3.123306 2.64238,-2.321365 2.52347,0.542821 4.65138,-0.09965 6.23676,-1.882835 1.84927,-2.080027 2.40642,-2.200722 2.40642,-0.52122 0,4.297698 -7.82294,7.573385 -11.28556,4.725534 z m 3.26688,-20.538644 c 1.96012,-0.443676 4.22631,-1.554592 5.03597,-2.468868 0.97268,-1.098451 1.22759,-0.916604 0.75138,0.535625 -0.39642,1.209066 -2.66257,2.320033 -5.03596,2.468868 -3.40259,0.213275 -3.5615,0.100267 -0.75139,-0.535625 z m -0.92444,-13.67431 c -3.44427,-1.750728 -1.67251,-2.789467 2.5881,-1.517369 1.89506,0.565812 2.65865,1.428744 1.69685,1.917621 -0.96181,0.489102 -2.89003,0.308526 -4.28495,-0.400476 z m 76.82294,58.638643 C 194.44008,90.975418 190.24971,82.12573 186.17945,75.340997 175.59141,57.691963 152.2574,38.464079 137.95571,35.603269 c -4.10576,-0.821331 -4.76149,-0.515686 -4.52111,2.109106 0.15462,1.688303 0.71318,3.069688 1.24123,3.069688 0.52806,0 0.74824,3.956989 0.48931,8.793248 -0.40483,7.560974 -0.0306,8.796403 2.67005,8.815684 2.68443,0.0222 2.75244,0.23208 0.46794,1.465574 -2.37591,1.282732 -2.37591,1.603451 0,2.886185 1.78737,0.96501 1.93497,1.450512 0.44551,1.465517 -3.35575,0.033 -2.67388,2.642688 0.89096,3.408847 2.96988,0.638322 2.96988,0.678312 0,0.840222 -3.51718,0.19164 -4.34354,3.088739 -0.89096,3.123522 1.51009,0.0168 1.36664,0.5229 -0.44551,1.577136 -2.19197,1.274922 -2.23585,1.69839 -0.24383,2.353272 2.02139,0.664572 2.02859,1.002175 0.0432,2.011506 -1.78873,0.909181 -1.28153,1.57536 2.02577,2.660742 3.11067,1.0209 3.49219,1.475322 1.29355,1.540794 -4.50956,0.134041 -3.87549,5.202336 0.89098,7.121395 l 4.00934,1.614251 -4.45484,-0.29136 c -3.55715,-0.23262 -4.33092,0.299701 -3.83992,2.63997 0.33816,1.612086 0.79372,3.085915 1.01231,3.275131 0.21852,0.18942 6.75776,1.047545 14.53151,1.907322 7.77376,0.859764 15.53738,1.903487 17.25249,2.319419 2.50614,0.60769 3.15454,-0.1983 3.30254,-4.105662 l 0.18414,-4.861734 1.77478,5.495736 c 0.97612,3.022717 2.49699,5.49579 3.37969,5.49579 1.87233,0 1.87364,-1.2614 0.0113,-10.562142 -1.88553,-9.414558 0.8276,-7.436178 3.55671,2.593554 2.96707,10.904128 6.07064,12.270448 4.45524,1.961376 -0.68217,-4.353468 -3.62199,-12.135731 -6.53291,-17.29392 -2.91093,-5.158134 -4.88431,-9.714228 -4.38528,-10.12467 1.25965,-1.035972 12.60174,19.530312 15.20103,27.563664 4.01135,12.397448 7.02642,11.209928 3.72114,-1.465578 z M 49.952196,93.907961 c 3.515716,-10.308013 11.347729,-24.616273 12.81419,-23.410207 0.465659,0.382739 -1.108957,4.333151 -3.499142,8.778187 -2.39018,4.445039 -4.88962,10.297542 -5.554311,13.005641 -0.664662,2.7081 -1.633748,6.156001 -2.153456,7.661899 -1.916659,5.553889 3.638263,1.440489 5.79302,-4.289719 l 2.172011,-5.776074 0.186822,5.495796 c 0.239425,7.042186 2.595701,7.042186 4.993187,0 l 1.871023,-5.495796 0.225119,4.763034 c 0.25704,5.437858 -0.644526,5.299153 20.173549,3.103368 12.97554,-1.368594 15.380242,-2.011122 13.712452,-3.663863 -1.113526,-1.10349 -1.253321,-2.004199 -0.3111,-2.004199 0.94126,0 1.8169,-2.308236 1.94586,-5.129388 0.17904,-3.916331 -0.49014,-5.151372 -2.829652,-5.222328 -2.109936,-0.06372 -1.676862,-0.56826 1.390712,-1.619394 4.1185,-1.411296 4.1956,-1.606218 1.02125,-2.58192 -3.390154,-1.042062 -3.390154,-1.069872 0,-2.201718 3.35857,-1.121328 3.35572,-1.172676 -0.13032,-2.35161 -2.732206,-0.923964 -2.885152,-1.22928 -0.65544,-1.308216 2.17536,-0.07698 2.87546,-1.488289 2.77758,-5.598816 -0.072,-3.022662 -0.97984,-5.980291 -2.01748,-6.572474 -1.21421,-0.692938 -1.02479,-1.084715 0.53142,-1.099169 1.41302,-0.01088 1.99175,-0.936158 1.39238,-2.220722 -0.56412,-1.209065 -0.3492,-2.198339 0.47754,-2.198339 0.82679,0 1.50326,-3.55679 1.50326,-7.904007 0,-4.347216 0.54852,-8.63389 1.21887,-9.526009 2.12665,-2.830014 -2.61674,-1.766959 -13.601429,3.048252 -13.23924,5.803543 -29.832239,20.448024 -37.885089,33.436278 -8.610937,13.88829 -14.260189,30.773932 -10.295743,30.773932 0.747287,0 2.87699,-4.451625 4.732678,-9.892419 z M 61.948483,58.537333 c 3.883519,-4.118786 4.186632,-6.030919 0.955992,-6.030919 -3.461135,0 -10.783398,6.967742 -17.065652,16.239454 -5.87695,8.673492 -7.590977,14.657166 -2.694797,9.407526 2.605445,-2.79357 2.679664,-2.724768 1.581559,1.465524 -0.744579,2.841312 1.515079,0.5085 6.38762,-6.594912 4.14688,-6.045372 9.022757,-12.564403 10.835278,-14.486673 z M 196.51234,79.985326 c -0.99502,-3.248047 -0.96826,-3.253584 1.78567,-0.36612 2.676,2.805414 2.74409,2.7426 1.58836,-1.465584 -1.53118,-5.57511 -11.13696,-18.801321 -17.02351,-23.439615 -3.04176,-2.396747 -5.30866,-3.137816 -6.9878,-2.284305 -2.03576,1.034806 -1.7649,2.017769 1.49721,5.433146 5.49968,5.758126 15.96641,19.650904 17.18616,22.81171 1.46431,3.794418 3.14575,3.201516 1.95391,-0.689004 z M 36.733096,74.612668 c 0,-0.7383 -3.2211,-3.440586 -7.157994,-6.005004 -3.9369,-2.564466 -8.061865,-6.051691 -9.16659,-7.749409 -1.155815,-1.776155 2.059358,-0.160079 7.572867,3.806766 5.26981,3.791371 10.196646,6.893407 10.948526,6.893407 2.508768,0 1.406655,-2.76498 -1.751325,-4.39374 -2.755169,-1.42104 -2.679295,-1.510668 0.651462,-0.769374 3.031534,0.674651 4.84977,-0.5262 9.284343,-6.133284 l 5.51454,-6.972285 -10.175317,-3.812861 C 29.613322,44.665438 19.72392,35.873021 18.064055,27.79276 16.728621,21.291849 19.351705,12.428255 23.870107,8.173763 29.430027,2.9385812 22.057117,5.56581 15.747413,11.068195 7.3858742,18.359862 4.2566714,25.038465 4.4309493,35.220687 4.6199967,46.26628 10.76566,56.446451 23.934634,67.528215 c 9.705479,8.167224 12.798488,9.879289 12.798488,7.084453 z M 13.523894,32.626194 c -2.116226,-4.577807 -2.274186,-11.916112 -0.278352,-12.93059 0.802727,-0.408228 1.116369,1.180927 0.696997,3.530982 -0.419379,2.350109 0.08493,6.272202 1.120693,8.715867 2.281177,5.381911 0.913355,5.989434 -1.539365,0.683741 z M 216.18847,68.260978 C 232.76118,54.33934 238.75486,40.357661 234.6372,25.224964 232.51796,17.436612 226.30217,10.513237 218.24521,6.9668582 c -3.13619,-1.380443 -3.01356,-0.7645002 1.21397,6.0968368 3.7869,6.14619 4.48293,8.837062 3.57459,13.818887 -1.52237,8.349349 -10.87239,17.064939 -23.74539,22.134227 -5.61013,2.209196 -10.45974,4.16653 -10.77695,4.34965 -0.31722,0.182778 1.94865,3.197033 5.03523,6.697715 4.15054,4.70742 6.62088,6.2388 9.48637,5.88087 3.82968,-0.478561 3.83331,-0.45864 0.31338,1.712064 -1.95858,1.207902 -3.04859,2.61765 -2.42221,3.13278 0.62633,0.51516 5.76312,-2.161116 11.41499,-5.947284 10.02495,-6.715605 10.15769,-6.756148 5.43029,-1.65867 -2.66524,2.87388 -6.80091,6.278742 -9.19039,7.566401 -4.17836,2.251687 -5.85053,5.204725 -2.94719,5.204725 0.76853,0 5.51899,-3.46236 10.55658,-7.694082 z m 8.10994,-34.657917 c 1.52163,-3.33739 2.40243,-4.061789 2.827,-2.325018 0.33918,1.387533 -0.65543,3.569034 -2.2103,4.847836 -2.58138,2.123008 -2.63496,1.903828 -0.61672,-2.522818 z m 2.21029,-10.407494 c -0.67656,-2.533398 -0.82916,-4.935962 -0.33912,-5.338984 0.49002,-0.403242 1.44451,1.340008 2.12107,3.87346 0.67656,2.533398 0.82917,4.935962 0.33918,5.338984 -0.49002,0.403242 -1.4445,-1.340007 -2.12106,-3.87346 z"
       id="path419" /></g></svg>
