<?xml version="1.0" encoding="UTF-8" standalone="no"?>
<!-- Created with Inkscape (http://www.inkscape.org/) -->

<svg
   width="350mm"
   height="350mm"
   viewBox="0 0 350 350"
   version="1.1"
   id="svg5"
   xml:space="preserve"
   inkscape:version="1.2.2 (732a01da63, 2022-12-09)"
   sodipodi:docname="deadOdin.svg"
   xmlns:inkscape="http://www.inkscape.org/namespaces/inkscape"
   xmlns:sodipodi="http://sodipodi.sourceforge.net/DTD/sodipodi-0.dtd"
   xmlns="http://www.w3.org/2000/svg"
   xmlns:svg="http://www.w3.org/2000/svg"><sodipodi:namedview
     id="namedview7"
     pagecolor="#505050"
     bordercolor="#eeeeee"
     borderopacity="1"
     inkscape:showpageshadow="0"
     inkscape:pageopacity="0"
     inkscape:pagecheckerboard="0"
     inkscape:deskcolor="#505050"
     inkscape:document-units="mm"
     showgrid="false"
     inkscape:zoom="0.25323113"
     inkscape:cx="96.749558"
     inkscape:cy="246.8101"
     inkscape:window-width="1902"
     inkscape:window-height="973"
     inkscape:window-x="0"
     inkscape:window-y="0"
     inkscape:window-maximized="0"
     inkscape:current-layer="layer1" /><defs
     id="defs2" /><g
     inkscape:label="Vrstva 1"
     inkscape:groupmode="layer"
     id="layer1"><circle
       style="fill:#ff3232;fill-opacity:1;stroke-width:0.305035"
       id="path340"
       cx="175.00034"
       cy="175"
       r="175" /><path
       id="path340-9"
       style="fill:#000000;fill-opacity:1;stroke-width:0.305035"
       d="M 175.00017,0 A 175,175 0 0 0 0,175.00018 175,175 0 0 0 175.00017,349.99984 175,175 0 0 0 350.00034,175.00018 175,175 0 0 0 175.00017,0 Z m 0,15.00012 A 160,160 0 0 1 335.00022,175.00018 160,160 0 0 1 175.00017,335.00023 160,160 0 0 1 15.00012,175.00018 160,160 0 0 1 175.00017,15.00012 Z" /><path
       style="fill:#000000;stroke-width:1.48134"
       d="m 173.81041,321.88923 c 0,-1.04017 -1.95593,-4.9918 -4.34653,-8.78142 l -4.34654,-6.89022 3.63372,-4.04223 3.63373,-4.04221 -5.00422,-4.68752 c -2.75232,-2.57813 -5.00421,-3.98789 -5.00421,-3.13286 0,1.13041 -0.66332,1.10193 -2.43083,-0.1046 -1.96464,-1.34101 -2.61892,-1.25606 -3.41161,0.44275 -0.53944,1.15614 -0.407,2.88668 0.29425,3.84567 0.95486,1.30582 0.58106,1.28064 -1.4887,-0.1 -1.80571,-1.20463 -2.76371,-3.81008 -2.76371,-7.51638 0,-3.88817 -0.98679,-6.4071 -3.13687,-8.00746 -2.99526,-2.22937 -3.22351,-2.20165 -5.05574,0.61407 -1.05538,1.62185 -1.55663,4.50731 -1.11389,6.41213 l 0.80499,3.46328 -3.08308,-3.27801 c -3.04629,-3.23886 -6.33291,-10.78733 -6.39911,-14.69698 -0.0187,-1.10831 -0.71303,-2.89791 -1.54283,-3.97682 -1.30668,-1.69902 -1.90483,-1.66632 -4.46693,0.2442 -2.82751,2.10826 -2.93263,1.87085 -2.37888,-5.37242 0.50385,-6.59004 0.26213,-7.36161 -1.8537,-5.91743 -3.60979,2.46389 -4.72007,-2.7849 -2.73428,-12.92622 1.27134,-6.49259 1.12143,-9.26983 -0.69317,-12.84172 -4.85166,-9.54995 -5.36495,-7.48779 -5.84088,23.46623 -0.0635,4.1328 -1.15969,7.19486 -3.30326,9.22758 -1.76449,1.67322 -3.66072,4.21496 -4.21386,5.64832 -0.93937,2.43419 -1.2657,2.46593 -4.9488,0.48136 -4.277174,-2.3049 -5.477177,-0.75222 -1.51094,1.95504 1.3377,0.91308 2.02936,2.19615 1.53704,2.85129 -0.49235,0.65516 -0.10588,1.19119 0.85871,1.19119 0.96462,0 3.18152,-1.93076 4.92647,-4.29062 2.5192,-3.40704 3.38119,-3.84365 4.18536,-2.12009 0.55698,1.19382 0.288,3.28431 -0.59779,4.64557 -1.1462,1.76142 -0.94699,3.2214 0.69094,5.0637 5.7219,6.4358 1.1014,17.20206 -9.27679,21.61596 -5.188681,2.20675 -5.669044,1.8367 -2.98004,-2.29563 1.41133,-2.16891 1.00848,-3.91932 -1.961873,-8.52433 -3.233038,-5.01227 -3.466408,-6.28504 -1.727761,-9.42343 1.528019,-2.75818 1.556072,-4.07842 0.11693,-5.50458 -1.091014,-1.08119 -1.503098,-3.85318 -0.972549,-6.54205 0.513893,-2.60445 0.177429,-5.04376 -0.761423,-5.52099 -0.973166,-0.49457 -1.256455,-2.91132 -0.672185,-5.73413 1.20466,-5.8201 1.378867,-7.82393 1.066562,-12.26787 -0.625927,-8.90657 0.07192,-17.14593 1.739229,-20.53449 1.490015,-3.02824 1.289651,-4.74763 -1.05065,-9.01605 -2.044043,-3.72803 -2.6339,-7.15583 -2.012106,-11.6929 l 0.879667,-6.41868 -4.068532,3.8901 c -2.629436,2.51415 -3.813041,4.98937 -3.346224,6.99776 1.217536,5.23829 -1.501461,2.27619 -3.618184,-3.94164 -2.377635,-6.98424 -0.288925,-15.26905 4.805525,-19.06085 4.197554,-3.12427 4.176031,-4.64958 -0.05248,-3.74006 -2.764541,0.59457 -2.195636,-0.63239 3.367461,-7.26281 6.583231,-7.84625 6.662765,-8.08028 4.806711,-14.14257 -1.556529,-5.08402 -1.448795,-6.95272 0.614769,-10.66318 1.376136,-2.4744 3.596063,-7.6324 4.933163,-11.46219 2.40508,-6.88885 2.38868,-6.98624 -1.53209,-9.09908 -2.179753,-1.17463 -3.963188,-3.33084 -3.963188,-4.79158 0,-1.46073 -0.58674,-2.65587 -1.303825,-2.65587 -0.717102,0 -5.524275,-3.30868 -10.682611,-7.35267 C 74.563701,105.34953 66.421014,92.892023 65.194804,83.191929 63.510487,69.867948 72.933607,55.836623 87.003733,50.717723 c 10.138895,-3.688627 11.72325,-1.491658 4.52076,6.268743 -7.458044,8.035751 -9.023575,14.464281 -5.013779,20.588009 5.998719,9.161171 21.304546,16.660488 34.318596,16.814791 7.71467,0.09138 9.42457,-0.424479 14.92127,-4.503662 7.80705,-5.793592 16.29464,-10.12005 22.25325,-11.343313 2.71261,-0.556948 5.22248,-2.269272 6.09609,-4.159054 3.03449,-6.564199 18.01828,-7.329271 21.4713,-1.096326 0.96285,1.737965 4.41746,4.037601 7.67694,5.110214 3.25947,1.072616 11.15037,5.269903 17.53536,9.327255 8.11347,5.155761 12.28728,7.024217 13.86148,6.205322 1.23882,-0.64443 4.55395,-0.825593 7.367,-0.402644 7.8075,1.174012 22.68119,-5.345862 29.42082,-12.89656 2.97153,-3.329143 5.42099,-6.889665 5.44328,-7.912216 0.0994,-4.559412 -4.22229,-12.791914 -8.42935,-16.05769 -2.5287,-1.96295 -4.59765,-4.694373 -4.59765,-6.06991 0,-2.044594 0.81974,-2.341524 4.49195,-1.627124 7.82942,1.523138 17.39641,8.006048 22.01324,14.916887 11.17715,16.730961 1.54027,40.843595 -21.9622,54.951995 -2.3905,1.43499 -4.75987,3.96397 -5.2652,5.61994 -0.5054,1.65597 -2.45441,3.41172 -4.33124,3.90165 -2.59827,0.67825 -3.15252,1.58102 -2.32317,3.78395 0.5991,1.59123 1.71922,5.31131 2.4892,8.26687 0.76999,2.95549 2.44597,7.40427 3.72442,9.88619 1.74788,3.39322 1.94146,5.98937 0.78048,10.46633 -1.45433,5.60822 -1.15623,6.49052 5.13631,15.20178 9.49759,13.1483 8.30007,14.80833 -1.48691,2.06125 -9.69896,-12.63244 -11.0338,-11.79983 -1.63344,1.01878 3.59356,4.90033 6.53375,9.50411 6.53375,10.2307 0,0.72659 1.06349,2.1957 2.36331,3.26471 1.72049,1.41504 1.98083,2.99413 0.95712,5.80547 -1.02762,2.82211 -1.45555,3.13844 -1.58944,1.17493 -0.10071,-1.47775 -1.57456,-5.10494 -3.27505,-8.06048 l -3.09181,-5.37363 -0.0963,7.38877 c -0.0599,4.58825 1.1013,9.55885 3.06346,13.11418 3.08701,5.59354 3.08827,5.69399 0.055,4.35892 -3.80805,-1.67619 -5.7535,-4.03899 -3.32551,-4.03899 1.26087,0 1.28928,-0.76532 0.0963,-2.59848 -0.92998,-1.42921 -1.69088,-5.84768 -1.69088,-9.81886 0,-4.13189 -0.99528,-8.33573 -2.32681,-9.82804 -2.07597,-2.3266 -2.23798,-1.66638 -1.50274,6.12443 0.45326,4.80272 1.35495,10.24353 2.00379,12.09072 0.64883,1.84717 0.93916,6.53236 0.64517,10.41145 -0.29397,3.87913 -0.51254,9.01768 -0.48565,11.41902 0.14619,13.06959 0.15065,41.09761 0.006,43.99679 -0.0916,1.84719 0.31565,5.25507 0.9048,7.5731 0.74595,2.93513 0.20894,5.29686 -1.76909,7.77963 -2.28995,2.87442 -2.48564,4.20512 -1.01009,6.8686 1.50939,2.72457 1.39264,3.3035 -0.66613,3.3035 -5.35472,0 -11.66055,-4.07051 -14.59392,-9.42052 -2.66221,-4.85554 -2.78091,-6.12521 -0.91924,-9.83237 2.51415,-5.00638 3.25057,-18.29517 1.1486,-20.72651 -0.8046,-0.93066 -1.07335,-4.08082 -0.59723,-7.00036 0.59248,-3.63287 0.14421,-5.80075 -1.42046,-6.8687 -1.26373,-0.86261 -2.30938,-4.04029 -2.33809,-7.10545 -0.0495,-5.26675 -0.17853,-5.41019 -2.57457,-2.85821 -1.66688,1.77538 -2.25608,4.39591 -1.73688,7.72495 0.4416,2.83161 0.13834,4.70906 -0.69231,4.28681 -1.94408,-0.98823 -1.85548,1.59397 0.27077,7.8915 0.95185,2.81916 1.22593,7.01569 0.60902,9.32563 l -1.12159,4.19983 -2.11892,-3.95194 c -1.18813,-2.21597 -2.17719,-2.99882 -2.25158,-1.78214 -0.0731,1.19339 -1.493,3.61154 -3.15562,5.37368 -1.66263,1.76208 -3.44387,5.8563 -3.95832,9.09816 -0.51448,3.2419 -2.09427,6.84751 -3.51077,8.01249 -2.34496,1.92862 -2.57544,1.71705 -2.57544,-2.36442 0,-3.77514 -0.37593,-4.22602 -2.38187,-2.85684 -1.31005,0.89419 -4.01373,4.59546 -6.00821,8.22499 -3.58149,6.51861 -6.31031,8.50074 -6.31031,4.58404 0,-3.13244 -2.25721,-2.42129 -8.73334,2.75152 -6.70207,5.35329 -6.80514,5.62869 -3.46549,9.26014 4.00784,4.35799 2.97169,11.7873 -2.51235,18.01358 -5.25104,5.9618 -6.52349,6.68037 -6.52349,3.68411 z m 7.905,-8.24768 c 2.65099,-4.78526 2.3611,-10.70908 -0.62375,-12.74647 -3.52097,-2.40331 -6.35296,0.1716 -4.70516,4.27812 l 1.26717,3.15788 1.18242,-3.35849 c 1.01658,-2.88745 1.20527,-2.63947 1.34526,1.76757 0.0895,2.81937 -0.59811,6.29545 -1.52809,7.7246 -0.93,1.42921 -1.04798,2.59854 -0.26219,2.59854 0.78579,0 2.28174,-1.53979 3.32435,-3.42175 z m -69.03428,-25.53533 c 0.55285,-2.42373 0.22206,-5.51454 -0.73511,-6.8685 -1.65049,-2.33472 -1.74414,-2.32309 -1.81496,0.22495 -0.0556,1.99129 -0.4324,2.22272 -1.4565,0.89405 -1.03206,-1.33909 -1.64023,-0.99904 -2.40284,1.34339 -1.62008,4.97632 -1.15022,6.02802 1.43647,3.21531 2.36615,-2.57286 2.3982,-2.57185 2.3982,0.0792 0,1.47774 -1.07919,3.86034 -2.3982,5.29458 -3.48839,3.79317 -3.03162,5.43339 0.73282,2.63149 1.77921,-1.32425 3.68726,-4.39079 4.24012,-6.81452 z m 58.09744,-0.52239 c -2.51049,-6.72861 -6.30534,-8.14026 -4.32371,-1.60835 0.85767,2.82704 5.14013,8.24976 6.51506,8.24976 0.15769,0 -0.82846,-2.98863 -2.19135,-6.64141 z m 20.93424,-8.42006 c -0.0626,-2.94022 -0.17186,-2.91316 -2.50232,0.61979 -1.3403,2.0319 -2.99001,3.69437 -3.66602,3.69437 -1.33797,0 -6.83375,7.13673 -6.83375,8.87424 0,0.58899 2.94019,-1.44566 6.53375,-4.52149 3.84637,-3.29217 6.50684,-6.85691 6.46834,-8.66691 z m -14.03162,8.00858 c 0.54175,-1.66253 0.93905,-5.1386 0.88296,-7.72466 l -0.10196,-4.70194 -2.20162,4.70194 c -2.57378,5.49677 -3.06586,10.74733 -1.00722,10.74733 0.7936,0 1.88613,-1.36021 2.42784,-3.02267 z m 63.84879,-3.35854 c -1.59193,-4.74708 -1.62071,-6.94847 -0.14487,-11.08315 1.15018,-3.22236 1.09599,-3.25282 -1.33594,-0.7508 -3.87545,3.98707 -3.06978,15.52831 1.08399,15.52831 0.99585,0 1.15109,-1.44526 0.39683,-3.69436 z m -84.86961,-2.82585 c -1.22279,-4.00692 -3.74999,-6.91387 -6.0107,-6.91387 -0.83932,0 -0.38181,1.34359 1.01673,2.98574 1.39852,1.64217 2.54278,4.39821 2.54278,6.12465 0,1.90735 0.6928,2.78671 1.76579,2.24134 1.02255,-0.51981 1.31104,-2.38773 0.6854,-4.43786 z m 88.51378,-6.57805 c -0.41085,-1.29304 -0.74701,-0.23508 -0.74701,2.35102 0,2.58604 0.33616,3.64398 0.74701,2.35096 0.41086,-1.29308 0.41086,-3.40891 0,-4.70198 z m -104.03246,0.9644 c 0,-3.84343 -4.39259,-12.04755 -6.4504,-12.04755 -2.22527,0 -2.17997,0.30562 0.72331,4.88422 1.34205,2.11639 2.44461,5.20816 2.45015,6.87067 0.006,1.66246 0.7451,3.02267 1.6435,3.02267 0.89839,0 1.63344,-1.2285 1.63344,-2.73001 z m 66.97088,-4.743 c 0,-0.55218 -1.47009,0.0903 -3.26687,1.42762 -1.79676,1.33736 -3.26686,3.32621 -3.26686,4.41964 0,1.27926 1.16474,0.77025 3.26686,-1.42768 1.79678,-1.87861 3.26687,-3.86746 3.26687,-4.41958 z m -51.55396,-3.40836 c -0.73257,-0.97482 0.13877,-0.92766 2.56149,0.1386 2.93894,1.29363 3.95624,1.25333 5.09742,-0.20158 1.18068,-1.50552 1.72782,-1.4716 3.18351,0.19702 1.3306,1.52542 1.95996,1.60498 2.58967,0.32746 0.45754,-0.92815 1.6879,-1.24159 2.73415,-0.69642 3.09572,1.61301 10.88411,1.52446 10.91119,-0.12441 0.0148,-0.9116 0.58682,-0.79294 1.4257,0.29601 1.12129,1.45531 2.13312,1.49557 5.07243,0.20158 2.42271,-1.06638 3.29406,-1.1136 2.56148,-0.1386 -0.61063,0.81265 -0.12787,1.47749 1.07287,1.47749 4.5015,0 9.13476,-4.17296 12.73625,-11.47097 2.2976,-4.65576 4.18224,-6.91489 4.93404,-5.91442 2.3153,3.08111 6.44457,-4.75303 7.17126,-13.60543 0.39011,-4.7519 1.79777,-12.41821 3.1282,-17.03623 2.49899,-8.67418 1.51624,-11.18701 -1.8389,-4.70193 l -1.91134,3.69443 0.55278,-3.69442 c 0.30404,-2.0319 -0.0805,-3.69437 -0.85412,-3.69437 -0.77381,0 -1.41818,0.75568 -1.43193,1.67927 -0.0171,1.14116 -0.51035,1.04809 -1.53966,-0.29045 -2.65749,-3.45572 -4.96859,4.52027 -4.97519,17.17047 -0.005,9.52182 -0.64376,12.52769 -3.47364,16.34558 -3.81458,5.14642 -8.04413,8.19716 -9.99191,7.2071 -0.6913,-0.35138 -1.93914,0.76016 -2.77298,2.4701 -0.83385,1.70993 -1.56268,2.3533 -1.61963,1.42971 -0.16093,-2.61043 -3.36724,-1.97615 -3.39541,0.67169 -0.0143,1.34285 -0.53966,1.76773 -1.22509,0.99087 -1.58971,-1.80173 -10.18396,-2.09572 -10.18396,-0.34831 0,0.78918 -1.03442,0.6597 -2.45015,-0.30668 -1.95477,-1.33427 -2.94556,-1.33427 -4.90032,0 -1.92457,1.31364 -2.45015,1.3181 -2.45015,0.0203 0,-0.90841 -1.05508,-1.31867 -2.34463,-0.91166 -1.28953,0.40722 -2.70367,0.0204 -3.14251,-0.86383 -0.59335,-1.19259 -1.19048,-1.14416 -2.32907,0.18887 -1.18474,1.38717 -1.74235,1.12867 -2.46457,-1.14273 -0.51771,-1.62829 -1.70976,-2.54092 -2.67677,-2.04942 -0.95886,0.48747 -1.74338,0.24574 -1.74338,-0.53657 0,-0.7825 -0.91881,-1.43018 -2.0418,-1.43932 -1.12298,-0.0104 -3.87941,-2.27617 -6.12538,-5.03781 -3.68573,-4.53194 -4.04031,-6.15034 -3.63931,-16.61088 0.45419,-11.84766 -1.83678,-20.87485 -4.42393,-17.43201 -1.10993,1.47703 -1.49501,1.46917 -2.22741,-0.0457 -0.48703,-1.00717 -0.99945,-0.0203 -1.13872,2.199 l -0.25322,4.03023 -2.3456,-4.70193 -2.34561,-4.70198 0.89694,5.37368 c 0.49335,2.95549 1.32544,11.11672 1.84918,18.13605 0.82941,11.1163 1.45365,13.15933 4.8398,15.83946 2.35989,1.8679 3.90215,2.39581 3.92468,1.34345 0.0204,-0.95349 2.58568,2.1564 5.70061,6.91094 5.34024,8.15111 8.02502,10.76646 11.1014,10.81434 0.72682,0.0103 0.82188,-0.64427 0.21126,-1.45688 z m 91.87624,-1.44352 c 2.07929,-1.60656 3.75816,-3.87361 3.73084,-5.03781 -0.0412,-1.7764 -0.3184,-1.73736 -1.72065,0.24321 -1.31285,1.85413 -2.35241,2.05992 -4.85064,0.96029 -3.32496,-1.46352 -4.67481,0.46305 -1.4669,2.09386 1.17085,0.59513 1.10756,1.47028 -0.20004,2.76609 -2.99761,2.97063 0.3091,2.21825 4.50737,-1.02549 z M 106.7142,261.19224 c 2.76409,-1.91288 5.02563,-4.398 5.02563,-5.5225 0,-1.47069 -0.83724,-1.19416 -2.98316,0.98543 l -2.98317,3.02993 -3.55058,-3.13442 c -3.929919,-3.46929 -4.860154,-1.92746 -1.27202,2.10831 1.9777,2.22445 1.92378,2.78484 -0.40839,4.24431 -1.515325,0.94827 -1.851263,1.70003 -0.770448,1.72416 1.054058,0.0252 4.178008,-1.52234 6.942108,-3.43522 z m 112.6446,-5.25426 c -0.13508,-3.94941 -0.164,-3.96286 -1.4456,-0.67169 -0.71928,1.84718 -1.36981,4.56764 -1.4456,6.04538 -0.11352,2.21341 0.14112,2.33178 1.4456,0.67169 0.87088,-1.10831 1.5214,-3.82871 1.4456,-6.04538 z m -45.54839,-1.3434 c 0,-1.10831 0.73505,-2.01508 1.63344,-2.01508 0.8984,0 1.63344,0.90677 1.63344,2.01508 0,2.66034 2.65108,2.58585 3.90883,-0.10966 2.17819,-4.66844 1.12383,-5.78989 -5.13391,-5.46062 -3.58239,0.18837 -6.05758,0.99335 -5.96204,1.93884 0.49588,4.90737 0.7953,5.6468 2.28681,5.6468 0.89839,0 1.63343,-0.90684 1.63343,-2.01515 z m -6.8336,-3.79799 c 0.3663,-2.54478 -0.22847,-3.59078 -2.0418,-3.59078 -1.76935,0 -2.55865,1.27778 -2.55865,4.14218 0,5.13988 3.84764,4.67869 4.60045,-0.5514 z m 21.23467,0.87891 c -0.66597,-4.62675 -4.60045,-5.86427 -4.60045,-1.44703 0,3.40475 1.18242,5.03782 3.64762,5.03782 0.80832,0 1.2371,-1.61586 0.95283,-3.59079 z m 61.97443,-1.76432 c 4.33255,-5.25913 3.53806,-7.22208 -1.04077,-2.57149 -3.10687,3.15555 -3.20083,3.16489 -6.57459,0.65378 -1.88248,-1.40112 -3.42269,-1.92329 -3.42269,-1.16035 0,0.76294 1.13604,2.16253 2.5245,3.11025 1.38846,0.94771 2.12301,2.58361 1.63233,3.63526 -1.61116,3.45318 3.07095,0.95777 6.88122,-3.66745 z m -89.44299,-0.0979 c 0,-2.39757 -0.68045,-3.76367 -1.63343,-3.27923 -2.12678,1.08104 -2.12678,7.38879 0,7.38879 0.89839,0 1.63343,-1.84932 1.63343,-4.10956 z m 32.66873,0.75101 c 0,-1.84719 -0.73504,-3.35854 -1.63342,-3.35854 -0.89841,0 -1.63345,1.51135 -1.63345,3.35854 0,1.84718 0.73504,3.35855 1.63345,3.35855 0.89838,0 1.63342,-1.51137 1.63342,-3.35855 z m -36.91663,-2.46353 c 0.734,-2.51294 0.53025,-3.51128 -0.59947,-2.93701 -0.94129,0.47828 -2.90314,-0.11022 -4.35967,-1.30811 -1.45653,-1.19793 -3.6186,-1.87182 -4.80459,-1.4975 -1.37123,0.43262 -1.82565,-0.0302 -1.24807,-1.26617 0.49957,-1.07068 0.0946,-1.9467 -0.8999,-1.9467 -2.32835,0 -2.29844,2.1101 0.0817,5.76785 1.84711,2.83862 1.91856,2.8442 3.15206,0.24778 1.0151,-2.13686 1.28458,-1.81058 1.37692,1.66708 0.0868,3.2705 0.71173,4.13555 2.56496,3.55067 1.38757,-0.43769 2.45015,-0.0302 2.45015,0.93776 0,2.5403 1.02636,1.09652 2.28584,-3.2154 z m 39.48969,-3.25684 c -1.7743,-1.45927 -2.28335,0.35133 -1.23049,4.37698 l 1.05408,4.03023 0.55804,-3.81724 c 0.30689,-2.09943 0.13518,-4.16494 -0.3816,-4.58997 z m 5.95406,0.47525 c -0.47575,-0.66855 0.0657,-0.74217 1.20374,-0.16401 1.20495,0.6125 2.66365,0.27824 3.49424,-0.8 2.23972,-2.90822 1.72091,-5.20989 -1.17433,-5.20989 -2.1882,0 -2.2903,0.35646 -0.5857,2.04587 1.68815,1.67291 1.65016,1.92038 -0.20833,1.35751 -4.13684,-1.25287 -6.63468,1.26236 -5.3698,5.40724 1.03809,3.40175 1.31267,3.54438 2.34048,1.21601 0.64043,-1.45083 0.7753,-3.18469 0.29975,-3.85299 z m -92.88762,1.27924 c 2.37717,-1.81189 4.32212,-4.02144 4.32212,-4.91016 0,-0.99381 -1.24139,-0.69174 -3.22502,0.78462 -3.09721,2.30528 -3.40328,2.30437 -7.72289,-0.0252 l -4.497867,-2.42384 2.994867,3.75921 c 2.45505,3.08162 2.59578,3.96718 0.78078,4.91301 -1.767056,0.92089 -1.68511,1.15802 0.40592,1.17446 1.441,0.0104 4.56494,-1.4619 6.9421,-3.27385 z m 140.86968,-11.85882 2.6396,-4.32625 -3.68146,2.92319 c -3.41135,2.70879 -3.96327,2.77134 -7.52298,0.85307 -2.11286,-1.13857 -3.84155,-1.54151 -3.84155,-0.89541 0,0.64616 1.52596,1.95859 3.39102,2.9165 2.88776,1.48322 3.06959,2.06231 1.22508,3.90162 -1.93786,1.93249 -1.78071,1.99108 1.49237,0.55674 2.01208,-0.88175 4.84614,-3.55 6.29792,-5.92946 z m -140.32807,-2.54543 c 4.52938,-3.49964 5.14564,-6.57202 0.64653,-3.22327 -2.98723,2.22337 -3.29955,2.19646 -6.66986,-0.57548 -4.681293,-3.8501 -5.822763,-2.67095 -1.644,1.69826 2.41072,2.52055 2.7467,3.63227 1.24796,4.12925 -1.46774,0.48691 -1.38415,0.71023 0.29399,0.78614 1.28968,0.0584 4.0461,-1.20839 6.12538,-2.8149 z m 72.06336,-2.97178 c -0.5731,-4.84039 -3.51364,-5.62253 -4.28724,-1.14029 -0.63001,3.65014 -3.55847,2.64718 -3.55847,-1.2187 0,-4.28725 -4.02201,-2.1242 -4.57883,2.46248 -0.47921,3.94747 -0.27823,4.07943 6.21227,4.07943 6.52426,0 6.69398,-0.11429 6.21227,-4.18292 z m -20.9132,-1.49607 c 0,-2.58606 -0.73504,-4.70194 -1.63343,-4.70194 -0.8984,0 -1.63344,2.11588 -1.63344,4.70194 0,2.58611 0.73504,4.70198 1.63344,4.70198 0.89839,0 1.63343,-2.11587 1.63343,-4.70198 z m 5.61945,1.18493 c 1.18885,-3.89573 0.40238,-5.27209 -2.2439,-3.92697 -2.10188,1.06841 -2.34662,7.44402 -0.28578,7.44402 0.801,0 1.93935,-1.58269 2.52965,-3.51705 z m 21.84911,-0.0737 c -0.75282,-5.23007 -4.60045,-5.69121 -4.60045,-0.55139 0,2.8644 0.78929,4.14219 2.55865,4.14219 1.81332,0 2.4081,-1.04601 2.0418,-3.59077 z m 5.20017,2.24739 c 0,-0.73888 1.05146,-1.34345 2.33655,-1.34345 1.2851,0 2.65509,-1.36019 3.04443,-3.02267 l 0.70787,-3.02266 0.22243,3.10197 c 0.29892,4.16861 3.48931,2.35676 3.48931,-1.98159 0,-2.56934 -0.64432,-3.2196 -2.58375,-2.60752 -1.42107,0.44831 -3.20478,0.81543 -3.96382,0.81543 -0.75903,0 -1.71623,1.05795 -2.12708,2.35098 -0.71144,2.23901 -0.75603,2.23901 -0.93649,0 -0.35876,-4.45142 -3.45636,-2.34447 -3.45636,2.35097 0,2.58606 0.73506,4.70193 1.63345,4.70193 0.89839,0 1.63343,-0.60451 1.63343,-1.34339 z m -40.89519,-4.03023 0.26631,3.35853 1.58098,-3.25328 c 1.14657,-2.35935 1.00592,-3.55342 -0.51194,-4.34555 -3.77151,-1.96829 -6.17647,-1.18904 -6.17647,2.00123 0,4.44517 2.23381,5.72555 3.50483,2.0089 l 1.06984,-3.12838 z m -40.77663,-6.87565 c 0,-2.34471 -0.68313,-3.68298 -1.63344,-3.19996 -0.89838,0.45645 -1.63343,2.64389 -1.63343,4.86051 0,2.34477 0.68313,3.68304 1.63343,3.19997 0.89839,-0.45646 1.63344,-2.64389 1.63344,-4.86052 z m 129.04148,3.1022 c 0,-1.33654 -1.15714,-3.60359 -2.5714,-5.03782 -2.48179,-2.5169 -2.53948,-2.49071 -1.65573,0.75081 0.50358,1.84718 0.92568,4.11417 0.93795,5.0378 0.0132,0.9236 0.75735,1.67923 1.65573,1.67923 0.8984,0 1.63345,-1.09349 1.63345,-2.43002 z m 4.90031,-3.83923 c 0,-7.46058 -0.78495,-7.26459 -2.24215,0.55978 -0.6577,3.53138 -0.43286,5.70947 0.58939,5.70947 0.909,0 1.65275,-2.82114 1.65275,-6.26925 z m 5.42705,-0.26301 c 1.05436,-4.33571 -1.50616,-13.61898 -3.75638,-13.61898 -0.81066,0 -0.75959,1.91268 0.11644,4.36611 0.85753,2.40133 1.09342,6.70961 0.52421,9.57392 -1.20684,6.07259 1.63199,5.78008 3.11566,-0.32088 z m -83.80698,2.16614 c 0.0187,-1.22996 0.40238,-1.1894 1.43544,0.1518 2.42016,3.14169 34.44865,0.37114 34.49744,-2.98413 0.0132,-0.84352 0.49516,-3.04501 1.07316,-4.89219 l 1.05084,-3.35853 -3.76098,2.68684 -3.76099,2.68684 1.86511,-2.92513 c 1.55207,-2.43419 1.38636,-3.04709 -0.98741,-3.65182 -1.56886,-0.39957 3.60372,-0.43867 11.49465,-0.0863 15.87833,0.70876 21.14402,-0.63382 27.16125,-6.92527 3.5953,-3.75914 4.73335,-13.12081 1.77766,-14.62319 -0.89838,-0.45644 -1.63342,-0.25486 -1.63342,0.44885 0,0.70343 -1.10503,1.6277 -2.45558,2.05394 -2.07837,0.65597 -2.04513,0.25998 0.21636,-2.57884 2.07524,-2.60489 2.48806,-5.46751 1.8486,-12.81822 -0.83558,-9.60479 -3.39078,-14.27798 -5.94697,-10.87633 -1.04019,1.38426 -1.70078,1.33568 -3.29288,-0.24217 -1.0954,-1.08551 -4.90826,-2.37895 -8.47302,-2.8743 -5.30397,-0.73699 -8.38547,-0.1452 -16.96342,3.2572 -5.76511,2.28679 -10.96531,4.80089 -11.55595,5.58688 -2.29172,3.04973 1.30128,2.88445 11.94261,-0.54922 13.67309,-4.41197 18.51481,-4.48124 24.35678,-0.34833 3.70337,2.61992 4.52639,4.26742 4.38274,8.77316 -0.10175,3.19154 -1.37466,6.63608 -2.99724,8.11064 -3.64312,3.31086 -17.12474,5.66995 -25.87017,4.52691 -6.50805,-0.85057 -6.72406,-0.77237 -4.39433,1.59067 2.30734,2.3403 2.12892,2.33356 -3.06105,-0.11626 -3.03118,-1.43069 -6.33194,-3.65918 -7.33503,-4.95221 -1.00309,-1.29302 -3.20282,-2.35097 -4.88827,-2.35097 -2.39901,0 -2.83727,0.65637 -2.0182,3.02267 4.61321,13.32749 4.87315,15.83804 1.88262,18.1825 -1.61837,1.26877 -3.23054,1.70076 -3.58699,0.96113 -1.46915,-3.04847 -4.15471,-5.28991 -4.82882,-4.03025 -1.95186,3.6474 -3.61431,4.71813 -6.10507,3.93204 -3.36197,-1.06104 -3.45436,-4.87832 -0.3251,-13.43 3.1712,-8.66616 1.06001,-10.23749 -6.45943,-4.80755 -5.77125,4.16748 -8.43261,5.37744 -6.67067,3.03278 0.49754,-0.6621 -4.38705,-1.14797 -10.92929,-1.0871 -12.45983,0.11578 -21.11366,-2.32583 -23.06503,-6.50814 -2.31715,-4.96626 -0.9935,-11.49832 2.99469,-14.77842 5.23226,-4.30324 12.67938,-4.28837 24.00523,0.0456 9.90549,3.79252 13.10611,4.20176 11.85278,1.51558 -0.4763,-1.02088 -5.57156,-3.82044 -11.32277,-6.22132 -9.81286,-4.0964 -10.88793,-4.267 -17.45887,-2.77097 -3.85117,0.87678 -8.47221,1.78559 -10.269,2.01955 -1.79678,0.23409 -3.69191,0.50265 -4.2114,0.59691 -0.51951,0.0945 -1.77579,3.13315 -2.79174,6.75304 -1.98401,7.0691 -0.82331,12.73687 3.79571,18.53467 2.53788,3.18561 2.5133,3.24389 -0.76018,1.80307 -1.86057,-0.81895 -3.38285,-2.19316 -3.38285,-3.05385 0,-1.10608 -0.50957,-1.14572 -1.7382,-0.13507 -0.95601,0.78623 -1.5073,4.01942 -1.22508,7.1848 0.42888,4.81045 1.54014,6.43707 6.76902,9.90828 6.14627,4.08014 6.53463,4.14655 22.16022,3.78895 14.8261,-0.33918 16.11841,-0.15636 19.06236,2.70091 l 3.15805,3.06481 -3.39549,-2.35096 c -3.85252,-2.66746 -7.22184,-3.07046 -7.22184,-0.86383 0,0.81792 -1.07768,1.147 -2.39482,0.7313 -1.91074,-0.603 -2.19349,0.11474 -1.39882,3.55067 1.24082,5.3649 0.73103,4.95708 7.01318,5.61096 2.91424,0.3031 5.7097,0.88957 6.2121,1.30278 1.74306,1.43357 6.90285,0.74238 6.92774,-0.92802 z m -45.04068,-16.40301 c -2.89754,-1.79235 -2.67816,-1.85866 2.54631,-0.76934 3.14437,0.6556 7.18712,1.4681 8.9839,1.8055 1.85623,0.34832 0.75673,0.68078 -2.54631,0.76933 -3.19725,0.0857 -7.24001,-0.72674 -8.9839,-1.80549 z m 98.10234,0.7407 c 4.49195,-0.46305 9.26974,-1.3298 10.61734,-1.92558 1.34758,-0.59579 1.02333,-0.1315 -0.72056,1.03149 -1.97657,1.31831 -5.97524,2.04347 -10.61735,1.92557 l -7.44661,-0.1892 z m -31.72305,-4.71276 c -0.0709,-1.4162 0.31515,-2.20966 0.85792,-1.76325 0.54278,0.44628 0.60081,1.60509 0.12897,2.57489 -0.5214,1.0717 -0.90849,0.75333 -0.98687,-0.81164 z m -81.80078,12.57121 c 0,-3.29321 -0.64695,-5.12414 -1.63344,-4.62269 -2.76601,1.40595 -1.82901,10.07557 1.08896,10.07557 0.29948,0 0.54445,-2.45378 0.54445,-5.45288 z m -5.27846,-6.67505 c 0.21182,-9.39398 -1.606238,-11.61781 -3.415466,-4.1778 -0.79344,3.26279 1.303942,13.61899 2.758176,13.61899 0.24441,0 0.54019,-4.24857 0.65729,-9.44119 z m -7.267705,-19.49565 c 6.554525,-6.33311 9.548275,-10.69654 8.135915,-11.85811 -0.56563,-0.46508 -2.19363,0.56604 -3.617765,2.29171 -11.046356,13.38537 -13.188904,16.6047 -13.059338,19.62258 0.139771,3.25639 0.220951,3.22312 1.591152,-0.65225 0.794106,-2.24602 3.921623,-6.47778 6.950036,-9.40393 z m 83.416045,9.50533 c -1.39291,-3.81207 -3.89899,-5.8132 -3.89899,-3.1134 0,1.19569 -0.38571,3.00063 -0.85715,4.01105 -0.55107,1.18102 0.32366,1.83713 2.44913,1.83713 2.56392,0 3.08192,-0.61402 2.30701,-2.73478 z m 5.40335,-16.78097 c 4.71739,-2.36565 5.14044,-3.10726 4.40371,-7.71958 -2.20381,-13.79715 -2.22127,-13.83472 -6.42959,-13.83472 -2.92062,0 -4.00958,0.72973 -4.00958,2.68685 0,1.47773 -0.73504,2.68684 -1.63344,2.68684 -0.89839,0 -1.63344,-1.20911 -1.63344,-2.68684 0,-2.08979 -1.08894,-2.68685 -4.9003,-2.68685 -4.06078,0 -4.90031,0.54329 -4.90031,3.17102 0,1.74407 -0.46112,5.9379 -1.0247,9.31965 -0.98346,5.90108 -0.80265,6.2599 4.49195,8.91465 6.83878,3.42901 9.05295,3.45009 15.6357,0.14877 z m -11.63581,-7.5444 c -1.41176,-1.16112 -2.56683,-2.7394 -2.56683,-3.50737 0,-0.76796 1.47009,0.0302 3.26687,1.77524 l 3.26687,3.17148 3.26687,-3.17148 c 3.54846,-3.44491 4.26125,-2.88193 1.57596,1.24468 -2.04766,3.14677 -5.35389,3.32971 -8.80974,0.48747 z m -71.17117,-1.63688 c 0,-1.27928 -1.164724,-0.77025 -3.266865,1.42769 -4.208105,4.39987 -4.208105,6.12407 0,2.99194 1.796776,-1.33735 3.266865,-3.32616 3.266865,-4.41963 z m 11.40905,-3.97668 c 0.0136,-0.92359 -1.1562,-1.67927 -2.59991,-1.67927 -1.72248,0 -2.28405,0.73056 -1.63343,2.12497 0.54532,1.16879 1.00273,2.83126 1.01649,3.69442 0.0333,2.0936 3.1844,-1.96182 3.21685,-4.14012 z m 132.33335,1.07201 c 0,-1.35512 -1.19114,-2.83977 -2.647,-3.29923 -2.10562,-0.66454 -2.44427,-0.21324 -1.65574,2.20727 0.54522,1.67344 1.00131,3.53168 1.01359,4.12945 0.0132,0.59778 0.75733,0.71323 1.65572,0.25642 0.89839,-0.45645 1.63343,-1.93899 1.63343,-3.29407 z m -83.30525,-3.31107 c 0,-1.04671 -0.91881,-2.20975 -2.0418,-2.58452 -1.53653,-0.51277 -1.43547,-1.03404 0.40838,-2.10649 1.90896,-1.11035 1.09719,-1.42966 -3.67523,-1.44571 -7.22019,-0.0253 -7.72617,1.43566 -1.82151,5.25559 5.04186,3.26175 7.13018,3.51985 7.13018,0.88113 z m 37.56904,-2.12704 5.71703,-3.95795 -7.35046,-0.0154 c -5.62879,-0.0104 -6.77658,0.31835 -4.9003,1.40957 1.84382,1.07241 1.94488,1.59371 0.40836,2.10649 -2.17885,0.72709 -2.8733,4.51224 -0.81672,4.45156 0.67379,-0.0204 3.79774,-1.81722 6.9421,-3.99408 z m 36.67065,-2.53828 c -0.85348,-0.65718 -5.96204,-2.12491 -11.35238,-3.26166 -5.39034,-1.1367 -8.16984,-2.11035 -6.17665,-2.16367 2.75102,-0.0737 3.36591,-0.66317 2.55267,-2.44784 -0.96142,-2.10984 -0.77049,-2.14949 1.86147,-0.38638 2.60928,1.74776 3.18348,1.68242 5.20612,-0.5926 1.9216,-2.16132 2.27341,-2.21772 2.27341,-0.36453 0,1.2059 -0.9114,2.65587 -2.02534,3.22205 -2.18603,1.11116 3.40442,2.85882 9.37581,2.93102 l 3.26686,0.0408 -3.26686,-1.15457 c -2.99918,-1.05998 -2.93226,-1.16401 0.81672,-1.26958 3.25246,-0.0914 3.58492,-0.38026 1.63342,-1.41727 -2.03233,-1.08018 -1.89306,-1.30927 0.81672,-1.34339 2.70979,-0.0357 2.84907,-0.26301 0.81673,-1.34345 -1.95401,-1.03854 -1.65083,-1.30643 1.49732,-1.32283 13.39693,-0.0696 -17.48085,-6.33784 -36.43272,-7.39563 -8.18642,-0.45699 -16.71164,-1.14766 -18.94491,-1.53492 -3.64275,-0.63169 -3.76184,-0.84165 -1.15744,-2.04034 2.42493,-1.11608 2.76241,-2.59237 2.04905,-8.96296 -1.41906,-12.67277 -2.35923,-23.0016 -3.5067,-38.525242 -0.60077,-8.127653 -1.82346,-15.533238 -2.71705,-16.456829 -2.10019,-2.170718 -10.1474,-2.170718 -12.25827,0 -0.89814,0.923591 -2.83227,14.979032 -4.29806,31.234341 -3.20177,35.50691 -3.18711,32.91368 -0.18601,32.91368 1.34758,0 2.45016,0.457 2.45016,1.01536 0,0.55841 -4.22652,1.1668 -9.39226,1.35188 -19.52369,0.69967 -46.94254,4.67126 -50.22818,7.27554 -1.05406,0.83544 0.10471,0.99554 3.26688,0.45139 l 4.90031,-0.84354 -4.08359,2.04414 c -2.53814,1.27053 -3.15632,2.06998 -1.63344,2.11238 2.17792,0.0604 2.17792,0.21274 0,1.37041 -1.89247,1.0059 -1.33479,1.32847 2.45015,1.41727 4.22271,0.0991 4.44858,0.27473 1.63344,1.26957 -4.1423,1.46399 -0.31244,1.73066 7.17249,0.49962 3.8324,-0.63037 4.70693,-1.26387 3.45607,-2.50349 -1.32288,-1.31095 -0.25394,-1.34761 5.08931,-0.17463 l 6.76393,1.48485 -6.89598,1.12161 c -13.32631,2.16747 -5.13819,2.39006 11.80519,0.32088 9.42207,-1.15065 23.43072,-2.09207 31.13032,-2.09207 13.66364,0 45.20511,2.93685 56.63593,5.2734 3.14438,0.64276 6.0478,1.23053 6.45208,1.30614 0.40425,0.0756 0.0368,-0.40013 -0.81672,-1.05735 z m -89.66318,-9.42723 c -0.50347,-0.66997 0.55574,-0.90175 2.35375,-0.51507 3.81405,0.82032 4.29618,1.7332 0.91536,1.7332 -1.29456,0 -2.76567,-0.54819 -3.26911,-1.21814 z m 26.13498,0 c -0.50347,-0.66997 0.66565,-0.87809 2.59802,-0.46255 2.31568,0.49808 4.26537,-0.0904 5.71928,-1.72547 1.21323,-1.36462 2.20588,-1.88197 2.20588,-1.14964 0,3.5393 -8.37543,6.19568 -10.52318,3.33757 z m 26.31308,0.32241 c -2.19989,-1.80929 -1.01112,-3.41047 1.34039,-1.80544 1.33615,0.91202 3.57946,1.29526 4.98513,0.85159 1.47006,-0.46408 2.13185,-0.24266 1.55785,0.5214 -1.13137,1.50558 -6.23797,1.7857 -7.88337,0.43263 z m -28.71823,-22.27836 c -0.76396,-1.66247 -0.98675,-3.57943 -0.49506,-4.25991 0.49165,-0.68049 1.48425,0.0751 2.20575,1.67928 1.51958,3.37851 6.6196,3.83929 9.617,0.86891 2.81496,-2.78963 3.91941,-1.51574 1.67554,1.93255 -2.60537,4.00385 -11.12836,3.85914 -13.00321,-0.22089 z m 2.58324,-15.33732 c -2.19744,-1.80727 -0.99571,-2.86303 2.42218,-2.12792 2.31318,0.49759 4.26376,-0.0914 5.71703,-1.72593 1.69516,-1.90669 2.20588,-2.01733 2.20588,-0.47778 0,3.93955 -7.17103,6.94226 -10.34509,4.33173 z m 2.99464,-18.827091 c 1.79677,-0.406703 3.87411,-1.425042 4.6163,-2.263129 0.89162,-1.006913 1.12529,-0.84022 0.68877,0.49099 -0.36339,1.10831 -2.44069,2.126697 -4.6163,2.263129 -3.11904,0.195502 -3.26471,0.09191 -0.68877,-0.49099 z m -0.84741,-12.534784 c -3.15724,-1.604834 -1.53313,-2.557011 2.37243,-1.390921 1.73714,0.518661 2.43709,1.309682 1.55544,1.757819 -0.88166,0.448344 -2.64919,0.282816 -3.92787,-0.367103 z m 70.42103,53.752155 c -0.96368,-3.69571 -4.80486,-11.80797 -8.53593,-18.02731 -9.7057,-16.17828 -31.09521,-33.803837 -44.20509,-36.426246 -3.76361,-0.752887 -4.3647,-0.472712 -4.14435,1.933347 0.14173,1.547611 0.65375,2.813881 1.13779,2.813881 0.48406,0 0.68589,3.62724 0.44854,8.060477 -0.3711,6.930891 -0.0281,8.063371 2.44754,8.081041 2.46073,0.0203 2.52307,0.21274 0.42895,1.34345 -2.17792,1.17583 -2.17792,1.46983 0,2.64567 1.63842,0.88459 1.77372,1.32963 0.40838,1.34339 -3.0761,0.0302 -2.45106,2.42246 0.81671,3.12477 2.72239,0.58513 2.72239,0.62179 0,0.77021 -3.22408,0.17567 -3.98157,2.83134 -0.81671,2.86322 1.38425,0.0154 1.25275,0.47933 -0.40838,1.44571 -2.00931,1.16868 -2.04953,1.55686 -0.22351,2.15717 1.85294,0.60919 1.85954,0.91866 0.0396,1.84388 -1.63967,0.83341 -1.17474,1.44408 1.85695,2.43901 2.85145,0.93583 3.20118,1.35238 1.18576,1.4124 -4.13377,0.12287 -3.55254,4.76883 0.81673,6.52797 l 3.67523,1.47974 -4.08361,-0.26708 c -3.26072,-0.21324 -3.97001,0.27473 -3.51992,2.41999 0.30998,1.47775 0.72757,2.82877 0.92795,3.00221 0.20031,0.17364 6.19461,0.96027 13.32055,1.7484 7.12594,0.78812 14.2426,1.74486 15.81478,2.12614 2.2973,0.55705 2.89166,-0.18177 3.02733,-3.76355 l 0.16879,-4.45661 1.62689,5.03779 c 0.89477,2.77084 2.2889,5.03783 3.09804,5.03783 1.71631,0 1.71751,-1.15629 0.0104,-9.68201 -1.7284,-8.63006 0.75864,-6.81654 3.26032,2.37744 2.71981,9.99548 5.56475,11.24794 4.08397,1.79794 -0.62532,-3.99071 -3.32016,-11.12449 -5.9885,-15.85284 -2.66835,-4.72829 -4.47728,-8.90471 -4.01984,-9.28095 1.15468,-0.94964 11.55159,17.90282 13.93428,25.26677 3.67707,11.36435 6.44088,10.27579 3.41104,-1.34346 z m -133.41091,-1.00753 c 3.22274,-9.44907 10.40208,-22.56498 11.74634,-21.45941 0.42685,0.35084 -1.01655,3.97205 -3.20755,8.04667 -2.191,4.07462 -4.48215,9.43944 -5.09145,11.92188 -0.60927,2.48244 -1.4976,5.64304 -1.974,7.02345 -1.75694,5.09107 3.33507,1.32045 5.31027,-3.93227 l 1.99101,-5.29476 0.17125,5.03784 c 0.21947,6.45537 2.37939,6.45537 4.57709,0 l 1.7151,-5.03784 0.20636,4.36614 c 0.23562,4.98473 -0.59081,4.85758 18.49242,2.84477 11.89425,-1.25455 14.09856,-1.84354 12.56975,-3.35856 -1.02073,-1.01154 -1.14888,-1.83719 -0.28517,-1.83719 0.86282,0 1.66549,-2.1159 1.7837,-4.70197 0.16412,-3.58999 -0.44929,-4.72211 -2.59385,-4.78715 -1.93411,-0.0584 -1.53712,-0.52091 1.27482,-1.48445 3.77529,-1.29369 3.84597,-1.47236 0.93615,-2.36676 -3.10764,-0.95522 -3.10764,-0.98071 0,-2.01824 3.07869,-1.02788 3.07607,-1.07495 -0.11946,-2.15564 -2.50452,-0.84697 -2.64472,-1.12684 -0.60082,-1.1992 1.99408,-0.0706 2.63584,-1.36426 2.54611,-5.13225 -0.066,-2.77077 -0.89818,-5.48193 -1.84935,-6.02477 -1.11303,-0.63519 -0.93939,-0.99432 0.48713,-1.00757 1.29527,-0.01 1.82577,-0.85814 1.27635,-2.03566 -0.51711,-1.108309 -0.3201,-2.015143 0.43774,-2.015143 0.7579,0 1.37799,-3.260391 1.37799,-7.24534 0,-3.984948 0.50281,-7.914399 1.1173,-8.732175 1.94943,-2.594179 -2.39868,-1.619712 -12.46798,2.794231 -12.13597,5.319915 -27.34622,18.744027 -34.728,30.649917 -7.89335,12.73096 -13.07183,28.20953 -9.43776,28.20953 0.68501,0 2.63724,-4.08066 4.33829,-9.06808 z m 10.99659,-32.42313 c 3.5599,-3.775558 3.83775,-5.528346 0.87633,-5.528346 -3.17271,0 -9.88478,6.387096 -15.64351,14.886166 -5.38721,7.9507 -6.9584,13.43574 -2.47023,8.62357 2.38832,-2.56078 2.45635,-2.49771 1.44976,1.34339 -0.68253,2.60454 1.38882,0.46613 5.85532,-6.04533 3.8013,-5.54159 8.27086,-11.51737 9.93233,-13.27945 z m 123.35021,19.66066 c -0.9121,-2.97738 -0.88757,-2.98246 1.63686,-0.33561 2.453,2.57163 2.51542,2.51405 1.456,-1.34346 -1.40358,-5.11051 -10.20888,-17.23454 -15.60488,-21.48631 -2.78828,-2.197018 -4.86628,-2.876331 -6.40549,-2.093946 -1.86611,0.948572 -1.61782,1.849622 1.37245,4.980386 5.04137,5.27828 14.63587,18.01333 15.75397,20.91073 1.34229,3.47823 2.88361,2.93473 1.79109,-0.63158 z M 98.672339,117.00745 c 0,-0.67678 -2.952675,-3.15387 -6.561494,-5.50459 -3.608825,-2.35076 -7.390043,-5.54738 -8.402708,-7.10362 -1.059497,-1.62814 1.887745,-0.14674 6.941795,3.48953 4.830659,3.47543 9.346925,6.31896 10.036148,6.31896 2.29971,0 1.28943,-2.53457 -1.60538,-4.02759 -2.525572,-1.30262 -2.456021,-1.38478 0.597173,-0.70526 2.778907,0.61843 4.445627,-0.48235 8.510647,-5.62218 l 5.055,-6.391263 -9.32738,-3.495123 C 92.14588,89.555822 83.080595,81.496107 81.559052,74.089201 80.334904,68.130033 82.739398,60.005072 86.881266,56.10512 c 5.096593,-4.798918 -1.661907,-2.390626 -7.445803,2.65323 -7.664743,6.684028 -10.533179,12.806081 -10.373425,22.139784 0.173294,10.125127 5.806818,19.456946 17.878378,29.615236 8.896689,7.48662 11.731947,9.05601 11.731947,6.49408 z M 77.397238,78.519849 c -1.939874,-4.196323 -2.084671,-10.923103 -0.255156,-11.853041 0.735833,-0.374209 1.023338,1.082517 0.638914,3.236734 -0.384431,2.154266 0.07785,5.749518 1.027301,7.989544 2.091079,4.933419 0.837243,5.490315 -1.411084,0.626763 z M 263.1731,111.18507 c 15.19165,-12.761504 20.68586,-25.578043 16.91134,-39.449682 -1.94264,-7.139323 -7.64045,-13.485749 -15.02599,-16.736599 -2.87484,-1.265407 -2.76243,-0.700791 1.1128,5.588769 3.47133,5.634008 4.10935,8.10064 3.27671,12.667313 -1.39551,7.65357 -9.96636,15.642861 -21.76661,20.289708 -5.14262,2.025096 -9.58809,3.819319 -9.87887,3.987179 -0.29078,0.167547 1.78626,2.930612 4.61563,6.139572 3.80466,4.31514 6.06914,5.7189 8.69584,5.3908 3.51054,-0.43868 3.51387,-0.42042 0.28726,1.56939 -1.79536,1.10724 -2.79454,2.39951 -2.22036,2.87171 0.57414,0.47223 5.28286,-1.98102 10.46374,-5.45167 9.18954,-6.15597 9.31122,-6.19314 4.97777,-1.52045 -2.44314,2.63439 -6.23417,5.75551 -8.42452,6.93587 -3.83017,2.06404 -5.36299,4.771 -2.70159,4.771 0.70448,0 5.05907,-3.17383 9.67686,-7.05291 z m 7.43411,-31.76976 c 1.39483,-3.059274 2.20223,-3.723306 2.59142,-2.131266 0.31091,1.271905 -0.60081,3.271614 -2.02611,4.443849 -2.36626,1.946091 -2.41538,1.745176 -0.56533,-2.312583 z m 2.0261,-9.540202 c -0.62018,-2.322282 -0.76006,-4.524632 -0.31086,-4.894069 0.44919,-0.369639 1.32414,1.228341 1.94432,3.550672 0.62018,2.322281 0.76007,4.524631 0.31091,4.894068 -0.44918,0.369639 -1.32412,-1.22834 -1.9443,-3.550671 z"
       id="path419" /></g></svg>
