<?xml version="1.0" encoding="UTF-8" standalone="no"?>
<!-- Created with Inkscape (http://www.inkscape.org/) -->

<svg
   width="350mm"
   height="350mm"
   viewBox="0 0 350 350"
   version="1.1"
   id="svg19910"
   xml:space="preserve"
   inkscape:version="1.2.2 (732a01da63, 2022-12-09)"
   sodipodi:docname="escapedOdin.svg"
   xmlns:inkscape="http://www.inkscape.org/namespaces/inkscape"
   xmlns:sodipodi="http://sodipodi.sourceforge.net/DTD/sodipodi-0.dtd"
   xmlns="http://www.w3.org/2000/svg"
   xmlns:svg="http://www.w3.org/2000/svg"><sodipodi:namedview
     id="namedview19912"
     pagecolor="#505050"
     bordercolor="#eeeeee"
     borderopacity="1"
     inkscape:showpageshadow="0"
     inkscape:pageopacity="0"
     inkscape:pagecheckerboard="0"
     inkscape:deskcolor="#505050"
     inkscape:document-units="mm"
     showgrid="false"
     inkscape:zoom="0.25323113"
     inkscape:cx="1628.9466"
     inkscape:cy="570.62495"
     inkscape:window-width="1920"
     inkscape:window-height="991"
     inkscape:window-x="-9"
     inkscape:window-y="-9"
     inkscape:window-maximized="1"
     inkscape:current-layer="layer1" /><defs
     id="defs19907" /><g
     inkscape:label="Vrstva 1"
     inkscape:groupmode="layer"
     id="layer1"><circle
       style="fill:#ff9600;fill-opacity:1;stroke-width:0.305035"
       id="path340"
       cx="175.00035"
       cy="175"
       r="175" /><path
       id="path340-9"
       style="fill:#964600;fill-opacity:1;stroke-width:0.305035"
       d="M 175.00017,0 A 175,175 0 0 0 0,175.00018 175,175 0 0 0 175.00017,349.99984 175,175 0 0 0 350.00034,175.00018 175,175 0 0 0 175.00017,0 Z m 0,15.00012 A 160,160 0 0 1 335.00022,175.00018 160,160 0 0 1 175.00017,335.00023 160,160 0 0 1 15.00012,175.00018 160,160 0 0 1 175.00017,15.00012 Z" /><path
       style="fill:#964600;stroke-width:0.142929;fill-opacity:1"
       d="m 169.63045,333.62906 c -0.39806,-3.60694 -1.5889,-9.11033 -2.65835,-12.28545 -1.48302,-4.40293 -2.81994,-6.9328 -7.35028,-13.9089 -3.20702,-4.93841 -4.06879,-6.37271 -5.60845,-9.33472 l -1.2118,-2.33123 -0.47712,1.16559 c -0.89632,2.18968 -2.15516,3.96314 -4.54546,6.40375 -1.34571,1.37405 -5.1346,4.88271 -5.27266,4.88271 -0.0337,0 -0.10039,-0.72357 -0.14827,-1.60794 -0.20875,-3.85863 -1.4733,-7.97738 -4.20177,-13.68539 -0.54486,-1.13986 -2.12096,-4.22711 -3.50245,-6.86056 -3.40589,-6.49247 -4.47061,-8.85629 -5.1825,-11.50573 -0.19009,-0.70749 -0.38876,-1.6546 -0.44148,-2.10468 l -0.0959,-0.81834 -1.04163,1.39671 c -3.0389,4.07477 -7.31808,7.58457 -12.43426,10.19857 -1.62099,0.82822 -5.47494,2.54761 -5.71034,2.54761 -0.0156,0 0.1811,-0.7291 0.43725,-1.62024 1.4714,-5.11882 2.16696,-10.85786 2.01229,-16.60312 -0.11735,-4.35832 -0.49689,-7.31586 -1.39214,-10.84808 -0.41256,-1.62774 -1.22214,-3.99037 -1.66255,-4.85184 l -0.20787,-0.40659 -0.6126,1.07495 c -2.899,5.08711 -9.18096,9.88324 -15.08965,11.52063 l -0.98573,0.27314 0.37035,-0.81088 c 2.61653,-5.72912 3.45003,-9.37309 3.57744,-15.64009 0.0885,-4.35416 -0.0294,-6.06745 -0.88725,-12.8989 -0.95046,-7.5683 -1.0846,-9.00678 -1.17436,-12.59225 -0.0918,-3.67007 0.066,-6.13817 0.58875,-9.20431 0.18092,-1.06124 0.31837,-1.94409 0.30541,-1.96189 -0.013,-0.0178 -0.35808,0.0948 -0.76694,0.25013 -1.37556,0.52268 -3.33184,0.76198 -6.24307,0.7637 -1.56653,0.002 -3.10875,-0.0732 -3.64467,-0.175 -1.34857,-0.25637 -2.45595,-0.58828 -2.40369,-0.72043 0.025,-0.0631 0.68854,-0.63178 1.47466,-1.26368 6.80717,-5.4719 12.91327,-15.27292 17.4387,-27.99119 1.30645,-3.67163 3.33044,-10.56835 3.15347,-10.74532 -0.0296,-0.0296 -0.71931,-0.11542 -1.53284,-0.19082 -2.27212,-0.21066 -5.97583,-0.93371 -6.26527,-1.22316 -0.0391,-0.0391 0.057,-0.14274 0.21357,-0.23037 0.15655,-0.0875 1.21727,-0.78248 2.35713,-1.54417 6.41493,-4.28666 10.28331,-7.944 12.76397,-12.06767 l 0.68785,-1.14342 -0.32857,-0.21439 c -1.17147,-0.76439 -2.37131,-2.36378 -3.03598,-4.047 -0.65284,-1.65329 -0.94249,-3.26067 -1.03658,-5.7525 -0.16822,-4.45476 0.70811,-7.42112 2.81475,-9.52776 0.95762,-0.95762 0.96507,-0.97118 1.06224,-1.93125 0.38592,-3.8127 1.67078,-10.17619 2.80278,-13.88119 0.15265,-0.49959 0.27755,-0.98696 0.27755,-1.08303 0,-0.0961 -0.61476,-0.47985 -1.36609,-0.85284 -1.65694,-0.82254 -3.08926,-2.10006 -3.75503,-3.34918 -0.57958,-1.0874 -0.93342,-2.59688 -0.82673,-3.52677 l 0.0822,-0.71571 -0.65328,-0.41329 c -0.35929,-0.22732 -1.66046,-1.16249 -2.89147,-2.07818 C 96.6256,101.026 89.78878,92.964302 86.00057,84.675332 80.25464,72.102627 80.33319,59.1562 86.21552,49.257145 c 3.74327,-6.299382 9.52282,-11.214574 16.05742,-13.655955 4.36455,-1.630631 6.9479,-1.369238 7.34419,0.743128 0.23993,1.278975 -0.53732,2.577047 -2.34413,3.91487 -3.95604,2.929181 -7.36486,8.510541 -8.48053,13.885361 -0.44611,2.149172 -0.41899,4.835006 0.0678,6.709304 0.92534,3.56326 2.91117,6.676145 6.40701,10.043233 4.45157,4.287646 11.24197,8.079876 18.26014,10.197726 l 1.91774,0.57871 0.43841,-0.33375 c 2.64461,-2.01328 6.15455,-1.80967 9.21643,0.53466 l 0.63109,0.48319 2.21017,-2.20509 c 5.83977,-5.82633 12.34958,-10.598528 18.68153,-13.695025 2.36372,-1.155928 5.54471,-2.44546 7.2458,-2.937366 l 1.09988,-0.318047 0.0903,-0.802069 c 0.3353,-2.975232 2.5032,-5.30567 6.06137,-6.515888 4.05405,-1.378876 9.22667,-0.416672 11.88498,2.210822 1.19145,1.177631 1.66627,2.152923 1.87551,3.85231 l 0.15502,1.259072 0.87247,0.241875 c 1.34566,0.37305 4.82588,1.740816 6.76463,2.658572 6.49766,3.075825 13.20145,7.918494 19.28623,13.931964 l 2.17241,2.14695 0.89091,-0.67018 c 3.08523,-2.32083 6.5266,-2.45709 9.18628,-0.36371 l 0.55251,0.43487 1.56088,-0.45349 c 5.75501,-1.67205 11.7932,-4.75752 16.20065,-8.2784 1.82884,-1.460981 4.60147,-4.334297 5.76693,-5.976394 1.2092,-1.70371 2.36328,-4.092686 2.82709,-5.852166 0.32332,-1.226523 0.37704,-1.723295 0.37869,-3.501742 0.003,-3.535088 -0.95921,-6.869739 -3.05676,-10.59063 -1.37006,-2.430431 -3.68718,-5.197866 -5.34425,-6.382922 -1.73389,-1.239985 -2.7823,-2.626875 -2.7857,-3.685042 -0.002,-0.238828 0.14331,-0.72121 0.32019,-1.071965 0.81992,-1.625945 3.06547,-1.687707 7.07623,-0.194607 7.86097,2.926426 14.66185,9.519151 17.97754,17.427284 3.34641,7.981351 3.42857,17.37439 0.23442,26.794724 -2.73913,8.07834 -7.05929,14.68 -14.12352,21.582208 -3.06949,2.9991 -5.7735,5.24016 -9.0867,7.53098 l -1.54199,1.06617 v 0.74535 c 0,2.6678 -1.67407,5.12865 -4.42622,6.50641 -0.75289,0.37692 -1.44706,0.7116 -1.54263,0.74376 -0.12642,0.0425 -0.0558,0.46729 0.25934,1.55922 0.7062,2.44725 1.2576,4.72626 1.77474,7.33505 0.51338,2.58988 1.0762,6.33427 1.0762,7.15983 0,0.40737 0.15084,0.64613 0.89331,1.41413 2.24125,2.31834 3.09244,5.09453 2.91996,9.5236 -0.19609,5.03541 -1.69986,8.63163 -4.1991,10.04213 l -0.7653,0.43189 0.67533,0.80603 c 2.44784,2.92161 5.74182,6.33659 9.08929,9.42324 1.40454,1.29512 2.04953,1.97979 1.92876,2.04738 -0.37237,0.20838 -2.41536,0.39716 -5.3611,0.49533 -1.67047,0.0557 -3.03723,0.11839 -3.03723,0.13936 0,0.20514 1.67019,3.85337 2.48281,5.42332 4.76933,9.21402 12.51196,17.45275 23.2443,24.73361 0.90402,0.61328 1.67582,1.14236 1.71513,1.17573 0.17203,0.14601 -1.2505,1.19755 -2.32586,1.71928 -2.14573,1.04105 -5.92319,2.02902 -7.75784,2.02902 -0.42938,0 -0.77885,0.0648 -0.77885,0.14443 0,0.0794 0.12812,0.71958 0.28469,1.42251 0.54166,2.43176 0.73266,4.09146 0.81473,7.08021 0.15083,5.49221 -0.37097,9.3537 -2.57935,19.08732 -1.67795,7.39591 -2.04222,9.54075 -2.18356,12.85717 -0.17256,4.04873 0.62337,7.3845 2.36648,9.91802 l 0.43001,0.62499 -0.96005,-0.063 c -5.30303,-0.34773 -8.32204,-1.64048 -11.82516,-5.06358 l -1.59946,-1.56293 -0.0991,2.11095 c -0.5904,12.56913 -4.53098,22.26186 -13.78405,33.90482 l -1.07301,1.35014 -0.247,-1.4216 c -0.29848,-1.71787 -0.61849,-2.65005 -1.48712,-4.33186 -1.19561,-2.31494 -2.91624,-4.66612 -5.06661,-6.9234 -0.72964,-0.76588 -1.09327,-1.05678 -1.16139,-0.92902 -0.0545,0.10232 -0.14405,0.73267 -0.19893,1.40086 -0.24122,2.93803 -1.13244,7.12581 -2.25081,10.5767 -1.73612,5.35701 -4.99809,11.24858 -8.0577,14.55329 l -0.70429,0.76071 -2.17334,-2.04705 c -2.31784,-2.18319 -4.55692,-4.53177 -5.87088,-6.15804 -0.75307,-0.93205 -0.8125,-0.9752 -0.90717,-0.65862 -0.0557,0.18635 -0.4983,1.75379 -0.98352,3.48323 -3.16831,11.29263 -7.38756,19.32186 -14.42,27.44125 -1.46681,1.69354 -8.23995,8.49786 -11.75586,11.81 l -1.808,1.70321 z m 0.36215,-20.47723 c -0.52552,-5.10172 -1.86811,-8.8788 -6.75294,-18.99771 -3.47813,-7.20497 -4.86587,-10.44053 -6.03421,-14.06901 -1.11855,-3.47389 -2.03439,-7.95751 -2.37959,-11.64946 -0.23952,-2.56185 -0.0865,-7.92584 0.34334,-12.02635 0.18947,-1.80805 0.32444,-3.31039 0.29993,-3.33854 -0.15289,-0.1755 -1.79078,4.64407 -2.34087,6.88808 -0.74821,3.0522 -0.88998,4.22068 -0.96855,7.98307 -0.11904,5.69978 0.47953,9.82912 2.20257,15.19498 1.64333,5.11766 3.6018,9.11521 8.64782,17.65164 1.37081,2.31902 2.85298,4.89173 3.2937,5.71715 0.99011,1.85427 2.29673,4.91458 3.12677,7.32334 0.72416,2.10143 0.83455,1.96843 0.56203,-0.67719 z m 11.2415,0.85166 c 1.33228,-1.92063 2.99934,-4.52777 4.58526,-7.171 6.85643,-11.42752 10.49704,-21.0323 11.60912,-30.62763 0.0866,-0.7468 0.19422,-2.7085 0.23926,-4.35931 0.15097,-5.53287 -0.48448,-10.50773 -2.02648,-15.86504 -0.65365,-2.27094 -0.90273,-3.00463 -0.98933,-2.91412 -0.0292,0.0305 0.0413,1.69565 0.15654,3.70023 0.25551,4.44122 0.17724,11.47694 -0.15742,14.14989 -0.54369,4.34234 -1.39116,8.5238 -2.57903,12.72505 -1.57979,5.5874 -3.03504,9.54918 -7.01345,19.09354 -2.63577,6.32331 -4.64638,11.40598 -4.99705,12.63213 -0.14006,0.48977 -5.4e-4,0.3277 1.17258,-1.36374 z m -4.61056,-5.71122 c 4.57962,-6.21101 8.12192,-14.27627 10.59773,-24.1294 1.58479,-6.30706 3.17003,-15.9855 3.64346,-22.24443 0.22412,-2.96296 0.0957,-10.83568 -0.22048,-13.51313 -0.78118,-6.61576 -2.59429,-13.924 -4.61822,-18.61504 l -0.56981,-1.3207 0.44778,0.36743 c 0.70868,0.58155 2.99081,3.12238 4.21693,4.69498 5.34688,6.85782 9.71151,15.89249 12.57105,26.02173 1.10091,3.89971 2.30511,9.6355 2.75389,13.11711 0.099,0.76834 0.22856,1.3472 0.28784,1.28635 0.17021,-0.17472 1.05989,-3.29554 1.76323,-6.18507 1.15845,-4.75928 2.09179,-10.79416 2.58627,-16.72261 0.43954,-5.26989 0.42211,-14.50677 -0.0327,-17.36038 l -0.0903,-0.5663 0.63055,0.48831 c 1.06207,0.82247 3.16796,2.99795 4.35935,4.50335 3.29131,4.15883 7.38283,11.16132 12.54774,21.47498 0.52162,1.04159 1.00193,1.8938 1.06737,1.8938 0.14478,0 1.40236,-4.67456 2.0764,-7.71813 2.97331,-13.42582 2.46157,-24.67854 -1.7027,-37.44044 -0.34507,-1.05752 -0.6108,-1.93934 -0.59053,-1.95961 0.10232,-0.10232 3.94166,3.54735 5.22636,4.96811 4.01572,4.44109 5.97622,7.72431 8.95317,14.99369 1.34733,3.29004 3.34391,7.63248 3.45718,7.51919 0.0314,-0.0314 -0.10749,-1.04473 -0.30877,-2.25171 -0.20129,-1.207 -0.56174,-4.12406 -0.801,-6.48238 -0.23926,-2.35831 -0.56329,-5.13501 -0.72007,-6.17044 -1.03372,-6.82738 -3.71929,-13.13602 -8.80512,-20.68402 l -1.62635,-2.41369 0.5123,-1.19277 c 1.38929,-3.23459 2.3304,-7.18553 2.87944,-12.08813 0.33512,-2.99264 0.33858,-9.71337 0.006,-12.34561 -0.26756,-2.11989 -0.65794,-4.22038 -0.81691,-4.39563 -0.0588,-0.0649 -0.15244,0.32101 -0.20792,0.85758 -0.0555,0.53655 -0.25601,1.90815 -0.44557,3.048 -1.63162,9.81082 -4.78831,17.33454 -9.05691,21.58638 -0.95158,0.94785 -2.69555,2.25906 -3.32687,2.50131 -0.17476,0.0671 -0.33951,-0.28056 -0.7984,-1.68466 -0.93236,-2.85271 -1.39249,-5.3599 -1.72457,-9.39656 l -0.11171,-1.35782 -0.65903,1.35782 c -1.75716,3.62029 -2.25916,7.12774 -1.96146,13.70397 0.25533,5.63969 0.59215,7.43206 2.49922,13.29932 1.29114,3.97239 1.97445,6.66958 2.35614,9.30051 0.37212,2.56477 0.60273,6.07892 0.54734,8.34092 l -0.045,1.83767 -2.38256,-4.19599 c -3.12637,-5.50595 -3.76474,-6.686 -5.33737,-9.86648 -2.31061,-4.67293 -3.08779,-6.65736 -5.00017,-12.76728 -0.84035,-2.68481 -1.66639,-4.71668 -2.9287,-7.20399 -1.98959,-3.92032 -4.04756,-6.77508 -7.07492,-9.81407 -2.91782,-2.92905 -5.51884,-4.76713 -8.7955,-6.21559 -5.41366,-2.39315 -9.62029,-2.6215 -11.82225,-0.64175 -0.83506,0.75081 -1.38526,1.71937 -1.67505,2.94878 -0.441,1.87094 -0.17906,3.68121 0.67311,4.65176 0.97455,1.10995 2.23404,1.61015 6.25301,2.48341 6.13716,1.33351 8.83614,2.66403 12.1542,5.99177 4.26161,4.27402 6.37373,9.54123 7.05358,17.59028 0.0771,0.91348 0.18234,1.08846 -1.13998,-1.89627 -3.73829,-8.43799 -9.82845,-14.03402 -16.53982,-15.19787 -0.69252,-0.12008 -1.31891,-0.19817 -1.39197,-0.17354 -0.0731,0.0246 0.20741,0.30794 0.62327,0.62953 2.58131,1.99614 4.87231,7.46926 5.19726,12.41596 0.13003,1.97958 0.0113,2.06457 -0.7368,0.52749 -2.44885,-5.03145 -6.49431,-8.14083 -11.83567,-9.09706 -2.11379,-0.37842 -5.79328,-0.24703 -7.74836,0.27669 -1.72024,0.46082 -3.68725,1.36842 -5.13546,2.36957 -2.09894,1.45099 -4.23938,4.05722 -5.48698,6.68103 l -0.5259,1.10615 -0.0437,-1.0005 c -0.0569,-1.30114 0.17295,-2.99108 0.67958,-4.9971 0.97496,-3.86044 2.66072,-6.89108 4.70436,-8.45744 l 0.66278,-0.508 -0.85758,0.10243 c -4.49881,0.53713 -9.28105,3.41517 -12.68187,7.6322 -1.89022,2.34389 -4.08606,6.14112 -5.25717,9.09113 -0.24864,0.62635 -0.48587,1.17098 -0.52715,1.21028 -0.0824,0.0785 0.0378,-1.43133 0.25602,-3.21588 0.55022,-4.49833 2.05272,-8.7727 4.24538,-12.07744 0.48776,-0.73513 1.51346,-1.9219 2.59734,-3.00523 3.34823,-3.34649 6.03986,-4.6966 11.80423,-5.92096 4.88272,-1.03708 6.18656,-1.64482 7.03065,-3.27707 0.33087,-0.63981 0.37861,-0.90237 0.37998,-2.08958 0.003,-2.46157 -0.85753,-4.276 -2.49255,-5.25657 -1.14954,-0.68941 -1.72932,-0.81857 -3.63972,-0.81073 -2.03683,0.009 -3.86107,0.41838 -6.40866,1.44045 -4.07721,1.63575 -7.0621,3.69446 -10.45809,7.21303 -4.24859,4.40194 -7.48082,10.03907 -9.49883,16.56622 -1.28506,4.1565 -1.56603,4.99289 -2.2566,6.71763 -1.79635,4.48646 -4.6764,10.05376 -9.53812,18.43775 l -0.95314,1.64368 0.0769,-3.64468 c 0.12971,-6.14474 0.68784,-9.25255 2.87399,-16.00286 1.21311,-3.74579 1.6782,-5.47805 1.9924,-7.42072 0.62153,-3.84275 0.67084,-11.90798 0.0904,-14.79526 -0.35949,-1.78842 -0.86275,-3.24256 -1.68683,-4.87404 l -0.57756,-1.14342 -0.0784,0.92903 c -0.40164,4.75707 -0.74655,6.78019 -1.61666,9.48292 -0.72031,2.2374 -0.6607,2.15433 -1.30704,1.82127 -1.06782,-0.55025 -2.68455,-1.80156 -3.90646,-3.02346 -4.98257,-4.98256 -8.56973,-13.21867 -9.97475,-22.90205 -0.14598,-1.00607 -0.29564,-1.85947 -0.3326,-1.89642 -0.037,-0.037 -0.14325,0.68316 -0.23623,1.60027 -1.07907,10.64373 0.12538,19.24199 3.81345,27.22311 l 0.5678,1.22869 -1.49124,2.20158 c -5.17263,7.63663 -7.93179,14.12459 -8.97688,21.10847 -0.12096,0.80831 -0.41252,3.38103 -0.64791,5.71714 -0.4431,4.39773 -0.7265,6.58298 -1.06058,8.17803 -0.10703,0.51097 -0.17313,0.95195 -0.14692,0.97996 0.1077,0.11503 1.95716,-3.80714 2.98947,-6.33976 3.22669,-7.91629 4.43147,-10.16042 7.59648,-14.14991 1.22309,-1.5417 5.41343,-5.84429 6.5772,-6.75337 l 0.58999,-0.46088 -0.62856,1.94924 c -3.3941,10.52546 -4.34912,19.90081 -3.05393,29.98003 0.50732,3.94797 1.49846,8.69251 2.76366,13.22966 l 0.617,2.2126 1.54746,-2.9987 c 7.18497,-13.92313 10.37993,-19.05722 14.36846,-23.0893 1.92808,-1.94911 2.81167,-2.67517 2.66749,-2.19195 -0.44738,1.49962 -0.47139,13.24528 -0.037,18.06615 0.51649,5.73102 1.3503,11.15702 2.42698,15.79358 0.46106,1.98545 1.75352,6.6443 1.87773,6.76852 0.0759,0.0759 0.15728,-0.36518 0.4319,-2.33775 0.13133,-0.94331 0.48804,-3.00148 0.79269,-4.5737 2.82098,-14.55837 8.78121,-27.41476 16.92923,-36.51676 1.4496,-1.61933 2.22992,-2.31147 1.99554,-1.77009 -1.72069,3.97455 -3.45037,10.1386 -4.3545,15.51808 -0.8421,5.01036 -1.1444,8.97917 -1.14658,15.05308 -0.003,9.83905 1.08533,16.61984 3.74986,23.35223 0.48533,1.22621 2.0009,4.48061 3.36798,7.23199 1.36705,2.75138 2.80698,5.70999 3.19983,6.57471 1.64359,3.61781 3.20709,7.92927 4.19835,11.57719 0.27769,1.02194 0.53772,1.95413 0.57782,2.07153 0.0842,0.24655 0.095,0.2342 1.68975,-1.9286 z m 0.27009,-19.43825 c -3.3212,-6.01826 -5.48942,-12.75546 -6.50879,-20.22435 -0.28724,-2.10455 -0.32106,-2.92742 -0.31419,-7.64667 0.009,-5.50193 0.10968,-7.17591 0.84655,-13.93552 0.68466,-6.28075 1.15291,-11.9436 1.63685,-19.79557 0.40052,-6.49877 0.9094,-11.64865 1.15104,-11.64865 0.053,0 0.4287,0.67499 0.83473,1.49997 2.3218,4.71752 4.1865,10.66493 5.08645,16.22313 1.11426,6.88182 1.18529,12.27218 0.28628,21.72511 -0.92927,9.77119 -1.14888,13.12928 -1.35063,20.65314 -0.17498,6.52541 -0.42632,12.97249 -0.55164,14.14991 l -0.0913,0.85757 z m -30.67872,-45.49991 c -0.59937,-2.99687 0.0808,-7.73564 1.69876,-11.83431 0.81604,-2.06733 1.34059,-3.12553 3.45627,-6.97249 1.51958,-2.76307 2.21273,-4.22724 3.47393,-7.33811 0.29161,-0.71929 0.51876,-1.10987 0.58088,-0.99885 0.21669,0.3872 0.55473,2.62013 0.55422,3.66081 -5.5e-4,1.29839 -0.27718,3.10611 -0.71474,4.67245 -0.5592,2.00177 -1.43514,4.03091 -3.76044,8.7113 -1.24977,2.51553 -2.74155,5.57064 -3.31508,6.78909 -0.57353,1.21846 -1.23307,2.55766 -1.46564,2.97597 l -0.42288,0.76059 z m 58.0902,-0.53479 c -0.25321,-0.46519 -0.91524,-1.81056 -1.47117,-2.98971 -0.55593,-1.17917 -1.90004,-3.92225 -2.98689,-6.09578 -3.47511,-6.94955 -4.43337,-9.63711 -4.65956,-13.06821 -0.0878,-1.33082 0.10872,-3.20999 0.43371,-4.14871 l 0.17735,-0.51225 0.76507,1.90749 c 0.8889,2.2162 2.11744,4.73939 3.54178,7.27403 3.002,5.34222 4.44306,9.26908 4.90168,13.35707 0.17555,1.56478 0.1066,4.18068 -0.12686,4.81176 -0.10232,0.27661 -0.16446,0.21876 -0.57511,-0.53569 z m -58.11642,53.57417 c -0.17942,-1.36541 -0.67168,-3.86569 -1.09042,-5.53847 -0.80033,-3.19715 -1.68539,-5.7176 -5.19464,-14.79309 -3.7149,-9.60733 -4.94556,-14.79177 -5.36704,-22.60989 -0.086,-1.59655 -0.195,-3.19224 -0.24205,-3.54598 l -0.0856,-0.64318 -0.19397,1.07195 c -0.81742,4.51719 -0.82822,9.89419 -0.0296,14.72162 0.8808,5.32401 2.33505,9.46213 6.53798,18.60424 2.11838,4.60783 3.24728,7.25004 4.7379,11.08912 0.49598,1.27743 0.92762,2.32259 0.95919,2.32259 0.0316,0 0.0172,-0.30551 -0.0318,-0.67891 z m 62.26473,-10.6435 c 2.53973,-4.27033 4.53189,-9.28771 5.90903,-14.88226 1.26337,-5.13237 1.79851,-9.32971 1.79881,-14.10891 0,-3.95619 -0.18867,-5.75087 -0.96753,-9.19191 -0.46718,-2.06395 -0.58965,-1.90783 -0.60357,0.76937 -0.0338,6.49841 -1.08756,15.03958 -2.7506,22.29439 -0.93179,4.06477 -3.06928,11.72106 -4.77581,17.10648 -0.15272,0.48194 0.34156,-0.22486 1.38967,-1.98716 z m -90.85287,-12.90698 c 0.6572,-2.26516 0.83365,-3.84387 0.75027,-6.71215 -0.0866,-2.98055 -0.3527,-4.68762 -1.65999,-10.65126 -1.04263,-4.75631 -1.46411,-7.02272 -1.90035,-10.21872 -0.30788,-2.25565 -0.33075,-2.88818 -0.31918,-8.82638 0.006,-3.51812 -0.006,-6.37737 -0.0303,-6.35387 -0.0236,0.0236 -0.23518,1.0046 -0.4704,2.18023 -1.11357,5.56555 -1.26296,11.27424 -0.44661,17.06606 0.36264,2.57286 0.69881,4.16948 1.88242,8.94045 1.37505,5.54264 1.70569,7.39635 1.79728,10.07643 0.0679,1.98584 -0.13897,4.93029 -0.4618,6.5747 -0.14176,0.72204 0.49017,-0.80542 0.85864,-2.07549 z m 112.33489,-1.35764 c 2.8269,-3.95152 5.05162,-9.67808 6.4955,-16.71976 1.4996,-7.31345 1.78225,-13.78336 0.87415,-20.00995 -0.28643,-1.96403 -1.17328,-5.84493 -1.43263,-6.26941 -0.11365,-0.18599 -0.12889,-0.16072 -0.0746,0.12348 0.0376,0.19653 0.17599,1.80448 0.30757,3.5732 0.39519,5.3124 0.16674,11.117 -0.66654,16.93702 -1.36536,9.53623 -3.42688,17.10261 -6.13702,22.52466 -0.39315,0.78659 -0.7134,1.47517 -0.71165,1.53018 0.004,0.12984 0.39382,-0.35959 1.34518,-1.68942 z M 101.44518,221.73122 c 0.81849,-3.93587 2.31922,-8.29654 4.32221,-12.55886 0.79313,-1.68782 2.19704,-4.25939 2.8095,-5.1463 l 0.34545,-0.50025 -0.60972,-1.21488 c -0.76607,-1.52646 -1.4427,-3.42148 -1.7992,-5.03915 -0.32768,-1.48683 -0.70176,-4.54862 -0.70176,-5.74392 0,-0.49068 -0.0526,-0.79379 -0.12416,-0.71552 -0.0683,0.0747 -0.48317,1.45429 -0.92195,3.0658 -2.59209,9.51995 -3.51348,14.79679 -3.80595,21.79658 -0.11258,2.69436 -0.0514,7.88116 0.0912,7.7385 0.031,-0.031 0.2084,-0.78784 0.39434,-1.682 z m 148.61011,-3.73972 c 0.0115,-6.73922 -0.34432,-11.06749 -1.31674,-16.02229 -0.72235,-3.68052 -2.05702,-8.14919 -3.1637,-10.59231 l -0.3237,-0.71463 -0.17707,1.99406 c -0.38643,4.35223 -1.21922,7.52764 -2.63671,10.05393 l -0.42455,0.75664 0.78183,1.26394 c 2.89681,4.68306 5.8719,12.37247 6.82228,17.63297 0.3197,1.76952 0.42985,0.67091 0.43836,-4.37231 z M 209.705,191.27208 c 0.59614,-1.87749 1.10901,-4.50806 1.31564,-6.7482 0.22012,-2.38602 0.0772,-7.47383 -0.28515,-10.15544 -0.14872,-1.10055 -0.24795,-2.02482 -0.22049,-2.05397 0.0975,-0.10339 1.15489,0.8263 2.31916,2.03904 1.11644,1.16292 2.699,3.37352 3.25936,4.5529 0.14007,0.29479 0.29477,0.53599 0.34375,0.53599 0.0864,0 1.01933,-2.54844 1.51715,-4.144 0.13476,-0.43184 0.47987,-1.74534 0.7669,-2.91887 l 0.52188,-2.1337 1.22345,1.63253 c 2.2097,2.94859 4.09591,6.46199 5.25019,9.77942 0.24617,0.7075 0.48425,1.38283 0.52907,1.50075 0.18348,0.48269 1.7642,-4.31667 2.40083,-7.28935 0.73541,-3.43394 0.86615,-4.80503 0.85865,-9.00449 -0.005,-3.33387 -0.0556,-4.2451 -0.32707,-6.00299 -0.29243,-1.89384 -0.95308,-5.12612 -1.07205,-5.24507 -0.0271,-0.0271 -0.0533,1.47958 -0.0583,3.34825 -0.012,4.52281 -0.41084,8.01676 -1.20094,10.5202 -0.31146,0.98686 -0.31746,0.99417 -0.53808,0.65615 -1.13213,-1.73476 -4.05876,-4.58901 -6.51193,-6.35094 -1.17894,-0.84671 -3.46986,-2.16383 -3.56256,-2.04818 -0.0214,0.0267 -0.14465,0.8526 -0.2738,1.83525 -0.20174,1.53493 -0.85923,4.67177 -1.01107,4.82359 -0.0274,0.0274 -0.45949,-0.23487 -0.96007,-0.58296 -1.85575,-1.29044 -4.03007,-2.16066 -6.67291,-2.67069 -1.5447,-0.29808 -4.68432,-0.53426 -5.08064,-0.38219 -0.18008,0.0691 -0.045,0.32648 0.66756,1.27178 1.07461,1.42566 1.78132,2.66374 2.37835,4.16671 0.90178,2.27007 1.6308,5.90792 1.55164,7.74263 l -0.0431,0.99592 -0.5314,-0.94407 c -2.43357,-4.3234 -7.15368,-8.00256 -12.42081,-9.6816 -1.51354,-0.48248 -4.17149,-1.06169 -4.56305,-0.99436 -0.13706,0.0236 -2.00264,2.101 -4.14574,4.61654 l -3.89652,4.5737 1.15849,0.0972 c 3.27376,0.27459 6.8091,1.41583 9.42729,3.04321 0.46423,0.28855 0.60744,0.32739 0.60744,0.16474 0,-0.44799 -0.86214,-3.52887 -1.34778,-4.81633 -0.27953,-0.74105 -0.50869,-1.39273 -0.50925,-1.4482 -0.003,-0.29199 3.06452,1.16688 4.76082,2.26421 3.77442,2.44166 7.3886,6.08636 10.04363,10.12847 1.11666,1.70003 2.62389,4.42939 3.28866,5.95525 0.2283,0.52402 0.4569,0.90993 0.50804,0.85758 0.0511,-0.0523 0.29172,-0.72123 0.53467,-1.48638 z m -68.0235,0.17629 c 1.17442,-2.64555 3.28851,-6.0699 5.25024,-8.50423 1.43245,-1.77755 4.28061,-4.55727 5.95117,-5.80817 1.62729,-1.21851 3.85155,-2.54071 5.36039,-3.18648 0.6555,-0.28055 1.24356,-0.51008 1.30679,-0.51008 0.0633,0 -0.0733,0.48481 -0.30336,1.07734 -0.44684,1.15075 -1.3075,4.06214 -1.47277,4.98195 l -0.1,0.55657 0.47484,-0.31751 c 0.79303,-0.53025 3.26478,-1.68448 4.46409,-2.08458 1.68588,-0.56243 3.41833,-0.9175 4.97953,-1.02055 0.76645,-0.0506 1.39354,-0.12027 1.39354,-0.15482 0,-0.0854 -7.8441,-8.87113 -8.01419,-8.97623 -0.19555,-0.12086 -2.27233,0.32312 -3.84886,0.82284 -5.26534,1.66897 -9.68424,5.11226 -12.43553,9.68998 l -0.71388,1.18776 9.5e-4,-0.70173 c 0.003,-1.69675 0.43787,-4.34966 1.08418,-6.61131 0.47712,-1.66969 1.85087,-4.41473 2.90783,-5.81052 0.47623,-0.62889 0.86597,-1.19167 0.86611,-1.25063 5.5e-4,-0.28154 -3.59223,-0.0243 -5.71108,0.40888 -2.26764,0.46362 -4.822,1.54019 -6.2893,2.65075 -0.41228,0.31203 -0.77776,0.53916 -0.8122,0.50472 -0.27506,-0.27506 -1.1941,-4.85349 -1.1941,-5.94878 0,-0.29353 -0.0399,-0.57351 -0.0885,-0.62219 -0.1331,-0.13309 -1.96083,0.82744 -3.34355,1.75721 -2.62566,1.76549 -5.26366,4.11381 -6.61208,5.88603 l -0.74695,0.98173 -0.19364,-0.4687 c -0.93444,-2.26175 -1.55819,-7.80779 -1.38694,-12.33179 0.0536,-1.415 0.14622,-2.91038 0.20591,-3.3231 0.21119,-1.46025 -0.0921,-0.71978 -0.67344,1.64369 -1.89245,7.69501 -1.90207,14.49157 -0.0306,21.68937 0.572,2.20006 1.67884,5.50334 1.84357,5.50197 0.0508,0 0.33399,-0.69295 0.62937,-1.53894 1.34522,-3.85299 3.57585,-7.82387 6.16042,-10.96652 l 0.35264,-0.42878 0.0767,0.35732 c 0.58555,2.72868 2.04895,7.69388 2.53566,8.60331 0.13211,0.24685 0.23523,0.1309 0.87284,-0.98153 0.39766,-0.69382 1.06577,-1.7171 1.48471,-2.27397 1.15794,-1.53923 3.50165,-3.80932 3.71383,-3.59715 0.0415,0.0415 -0.0208,0.77401 -0.13842,1.62788 -0.79093,5.74366 -0.59322,11.36276 0.55754,15.84532 0.52721,2.05366 0.89053,3.03359 1.05357,2.84164 0.0589,-0.0693 0.32117,-0.6084 0.5829,-1.19797 z m 33.02877,-19.59953 c -0.23897,-3.17365 -0.47418,-6.16954 -0.5227,-6.65757 l -0.0882,-0.88731 -0.91643,-0.42886 c -1.14763,-0.53705 -2.28819,-1.65817 -2.8475,-2.79899 -0.36506,-0.74463 -0.42044,-1.01759 -0.42044,-2.07247 0,-1.05644 0.0493,-1.29879 0.37824,-1.85824 0.20803,-0.35384 0.49746,-0.75082 0.64318,-0.88219 0.25614,-0.23093 0.26506,-0.19298 0.26878,1.1436 0.003,1.2209 0.0491,1.46907 0.39092,2.12387 0.47232,0.90466 1.21783,1.65007 2.0562,2.05594 0.52257,0.25295 0.82927,0.2961 1.80833,0.25438 1.04707,-0.0447 1.26192,-0.1035 1.91961,-0.52564 1.39909,-0.89812 2.13922,-2.53884 1.99651,-4.42589 -0.0798,-1.05513 -0.0796,-1.05608 0.21073,-0.79337 0.46519,0.42098 0.95202,1.35396 1.12334,2.15281 0.17984,0.83855 -0.0422,1.99438 -0.58909,3.06634 -0.46603,0.91348 -1.71323,2.07232 -2.75506,2.55985 l -0.91643,0.42886 -0.088,0.88731 c -0.16656,1.67987 -0.95495,12.43031 -0.91405,12.46371 0.07,0.0571 9.75763,-11.36854 9.80143,-11.55978 0.0228,-0.0993 -0.31493,-4.30187 -0.75038,-9.33908 -0.43545,-5.03719 -0.79172,-9.19705 -0.79172,-9.2441 0,-0.16888 -0.97138,-0.0816 -1.03681,0.0931 -0.0368,0.0983 -0.28172,1.32497 -0.54427,2.72604 -0.2735,1.45938 -0.51652,2.43609 -0.56903,2.28684 -0.0505,-0.14328 -0.27202,-1.37 -0.49246,-2.72603 l -0.4008,-2.46551 h -0.60643 -0.60644 l -0.38401,2.03672 c -0.2112,1.1202 -0.45409,2.35831 -0.53975,2.75138 l -0.15574,0.71463 -0.38464,-2.22686 c -0.21154,-1.22476 -0.42953,-2.46625 -0.48443,-2.75887 l -0.0999,-0.53203 -0.67066,0.0432 -0.67065,0.0432 -0.52117,2.64418 c -0.28664,1.45428 -0.5343,2.61201 -0.55036,2.5727 -0.0161,-0.0393 -0.23225,-1.22919 -0.48038,-2.64417 l -0.45118,-2.57271 -0.52314,-0.0436 c -0.62646,-0.0522 -0.54566,-0.26967 -1.06526,2.86661 -0.21816,1.31681 -0.43885,2.3459 -0.49042,2.28685 -0.08,-0.0917 -0.99624,-4.76984 -0.99367,-5.07409 4.2e-4,-0.0589 -0.28854,-0.1072 -0.64228,-0.1072 -0.35375,0 -0.64318,0.0384 -0.64318,0.0852 0,0.2524 -0.88284,5.27599 -0.93665,5.32981 -0.0351,0.035 -0.0639,-0.005 -0.0639,-0.0904 0,-0.15625 -0.79072,-4.40415 -0.93271,-5.01068 -0.069,-0.29458 -0.14805,-0.32466 -0.75134,-0.28586 l -0.67427,0.0434 -0.73495,8.28983 c -0.40423,4.55942 -0.77625,8.75081 -0.82671,9.3142 l -0.0918,1.02436 5.1743,5.8003 c 2.84585,3.19017 5.19854,5.77605 5.2282,5.7464 0.0296,-0.0296 -0.14161,-2.65052 -0.3806,-5.82417 z m -0.55326,-13.88387 c -0.70735,-0.2264 -1.31196,-0.8521 -1.31196,-1.35773 0,-0.94787 1.01326,-1.6056 2.47358,-1.6056 2.04539,0 3.17374,1.45567 1.9358,2.49733 -0.72455,0.60968 -2.03336,0.80658 -3.09742,0.466 z m -17.80927,-0.54131 c 2.23735,-0.21596 3.18989,-0.5876 3.69422,-1.44136 0.61318,-1.03804 0.0548,-2.79728 -1.10048,-3.46685 -1.58601,-0.91925 -4.06021,-1.09575 -8.32178,-0.59366 -3.66933,0.43232 -6.62746,0.29748 -10.64817,-0.48537 -0.7468,-0.14539 -1.3817,-0.24173 -1.41091,-0.21409 -0.14608,0.1383 0.77989,1.38537 1.64698,2.21816 3.24848,3.11994 9.38744,4.63496 16.14014,3.98317 z m 44.22855,-0.0551 c 4.02478,-0.53591 7.40731,-1.93746 9.47991,-3.92806 0.8671,-0.83279 1.79305,-2.07987 1.64699,-2.21816 -0.0293,-0.0276 -0.66412,0.0687 -1.41093,0.21411 -4.0207,0.78284 -6.97883,0.91766 -10.64816,0.48535 -2.91704,-0.34368 -5.7361,-0.34888 -6.86055,-0.0126 -1.92297,0.575 -2.7871,1.49462 -2.7871,2.96607 0,1.12779 0.51867,1.78998 1.71513,2.18969 1.44629,0.48319 6.27425,0.64855 8.86471,0.30364 z m 35.83886,-6.84408 c 0.56066,-0.50897 1.19389,-1.62941 1.56965,-2.77729 0.47976,-1.46563 0.61613,-4.80073 0.2642,-6.46162 -0.24011,-1.13326 -0.9833,-2.81445 -1.5378,-3.47873 l -0.33451,-0.40075 -0.002,3.61663 c -0.002,3.77853 -0.20552,6.02608 -0.79434,8.75537 -0.15183,0.70381 -0.27607,1.33831 -0.27607,1.40999 0,0.14907 0.62989,-0.22736 1.11044,-0.6636 z m -121.45606,0.39181 c 0,-0.0459 -0.12356,-0.57649 -0.27456,-1.17916 -0.84404,-3.36869 -1.26944,-9.00244 -0.88406,-11.70821 0.0588,-0.4127 0.0662,-0.75037 0.0164,-0.75037 -0.14359,0 -0.64939,0.73584 -1.05223,1.5308 -1.53566,3.03046 -1.34276,8.0428 0.41119,10.68527 0.5607,0.84473 1.78321,1.81937 1.78321,1.42167 z m 12.53642,-2.35505 c 11.27288,-2.64299 24.41611,-4.38948 37.55995,-4.991 4.03448,-0.18463 16.0985,-0.18614 20.08142,-0.003 13.08092,0.60309 24.96538,2.14468 36.48541,4.73266 l 2.53994,0.5706 0.43582,-0.31034 c 0.5898,-0.41997 1.45816,-1.54096 1.90182,-2.45506 0.67298,-1.38667 0.84325,-2.4031 0.76024,-4.53838 -0.084,-2.16148 -0.41168,-3.58923 -1.31997,-5.75181 -0.60727,-1.44582 -0.14603,-1.21285 -4.14214,-2.0922 -10.03899,-2.20913 -19.71367,-3.63757 -29.58617,-4.36832 -4.2107,-0.31166 -4.89923,-0.34506 -9.3618,-0.45407 -2.2404,-0.0548 -4.21813,-0.13805 -4.39496,-0.18517 -0.23303,-0.062 0.69096,-0.45964 3.35883,-1.44512 l 3.68031,-1.35946 -0.0376,-0.78376 c -0.0899,-1.87252 -4.1862,-62.447152 -4.2609,-63.008537 -0.10307,-0.774309 -0.94407,-1.741987 -1.96257,-2.2581 -1.68346,-0.853079 -4.49794,-1.160184 -6.30912,-0.688444 -1.93505,0.504019 -3.96935,2.022319 -4.13788,3.088322 -0.0582,0.36765 -4.1034,60.210819 -4.26755,63.131269 l -0.0349,0.61949 3.54835,1.30287 c 2.37377,0.87157 3.46196,1.3338 3.28735,1.39634 -0.14355,0.0514 -1.96542,0.13704 -4.0486,0.19029 -12.74407,0.32577 -26.61613,2.0272 -39.30528,4.82084 -3.26475,0.71878 -2.87585,0.48143 -3.54497,2.16359 -1.85739,4.66937 -1.87285,8.24836 -0.0478,11.06182 0.46232,0.71269 1.59086,1.90868 1.80103,1.90868 0.036,0 0.63078,-0.13252 1.32167,-0.2945 z m 5.03938,-4.78459 c -1.83088,-0.5644 -3.2255,-3.15909 -2.71566,-5.0525 0.19968,-0.74151 0.88593,-1.50711 1.61829,-1.80539 l 0.54193,-0.22072 -0.25231,0.46891 c -0.36692,0.68196 -0.35257,2.31256 0.026,2.95502 1.02449,1.73854 3.28617,1.94329 4.57832,0.41447 0.21885,-0.25893 0.52241,-0.75097 0.67457,-1.09342 0.36821,-0.8287 0.581,-0.60411 0.65415,0.69047 0.0696,1.23187 -0.26721,2.01969 -1.22325,2.86125 -1.05349,0.92731 -2.49401,1.21597 -3.90206,0.78191 z m 82.64624,-0.0512 c -1.62637,-0.56175 -2.5345,-1.79967 -2.52536,-3.44243 0.003,-0.51818 0.0933,-1.09065 0.20352,-1.28932 l 0.19834,-0.35732 0.0964,0.35824 c 0.26125,0.97083 1.12328,2.01648 1.95749,2.37444 1.271,0.54539 2.85604,-0.0339 3.45001,-1.26085 0.36374,-0.75138 0.40938,-2.02076 0.0993,-2.76278 -0.18949,-0.45353 -0.18624,-0.49566 0.0384,-0.49566 0.44761,0 1.27733,0.69524 1.58281,1.32626 0.94817,1.95868 -0.41985,4.96059 -2.54764,5.59038 -0.99391,0.29419 -1.6116,0.28428 -2.5532,-0.0409 z m -63.70387,-2.3489 c -0.79092,-0.31011 -1.28244,-0.64071 -1.87884,-1.26369 -1.22325,-1.27778 -1.65298,-2.94899 -1.06866,-4.15604 0.16822,-0.3475 0.46608,-0.78232 0.66191,-0.9663 l 0.35606,-0.3345 9.4e-4,0.7753 c 9.3e-4,1.05081 0.20914,1.7242 0.75736,2.45108 1.21127,1.60605 3.54733,1.67084 4.82113,0.13371 0.55469,-0.66937 0.90514,-1.85449 0.81764,-2.76506 l -0.0672,-0.69957 0.35631,0.32731 c 0.92034,0.84544 1.19086,2.71746 0.59343,4.10626 -0.39516,0.91856 -1.59069,2.03798 -2.51173,2.3518 -0.77649,0.26459 -2.21336,0.28468 -2.83819,0.0396 z m 22.79708,-0.006 c -1.71202,-0.47132 -3.13524,-1.66802 -3.95399,-3.32467 -0.46053,-0.93182 -0.52443,-1.18948 -0.52443,-2.11446 0,-0.85066 0.0732,-1.20299 0.38055,-1.83116 0.20931,-0.42781 0.4963,-0.88259 0.63775,-1.01061 0.24578,-0.22242 0.25737,-0.17735 0.26062,1.01356 0.003,0.94216 0.0806,1.44329 0.31985,2.05343 0.98171,2.50381 3.61341,3.57101 5.95878,2.4164 0.98783,-0.48631 1.58794,-1.12701 2.10503,-2.24739 0.26347,-0.57089 0.31858,-0.94215 0.31858,-2.14663 v -1.45636 l 0.33549,0.31292 c 0.80495,0.75082 1.25262,2.31449 1.01753,3.5541 -0.44409,2.34168 -2.38395,4.33771 -4.68315,4.81875 -0.93552,0.19574 -1.35028,0.1885 -2.17261,-0.0378 z m 21.64281,-0.0889 c -2.50835,-0.99495 -3.51374,-3.86422 -2.11613,-6.03924 0.18943,-0.29478 0.40781,-0.53598 0.4853,-0.53598 0.0776,0 0.1409,0.36237 0.1409,0.80526 0,1.09397 0.23651,1.80128 0.83681,2.50259 1.28216,1.49793 3.27382,1.5016 4.6227,0.009 0.61807,-0.68412 0.87728,-1.40772 0.89069,-2.48636 l 0.01,-0.81367 0.47031,0.45426 c 1.26633,1.22313 0.99963,3.42678 -0.60947,5.03589 -0.91734,0.91733 -1.6624,1.24936 -2.93381,1.30748 -0.82468,0.0377 -1.2393,-0.0175 -1.79741,-0.23877 z m -61.87241,-2.87913 c -0.67539,-0.15634 -1.21962,-0.62571 -1.21962,-1.05186 0,-0.16912 0.16394,-0.46149 0.36428,-0.64972 0.29268,-0.27496 0.55253,-0.35252 1.32208,-0.3946 0.82318,-0.045 1.02813,-0.004 1.45806,0.28649 0.27842,0.18859 0.52132,0.48551 0.54775,0.66953 0.0618,0.43016 -0.45351,0.97641 -1.03021,1.09206 -0.24561,0.0492 -0.54305,0.10975 -0.66096,0.13444 -0.11791,0.0246 -0.46954,-0.0141 -0.78138,-0.0864 z m 81.08366,0.0225 c -1.13288,-0.20842 -1.64445,-1.02975 -1.02635,-1.64784 0.76294,-0.76295 2.88828,-0.6216 3.33984,0.22213 0.4579,0.85562 -0.89163,1.6873 -2.31349,1.42571 z m -63.36195,-2.39629 c -1.96058,-0.68988 -1.07527,-2.43796 1.16251,-2.29547 1.31662,0.0838 2.10202,0.72248 1.83016,1.48816 -0.2878,0.81062 -1.81357,1.22222 -2.99267,0.80731 z m 45.10811,0.1098 c -0.82645,-0.20037 -1.23244,-0.60152 -1.23244,-1.21766 0,-0.78163 0.50246,-1.12005 1.75543,-1.18233 1.1092,-0.0552 1.82023,0.22484 2.16926,0.85419 0.1972,0.35558 0.19069,0.41849 -0.0814,0.78611 -0.50065,0.67639 -1.61593,1.00092 -2.61083,0.75969 z m -22.74188,-1.42642 c -1.92606,-0.6648 -2.11737,-2.26593 -0.38081,-3.18731 0.84584,-0.44878 2.62886,-0.44878 3.4747,0 1.78118,0.94504 1.50955,2.63646 -0.5202,3.23923 -0.99236,0.2947 -1.60527,0.28233 -2.57369,-0.052 z m 0.14166,-13.81354 c -0.787,-0.14484 -2.11405,-0.69266 -2.84125,-1.17289 -2.18835,-1.44517 -3.23262,-4.33342 -2.47206,-6.83735 0.26738,-0.8803 1.12289,-2.19325 1.42965,-2.19408 0.0529,-1.4e-4 0.0746,0.37927 0.0483,0.84313 -0.12617,2.23072 1.09026,4.39045 2.97772,5.28682 0.64648,0.30701 0.9892,0.37286 1.92954,0.37068 0.96346,-0.002 1.26012,-0.0637 1.88485,-0.39082 1.00392,-0.52559 1.71261,-1.28156 2.2437,-2.3934 0.38185,-0.79944 0.45382,-1.13533 0.51591,-2.40782 l 0.0722,-1.47878 0.38678,0.30505 c 0.21272,0.16777 0.59862,0.73574 0.85757,1.26213 0.44604,0.90673 0.4708,1.03991 0.4708,2.53155 0,1.42258 -0.0384,1.65624 -0.39693,2.42205 -0.77067,1.64564 -2.08573,2.85227 -3.77802,3.46654 -0.90198,0.32741 -2.58802,0.52351 -3.32879,0.38719 z m -0.40078,-7.3308 c -3.06076,-1.05717 -2.11029,-4.45968 1.25834,-4.50455 1.1982,-0.016 2.11797,0.33775 2.77801,1.06835 0.43364,0.47997 0.50921,0.66461 0.5084,1.24226 -0.002,1.07317 -0.61794,1.79845 -1.89786,2.23295 -0.88263,0.29963 -1.70138,0.28757 -2.64689,-0.039 z m 0.18637,-11.22156 c -1.00033,-0.24787 -1.85708,-0.71989 -2.64594,-1.45778 -1.77555,-1.660798 -2.06925,-4.790438 -0.59753,-6.367098 l 0.52784,-0.56546 0.005,0.97279 c 0.007,1.26991 0.36801,2.28986 1.10398,3.12596 1.85533,2.107758 4.8974,1.68365 6.21747,-0.86683 0.29092,-0.5621 0.38351,-0.98285 0.43379,-1.97125 0.0427,-0.84134 0.11707,-1.23993 0.22479,-1.20612 0.27222,0.0854 1.077,1.38383 1.24676,2.01146 0.22215,0.82138 0.0828,2.45478 -0.27962,3.27993 -0.64452,1.467018 -2.27018,2.723398 -3.99343,3.086288 -0.92357,0.1945 -1.31999,0.18709 -2.2441,-0.0419 z m -0.31174,-6.526408 c -1.17597,-0.5821 -1.45933,-1.76523 -0.62817,-2.62277 1.12324,-1.15888 3.65783,-1.02743 4.44622,0.23059 0.35173,0.56123 0.30657,1.40504 -0.0996,1.86193 -0.73128,0.82248 -2.59197,1.08782 -3.71841,0.53025 z m 0.49241,-12.12956 c -1.75069,-0.56546 -3.30026,-2.75198 -3.04038,-4.29016 0.0934,-0.55265 0.80913,-1.72203 1.05401,-1.72203 0.0672,0 0.15859,0.35413 0.20327,0.78695 0.15565,1.50816 1.21038,2.75302 2.45101,2.89287 0.85657,0.0965 1.79426,-0.26187 2.35451,-0.89998 0.46563,-0.5303 0.87038,-1.67922 0.87038,-2.47062 v -0.49646 l 0.30604,0.27228 c 0.47346,0.42123 0.83079,1.34132 0.83425,2.14812 0.01,2.12138 -1.55324,3.75105 -3.69877,3.85822 -0.51879,0.0259 -1.11923,-0.01 -1.33432,-0.0792 z m 0.29873,-4.46542 c -1.60218,-0.42688 -1.52813,-2.12433 0.11069,-2.537 2.30169,-0.57957 3.5265,1.91793 1.25051,2.54989 -0.63183,0.17543 -0.65516,0.17522 -1.3612,-0.013 z M 174.299,69.786107 c -0.6643,-0.223172 -1.87506,-1.351706 -2.18707,-2.038557 -0.48159,-1.060133 -0.22426,-2.380293 0.56629,-2.9052 0.29344,-0.19484 0.30992,-0.18405 0.31289,0.204816 0.008,0.944203 0.94664,2.214226 1.79542,2.427254 1.28589,0.322734 2.76974,-1.04897 2.77435,-2.564663 0.002,-0.742829 0.93932,0.465787 1.07797,1.39036 0.1913,1.275665 -0.55402,2.66638 -1.73547,3.238312 -0.77722,0.376247 -1.90298,0.48331 -2.60438,0.247678 z m 0.18972,-4.56496 c -0.72913,-0.398812 -0.84754,-1.082737 -0.26657,-1.539731 0.70034,-0.550885 2.20011,-0.27121 2.38746,0.445219 0.22724,0.868978 -1.1931,1.601962 -2.12089,1.094512 z m 56.88323,60.022143 c -1.77928,-12.20006 -6.96384,-24.47958 -14.60644,-34.595058 -2.84297,-3.76288 -6.84923,-8.02936 -10.32948,-11.00045 -0.98106,-0.83754 -1.80827,-1.49828 -1.83823,-1.46833 -0.03,0.03 0.68038,0.87808 1.57855,1.88473 4.09413,4.58868 6.7428,8.00158 9.90604,12.76431 6.77844,10.205918 11.03214,19.586808 15.03368,33.154478 0.48554,1.64629 0.56877,1.4057 0.25588,-0.73968 z m -24.73589,1.3771 c 2.80688,-1.69251 4.71239,-3.78888 5.65171,-6.21782 1.35509,-3.50409 1.67706,-9.90754 0.77563,-15.42519 -1.56634,-9.587288 -7.83307,-21.196958 -15.92054,-29.494228 -2.61442,-2.682231 -4.44288,-4.255085 -6.7891,-5.840023 -1.64246,-1.10954 -3.83415,-2.267212 -4.69328,-2.479041 -0.89685,-0.221138 -0.28815,0.489262 2.02388,2.361976 1.28317,1.039378 2.31226,1.905393 2.28684,1.92449 -0.046,0.0345 -2.63154,-0.137493 -3.80471,-0.253105 l -0.61408,-0.06047 0.0423,0.805022 0.0424,0.805032 2.64417,1.972819 2.64417,1.97283 -1.35782,-0.0822 c -0.7468,-0.0453 -1.89729,-0.11703 -2.55666,-0.15954 l -1.19883,-0.0772 0.0912,0.4557 c 0.0501,0.25064 0.0911,0.60532 0.0911,0.78819 0,0.25816 0.29551,0.53681 1.32208,1.24667 0.72715,0.50283 1.99743,1.38088 2.82284,1.95122 l 1.50075,1.03701 -2.68793,-0.102 -2.68792,-0.102 0.0438,0.76515 0.0438,0.76518 2.94914,1.8591 2.94914,1.8591 -2.85026,0.0387 -2.85026,0.0387 0.098,0.67592 c 0.0539,0.37176 0.11986,0.71465 0.1466,0.76196 0.0267,0.0474 1.42989,0.88345 3.11812,1.85807 l 3.0695,1.77204 -1.45692,0.0897 c -0.8013,0.0493 -2.14833,0.0976 -2.99339,0.10718 l -1.53648,0.0176 v 0.68262 0.68262 l 3.35666,1.78289 3.35666,1.7829 -0.74823,0.0929 c -0.41152,0.0511 -1.82598,0.13837 -3.14326,0.19392 -1.31728,0.0556 -2.4224,0.14529 -2.45584,0.19939 -0.0334,0.0541 -0.0253,0.36263 0.018,0.68561 l 0.0788,0.58723 3.49629,1.692278 c 3.0883,1.4948 3.44651,1.70245 3.06978,1.77951 -0.23459,0.048 -1.75432,0.17169 -3.37719,0.27491 l -2.95068,0.18769 0.0425,0.64817 0.0425,0.64816 3.67108,1.64795 c 2.01909,0.90637 3.644,1.67501 3.61092,1.7081 -0.0331,0.0331 -1.60557,0.20129 -3.4944,0.3738 -1.88883,0.1725 -3.46652,0.34592 -3.50598,0.38537 -0.0394,0.0394 -0.0198,0.32146 0.0435,0.62667 l 0.11529,0.55495 3.85322,1.60046 c 2.11927,0.88025 3.75673,1.63179 3.63881,1.6701 -0.11791,0.0384 -1.56506,0.20525 -3.21588,0.37099 -4.44899,0.44665 -4.09676,0.35644 -4.04527,1.03605 l 0.0433,0.57124 4.03508,1.52311 c 2.2193,0.83772 4.03627,1.55705 4.03773,1.59855 0.002,0.0416 -1.71644,0.28794 -3.81756,0.54768 -2.10111,0.25975 -3.86007,0.49692 -3.90884,0.52705 -0.0487,0.0301 -0.0501,0.29077 -0.003,0.5792 l 0.0855,0.52441 3.64467,1.26876 c 2.00458,0.69782 3.9341,1.37763 4.28786,1.51069 l 0.64316,0.24193 -4.14491,0.57831 -4.14493,0.57831 -0.0434,0.59525 -0.0434,0.59525 0.90092,0.0811 c 0.49552,0.0446 2.15513,0.18032 3.68804,0.30166 3.37659,0.26726 11.18407,1.13776 12.00597,1.33861 0.0393,0.01 0.45217,-0.2121 0.9175,-0.49267 z m -57.51712,-0.11856 c 3.57878,-0.40789 9.57159,-0.9403 10.60074,-0.9418 1.0005,-0.002 1.11938,-0.0843 1.11938,-0.78031 v -0.60582 l -3.92413,-0.55253 c -2.15826,-0.30388 -3.88998,-0.58717 -3.84825,-0.62951 0.0418,-0.0423 1.85585,-0.69752 4.03134,-1.45599 l 3.95545,-1.37901 0.12812,-0.58915 c 0.0705,-0.32404 0.0938,-0.62338 0.0521,-0.66523 -0.0418,-0.0418 -1.72351,-0.28005 -3.73706,-0.52935 -2.01354,-0.24932 -3.66098,-0.48802 -3.66098,-0.53047 0,-0.0424 1.07732,-0.48683 2.39405,-0.98751 1.31672,-0.50068 3.0533,-1.16381 3.85906,-1.47362 l 1.46502,-0.56326 v -0.62987 c 0,-0.76221 0.31271,-0.67143 -3.71614,-1.07884 -1.69013,-0.17091 -3.12212,-0.35419 -3.18219,-0.40732 -0.0601,-0.0531 1.50612,-0.76338 3.48046,-1.57838 1.97434,-0.81499 3.62466,-1.5729 3.66738,-1.68423 0.0428,-0.11136 0.0844,-0.43732 0.0927,-0.72441 l 0.0151,-0.52194 -3.24168,-0.28783 c -1.78293,-0.15832 -3.27772,-0.32387 -3.32179,-0.36794 -0.044,-0.044 1.47903,-0.78452 3.38461,-1.6455 l 3.46472,-1.5654 0.0432,-0.74656 0.0432,-0.74658 -0.47198,-0.004 c -0.8397,-0.007 -5.69705,-0.38484 -5.75909,-0.44688 -0.0331,-0.0331 1.41208,-0.79402 3.21143,-1.69098 l 3.27157,-1.630838 0.0956,-0.69528 c 0.0526,-0.3824 0.073,-0.71606 0.0452,-0.74146 -0.0277,-0.0254 -1.36192,-0.11613 -2.9649,-0.20162 -1.60297,-0.0855 -2.94063,-0.18158 -2.97256,-0.2135 -0.0319,-0.0319 1.35999,-0.80996 3.09316,-1.72896 l 3.15124,-1.67089 v -0.77591 -0.77591 l -1.39357,-0.0168 c -0.76645,-0.01 -2.03558,-0.0574 -2.82031,-0.1072 l -1.42675,-0.0904 2.78458,-1.60904 c 1.53151,-0.88497 2.85845,-1.6568 2.94872,-1.71515 0.0903,-0.0583 0.21008,-0.47448 0.2662,-0.92472 l 0.102,-0.81863 -2.68871,-0.0389 -2.68869,-0.0389 2.81556,-1.76538 2.81555,-1.76536 v -0.8572 -0.85721 l -2.42978,0.10382 c -1.33638,0.0571 -2.42978,0.0747 -2.42978,0.039 0,-0.0357 1.15205,-0.8534 2.56011,-1.81723 l 2.56011,-1.75245 0.0991,-0.85398 c 0.0545,-0.46969 0.0762,-0.87338 0.0483,-0.8971 -0.028,-0.0237 -1.04771,0.006 -2.26617,0.0667 -1.21847,0.0604 -2.22879,0.0972 -2.24519,0.0816 -0.0164,-0.0154 1.06095,-0.84593 2.39407,-1.84543 l 2.42383,-1.817256 v -0.857305 -0.856688 l -0.75038,0.01018 c -0.41269,0.0057 -1.32923,0.06197 -2.03673,0.12538 -0.70749,0.06337 -1.30215,0.101968 -1.32144,0.08578 -0.0193,-0.01622 0.96034,-0.828357 2.17696,-1.804792 1.88097,-1.509609 2.21247,-1.834162 2.21475,-2.16839 0.002,-0.216179 -0.0455,-0.392494 -0.10446,-0.391819 -0.0589,5.44e-4 -0.75038,0.326953 -1.53648,0.725044 -10.49147,5.313 -21.80907,20.745566 -25.14781,34.291204 -0.80609,3.27041 -1.00612,5.1439 -1.00715,9.43328 -5.4e-4,2.41485 0.065,4.17612 0.18106,4.85957 0.84831,4.99643 2.40292,7.45584 6.32125,10.00014 1.07102,0.69545 0.48598,0.68624 5.71714,0.09 z m -28.20897,-5.73087 c 2.77529,-8.96422 6.77347,-17.60842 11.94793,-25.831878 3.41711,-5.4306 7.51867,-10.63868 13.17157,-16.72506 1.07692,-1.15951 1.9185,-2.10818 1.87014,-2.10818 -0.13576,0 -1.96445,1.45025 -3.78316,3.00027 -2.01121,1.71408 -5.59802,5.36129 -7.45103,7.57645 -4.05687,4.84975 -7.24462,9.71782 -10.10809,15.436248 -3.66314,7.31538 -5.95832,14.34192 -7.23483,22.14895 -0.5764,3.52516 -0.60818,3.59519 1.58747,-3.4968 z m 111.78209,-14.66882 c 0.48899,-0.23138 1.22379,-0.72847 1.6329,-1.10462 l 0.7438,-0.68394 -1.36082,-2.70533 c -2.86135,-5.688378 -6.30138,-11.039778 -9.91622,-15.425938 -2.0522,-2.49007 -2.46418,-2.7871 -3.86568,-2.7871 -0.9414,0 -1.58166,0.25019 -2.59164,1.01274 l -0.76032,0.57405 1.05175,1.24334 c 4.36117,5.15554 8.70082,11.8125 12.01719,18.434178 l 1.07944,2.15526 0.54025,-0.14599 c 0.29715,-0.0802 0.94035,-0.33529 1.42935,-0.56665 z m -112.73096,-0.6409 c 2.63899,-5.712058 7.81476,-13.762358 12.21119,-18.993058 l 1.08118,-1.28636 -0.46429,-0.39786 c -0.82837,-0.70982 -1.79506,-1.10289 -2.71235,-1.10289 -1.17772,0 -1.64294,0.24701 -2.7256,1.4471 -3.6818,4.08126 -8.02202,10.65467 -11.05024,16.735948 l -1.11868,2.24656 0.29666,0.39762 c 0.56701,0.75995 2.94071,2.14395 3.73342,2.17677 0.0989,0.004 0.43585,-0.54662 0.74871,-1.22383 z M 108.24144,103.2351 C 99.91663,95.787272 94.82609,89.902972 91.1566,83.486222 c -2.50889,-4.38727 -4.40626,-9.96878 -5.15685,-15.170002 -0.2631,-1.8231 -0.35567,-6.709305 -0.1733,-9.147414 0.0959,-1.281375 0.0955,-1.283588 -0.10607,-0.571716 -0.8419,2.973198 -1.16654,8.340592 -0.7132,11.791586 0.45775,3.484476 1.2177,6.436576 2.46524,9.576236 3.65351,9.19467 10.52187,17.24844 19.3875,22.733578 1.72892,1.06969 2.16808,1.24025 1.38158,0.53661 z m 134.09484,-0.0689 c 6.6371,-3.866248 12.83475,-9.974688 16.79683,-16.555108 5.12038,-8.50417 7.03565,-17.747849 5.46286,-26.365509 -0.40676,-2.228673 -0.56844,-2.61692 -0.44848,-1.076775 0.19917,2.556534 0.10766,7.892458 -0.16419,9.576198 -1.87358,11.603346 -8.07804,21.403276 -21.2463,33.558534 -0.82541,0.7619 -1.45596,1.38578 -1.40122,1.38639 0.0548,6e-4 0.50499,-0.23507 1.0005,-0.52373 z m -1.25812,-9.830198 c 5.35159,-3.29622 9.45567,-6.72839 12.40264,-10.37209 2.52819,-3.1259 4.95808,-7.33597 6.15075,-10.656799 1.99231,-5.54731 2.06162,-13.105858 0.17216,-18.775447 -0.90367,-2.711597 -2.71783,-5.819757 -4.84635,-8.303176 -1.91002,-2.228494 -5.04886,-4.750182 -6.84895,-5.5023 l -0.53894,-0.225188 0.99746,1.186743 c 3.20629,3.814717 5.58406,8.821971 6.38134,13.438231 1.09217,6.323607 -0.95147,12.262605 -6.18246,17.966749 -4.50437,4.911827 -11.9051,9.451867 -19.46408,11.940397 -0.90403,0.29762 -1.69131,0.58397 -1.74954,0.63634 -0.0582,0.0524 0.44854,0.83223 1.12613,1.73306 1.5714,2.08909 4.26466,6.15461 5.55444,8.38451 l 1.0005,1.72978 1.92953,-0.97883 c 1.06124,-0.53836 2.82316,-1.52925 3.91537,-2.20198 z m -124.7024,0.70103 c 1.68706,-2.79079 3.31151,-5.19778 5.07548,-7.52043 l 1.33653,-1.75985 -2.3064,-0.80047 c -2.99881,-1.04079 -4.39533,-1.63057 -7.10222,-2.9994 -10.24648,-5.18145 -16.89082,-12.598089 -18.36686,-20.50172 -0.34774,-1.861979 -0.21807,-5.434033 0.27239,-7.503733 1.12588,-4.751101 3.2367,-8.842445 6.63177,-12.854206 l 0.5364,-0.633825 -0.64318,0.378807 c -2.46372,1.451015 -5.84888,4.516454 -7.61063,6.891835 -2.50324,3.375132 -3.93742,6.749016 -4.6384,10.911761 -0.32003,1.900482 -0.36293,7.838955 -0.0704,9.741386 1.02907,6.691635 5.32683,14.232915 11.15989,19.582135 2.06973,1.89805 6.30919,4.99745 9.23497,6.75154 1.56279,0.93692 4.85749,2.68023 4.98581,2.63811 0.0694,-0.0228 0.7466,-1.06766 1.50482,-2.32194 z"
       id="path20043" /></g></svg>
