<?xml version="1.0" encoding="UTF-8" standalone="no"?>
<!-- Created with Inkscape (http://www.inkscape.org/) -->

<svg
   width="300mm"
   height="300mm"
   viewBox="0 0 300 300"
   version="1.1"
   id="svg5"
   xml:space="preserve"
   inkscape:version="1.2.2 (732a01da63, 2022-12-09)"
   sodipodi:docname="impassable.svg"
   xmlns:inkscape="http://www.inkscape.org/namespaces/inkscape"
   xmlns:sodipodi="http://sodipodi.sourceforge.net/DTD/sodipodi-0.dtd"
   xmlns="http://www.w3.org/2000/svg"
   xmlns:svg="http://www.w3.org/2000/svg"><sodipodi:namedview
     id="namedview7"
     pagecolor="#505050"
     bordercolor="#eeeeee"
     borderopacity="1"
     inkscape:showpageshadow="0"
     inkscape:pageopacity="0"
     inkscape:pagecheckerboard="0"
     inkscape:deskcolor="#505050"
     inkscape:document-units="mm"
     showgrid="false"
     inkscape:zoom="0.50646226"
     inkscape:cx="186.58843"
     inkscape:cy="579.51011"
     inkscape:window-width="1920"
     inkscape:window-height="991"
     inkscape:window-x="-9"
     inkscape:window-y="-9"
     inkscape:window-maximized="1"
     inkscape:current-layer="layer1" /><defs
     id="defs2" /><g
     inkscape:label="Vrstva 1"
     inkscape:groupmode="layer"
     id="layer1"><path
       style="fill:#000000;stroke-width:1.40781"
       d="M 30.571143,285.09423 V 270.18969 L 15.687661,269.8183 0.80423975,269.44689 V 227.25071 185.05446 L 30.571143,184.40532 c 33.591601,-0.7326 41.069141,-3.01541 11.830436,-3.6117 l -17.936454,-0.36539 v -30.42869 -30.4287 l 17.811894,-0.36539 c 12.404384,-0.25501 18.000901,-0.85009 18.434418,-1.96093 0.47538,-1.21776 -6.537862,-1.67856 -29.64233,-1.94753 L 0.80423975,114.94479 0.40211987,72.471217 0,29.997651 14.904247,29.62565 29.808495,29.253651 30.240075,14.626856 30.671655,0 l 42.310384,0.3449999 42.310451,0.34499989 0.24,28.56359121 c 0.2625,31.24229 2.55687,40.209648 3.23904,12.658856 l 0.42582,-17.203075 h 31.24914 31.24914 v 17.527615 c 0,10.595996 0.59231,17.527734 1.49787,17.527734 0.92352,0 1.65515,-11.325236 1.90814,-29.537391 L 185.51186,0.68999979 227.82225,0.3449999 270.13265,0 l 0.43158,14.626856 0.43211,14.626795 14.50182,0.6492 L 300,30.551991 v 42.196247 42.196192 l -29.3853,0.35279 c -24.7249,0.29701 -29.38531,0.65706 -29.38531,2.27208 0,1.58245 3.08218,1.91946 17.55486,1.91946 h 17.55487 v 30.51114 30.51112 h -17.55487 c -14.58664,0 -17.55486,0.32941 -17.55486,1.94748 0,1.47372 1.94979,1.96692 8.01416,2.02722 4.40782,0.042 17.63119,0.19021 29.3853,0.3246 L 300,185.05512 v 42.19619 42.19625 l -14.88348,0.37139 -14.88348,0.37141 v 14.90447 14.90454 l -42.36058,-0.345 -42.36064,-0.345 -0.41022,-29.53733 c -0.25272,-18.21216 -0.98462,-29.53739 -1.90814,-29.53739 -0.82382,0 -1.54888,1.60674 -1.61124,3.57048 -0.0623,1.96374 -0.23424,9.70517 -0.38196,17.20307 l -0.26826,13.63259 -30.91179,0.3516 -30.91185,0.3516 v -17.66273 c 0,-11.43606 -0.54924,-17.50704 -1.558,-17.22101 -0.98399,0.2784 -1.687,11.20116 -1.90814,29.64557 l -0.35022,29.20379 -42.360642,0.34499 -42.360641,0.345 z M 108.4231,266.77144 v -26.69441 l -5.72442,0.4026 -5.72437,0.4026 -0.42174,19.83341 -0.421739,19.83335 L 72.89153,280.1908 49.652222,279.83259 49.220642,265.2262 48.789063,250.61986 H 34.337197 19.885392 V 227.24963 203.8794 h 35.193325 35.193332 l -0.465001,-6.05448 -0.465,-6.05448 -38.926008,0.2088 c -21.409283,0.1146 -39.795647,0.20999 -40.858613,0.2118 -1.5218155,0.002 -1.8463494,7.52508 -1.5265495,35.38343 l 0.4061999,35.37989 13.7385866,0.138 13.738578,0.138 0.429841,15.1179 0.430379,15.11789 h 35.824508 35.82451 z m 155.70393,11.11434 0.76324,-14.931 9.15906,0.3882 c 5.03751,0.21359 11.39161,0.0419 14.12024,-0.38341 l 4.96111,-0.77171 V 227.19137 192.19488 L 280.537,192.0917 c -6.92656,-0.054 -18.77604,-0.2796 -26.33227,-0.4956 -7.55624,-0.216 -20.43614,-0.081 -28.62206,0.2994 l -14.88348,0.69156 v 5.64648 5.64642 h 35.10974 35.10971 v 23.32319 23.3232 l -14.88348,0.37139 -14.88347,0.37141 -0.0522,14.28173 -0.0521,14.2818 -23.22741,0.3582 -23.22731,0.35819 v -20.15815 -20.15819 h -5.99408 c -4.34956,0 -6.12957,0.58679 -6.48767,2.13929 -0.27174,1.17661 -0.2931,13.16455 -0.0463,26.63988 l 0.44538,24.50057 35.42734,-0.34861 35.42733,-0.34859 z m -89.96765,-32.78321 c 0.0522,-13.03218 0.22446,-27.49248 0.38136,-32.13407 l 0.2856,-8.43924 4.96112,-0.40681 c 4.77984,-0.39179 4.96118,-0.61734 4.96118,-6.16709 v -5.7603 h -11.42219 -11.42214 l -0.40848,32.13407 -0.40848,32.13396 h -10.6856 -10.68555 l -0.40788,-32.0322 -0.40788,-32.03225 -11.57282,-0.4266 c -6.36508,-0.2346 -11.7416,-0.1344 -11.94792,0.2226 -0.20652,0.357 -0.0704,3.0996 0.30234,6.09449 0.62398,5.01349 1.05916,5.47693 5.48667,5.84256 l 4.80898,0.39721 0.40848,32.13406 0.40848,32.13402 h 23.63422 23.63424 l 0.0964,-23.69478 z m -55.05073,-17.95842 v -6.38556 H 99.264048 79.419449 v -5.19336 -5.19335 H 73.313371 67.20736 v 10.8195 c 0,5.95072 0.478319,11.22647 1.063139,11.72375 0.584699,0.4974 12.26246,0.83904 25.950616,0.75948 L 119.10865,233.53 Z m 36.33822,-0.2184 0.465,-6.16716 h -5.42643 c -5.38269,0 -5.42643,0.042 -5.42643,5.6262 0,6.61061 0.85054,7.60794 6.0489,7.0923 3.4618,-0.3438 3.92284,-1.03957 4.33865,-6.55134 z m 78.14995,-4.79214 c 0,-6.38471 -0.51522,-11.86554 -1.14483,-12.1797 -0.62969,-0.31379 -3.3774,-0.282 -6.10608,0.0708 -4.61668,0.5976 -4.96112,0.99228 -4.96112,5.688 v 5.04606 h -19.66667 -19.66666 l -0.78772,3.50472 c -0.43326,1.92761 -0.18689,4.84883 0.54751,6.49169 1.31902,2.95074 1.64107,2.98699 26.56039,2.98699 H 233.5968 Z M 204.59317,194.08848 V 174.1827 l 4.96118,-0.40679 c 4.79132,-0.39301 4.96113,-0.60678 4.96113,-6.24936 v -5.84256 l -11.06721,-0.3816 -11.06719,-0.381 v 27.03185 27.03186 l 6.10607,-0.49501 6.10602,-0.495 z m -96.17007,-6.49452 v -26.67293 l -11.067196,0.381 -11.067195,0.381 -0.464999,6.16715 -0.465001,6.16711 h 5.426435 5.426368 l 0.19674,13.9572 c 0.108476,7.67651 0.04621,16.73242 -0.14022,20.12434 l -0.3375,6.16722 h 6.246388 6.24633 z m 125.72609,-6.11027 c 0.49099,-2.3208 0.6197,-5.38812 0.28674,-6.81636 -0.33287,-1.42812 -0.65801,-15.3042 -0.72222,-30.83567 l -0.11652,-28.239 h -6.10602 -6.10602 v 34.32389 34.3239 l 4.96112,0.52379 c 2.72869,0.288 5.39995,0.61716 5.93617,0.73146 0.53658,0.1146 1.37648,-1.69104 1.86713,-4.01183 z m -155.16453,-31.16028 -0.32826,-34.0816 -5.724424,-0.4026 -5.724419,-0.4032 v 34.48451 34.48456 h 6.052877 6.052882 z m -18.572886,18.23652 c 0.265379,-6.60864 -0.557881,-7.29936 -9.26227,-7.7664 l -7.603029,-0.408 -0.467341,-7.73598 c -0.753263,-12.47058 -0.07902,-13.48649 9.253906,-13.94369 l 8.005041,-0.39181 v -5.84249 -5.84262 H 45.8362 31.334373 l -0.415981,23.74217 -0.415979,23.74218 14.858322,-0.37201 14.858324,-0.37199 z M 269.46979,149.99881 v -23.37023 l -14.12016,-0.3732 -14.12024,-0.37319 v 6.47255 6.47262 l 8.01416,0.39239 c 7.71731,0.37801 8.02379,0.53701 8.2728,4.28748 0.1425,2.14231 -0.10443,6.933 -0.5481,10.64599 l -0.80651,6.75094 -7.08464,0.39001 -7.08465,0.39 -0.83911,6.21102 -0.83916,6.21101 14.57774,-0.3684 14.5777,-0.3684 z M 108.4231,112.26843 V 85.573954 l -5.72442,0.402599 -5.72437,0.4026 -0.4206,19.719957 -0.420599,19.72001 -4.921949,0.4044 c -4.351229,0.357 -4.978601,0.90786 -5.411081,4.74756 -0.832133,7.38839 0.06462,7.99104 11.890095,7.99104 h 10.733494 z m 106.09238,20.20277 c 0,-5.64264 -0.16963,-5.85654 -4.96113,-6.24942 l -4.96118,-0.4068 V 105.77289 85.730853 h -6.10602 -6.10607 v 26.672997 26.67293 l 11.06719,-0.381 11.06721,-0.381 z m -132.424646,-24.58421 8.014162,-0.0846 v -5.8425 -5.84256 H 54.995263 19.885596 V 72.747097 49.376865 h 14.453365 14.45342 l 0.42984,-14.987516 0.429839,-14.987515 22.897637,-0.08221 22.897638,-0.0822 0.763241,19.766574 0.763308,19.766514 5.724366,0.434999 5.72442,0.435001 V 33.08651 6.5324979 H 72.549667 36.676693 V 21.463494 36.394428 H 22.174871 7.6730437 v 35.48807 c 0,19.518474 0.2867399,35.731612 0.6374097,36.029092 0.5249998,0.4458 30.0811646,0.4362 73.7799196,-0.024 z m 56.507016,-32.472293 0.40788,-32.52935 h 11.39639 11.39641 l 0.40788,32.64665 0.40788,32.646653 11.06777,0.1362 11.06778,0.1362 -5.8e-4,-6.08484 c -5.9e-4,-5.91594 -0.13847,-6.09618 -4.96175,-6.491759 l -4.96113,-0.406801 -0.7633,-32.45861 -0.76324,-32.458669 H 150.4022 127.50456 l -0.76325,32.458669 -0.76323,32.45861 -4.96118,0.406801 c -4.82952,0.395999 -4.96113,0.569399 -4.96113,6.540239 v 6.13338 l 11.0672,-0.3024 11.0672,-0.3024 z m 154.53225,-2.991959 5.8e-4,-36.02909 H 278.67887 264.22701 L 263.79543,21.787253 263.36385,7.1808578 227.8408,6.8322579 l -35.523,-0.3486 0.4131,26.2931321 0.4131,26.293012 5.34278,0.024 5.34276,0.024 0.41826,-20.124414 0.41833,-20.124293 h 22.86076 c 14.05308,0 22.95897,0.500399 23.11555,1.298338 0.14022,0.71412 0.3306,7.433038 0.42288,14.930936 l 0.16789,13.632656 14.84227,0.371399 14.84229,0.371401 V 72.797017 96.12021 h -35.10973 -35.10973 v 5.62614 c 0,3.09438 0.2856,5.86961 0.63528,6.16715 0.34962,0.2976 18.89621,0.5412 41.21516,0.5412 h 40.57984 z m -213.710651,11.548556 0.763243,-5.005318 19.081356,-0.187801 19.081362,-0.187799 0.46499,-6.167098 0.46561,-6.167159 H 93.241669 67.207395 v 11.763477 11.763476 l 5.724424,-0.4026 c 5.386913,-0.379199 5.769371,-0.69804 6.487672,-5.408218 z M 233.59682,77.940696 V 66.25558 h -25.95061 -25.95067 v 6.319617 6.319558 l 19.463,-0.152399 19.463,-0.1524 0.46908,5.518018 c 0.46734,5.491078 0.49849,5.517959 6.48767,5.517959 h 6.01826 z m -77.85195,-5.919118 c 0,-5.724058 -0.0403,-5.765938 -5.34278,-5.765938 -5.30262,0 -5.34277,0.042 -5.34277,5.756338 0,5.303158 0.3306,5.792278 4.19788,6.213477 6.01849,0.655441 6.48767,0.206401 6.48767,-6.203877 z"
       id="path302" /></g></svg>
