<?xml version="1.0" encoding="UTF-8" standalone="no"?>
<!-- Created with Inkscape (http://www.inkscape.org/) -->

<svg
   width="350mm"
   height="350mm"
   viewBox="0 0 350 350"
   version="1.1"
   id="svg31738"
   xml:space="preserve"
   inkscape:version="1.2.2 (732a01da63, 2022-12-09)"
   sodipodi:docname="spectator.svg"
   xmlns:inkscape="http://www.inkscape.org/namespaces/inkscape"
   xmlns:sodipodi="http://sodipodi.sourceforge.net/DTD/sodipodi-0.dtd"
   xmlns="http://www.w3.org/2000/svg"
   xmlns:svg="http://www.w3.org/2000/svg"><sodipodi:namedview
     id="namedview31740"
     pagecolor="#505050"
     bordercolor="#eeeeee"
     borderopacity="1"
     inkscape:showpageshadow="0"
     inkscape:pageopacity="0"
     inkscape:pagecheckerboard="0"
     inkscape:deskcolor="#505050"
     inkscape:document-units="mm"
     showgrid="false"
     inkscape:zoom="0.25323113"
     inkscape:cx="266.55491"
     inkscape:cy="404.76856"
     inkscape:window-width="1920"
     inkscape:window-height="991"
     inkscape:window-x="-9"
     inkscape:window-y="-9"
     inkscape:window-maximized="1"
     inkscape:current-layer="layer1" /><defs
     id="defs31735" /><g
     inkscape:label="Vrstva 1"
     inkscape:groupmode="layer"
     id="layer1"><circle
       style="fill:#a0a0a0;fill-opacity:1;stroke-width:0.305035"
       id="path340"
       cx="175"
       cy="175.00018"
       r="175" /><path
       id="path340-9"
       style="fill:#000000;fill-opacity:1;stroke-width:0.305035"
       d="M 174.99983,1.7499992e-4 A 175,175 0 0 0 -3.4000008e-4,175.00034 175,175 0 0 0 174.99983,350 175,175 0 0 0 350,175.00034 175,175 0 0 0 174.99983,1.7499992e-4 Z m 0,15.00012000008 A 160,160 0 0 1 334.99988,175.00034 160,160 0 0 1 174.99983,335.0004 160,160 0 0 1 14.99978,175.00034 160,160 0 0 1 174.99983,15.000295 Z" /><path
       style="fill:#000000;stroke-width:2.11267"
       d="m 149.91453,239.14534 c -22.65569,-2.44315 -58.151435,-14.24127 -78.435685,-26.07068 -19.09928,-11.1384 -46.47885,-33.84847 -46.47885,-38.55207 0,-6.85161 32.48895,-32.65064 55.98593,-44.45746 6.9718,-3.50323 22.183055,-9.53831 33.802795,-13.41131 20.75935,-6.91941 21.7882,-7.04318 59.15491,-7.11959 35.67397,-0.0719 39.25561,0.28905 57.8548,5.85158 32.0493,9.58446 61.14292,25.81061 85.1221,47.47441 4.44377,4.01458 8.07946,8.89209 8.07946,10.83889 0,6.73504 -25.80917,28.5357 -48.5915,41.04464 -37.88716,20.8023 -81.62607,29.23989 -126.49396,24.40159 z m -8.73981,-14.01976 c -0.016,-0.87148 -3.43727,-4.90298 -7.61075,-8.959 -12.99713,-12.63095 -16.61086,-21.82318 -16.61893,-42.27344 -0.008,-20.4239 2.30749,-26.28267 16.50882,-41.76974 l 8.79962,-9.59644 -8.97832,1.41222 c -22.40097,3.52342 -52.271505,17.26475 -76.369105,35.13196 -9.41454,6.98049 -17.11735,13.55791 -17.11735,14.61655 0,1.05856 4.51587,5.68934 10.0352,10.29049 20.86427,17.3933 48.23745,31.6376 74.471895,38.75304 16.08937,4.36392 16.90846,4.4801 16.87892,2.39436 z m 90.86757,-4.05339 c 25.33431,-6.8818 77.90038,-38.16687 78.10735,-46.4862 0.0319,-1.36198 -3.97888,-5.96792 -8.91723,-10.23562 -20.05357,-17.32983 -62.00202,-37.64578 -83.50756,-40.44313 l -9.97835,-1.29795 8.61565,8.21233 c 24.95454,23.78627 25.23801,59.72367 0.68111,86.36463 l -9.03733,9.80428 6.20819,-1.38099 c 3.41451,-0.75936 11.43704,-2.80135 17.82793,-4.53735 z m -36.97185,-2.52898 c 11.29147,-5.14253 23.50217,-19.07581 26.52742,-30.26971 5.95698,-22.04212 -2.40826,-43.29015 -21.75116,-55.24892 -17.09571,-10.56956 -35.39818,-9.67597 -52.60384,2.56811 -10.32043,7.34444 -15.92616,16.00544 -19.01209,29.37435 -2.21007,9.5748 -2.04781,12.77132 1.16556,22.96551 4.2843,13.59128 17.61033,28.20584 29.05935,31.86916 11.08091,3.54546 27.28981,2.98836 36.61476,-1.2585 z m -29.20651,-18.13463 c -4.44385,-1.5874 -8.30743,-3.21153 -8.58579,-3.60926 -0.27787,-0.39765 -2.58432,-3.4657 -5.12448,-6.81784 -3.31581,-4.37574 -4.61847,-9.06329 -4.61847,-16.61965 0,-11.65335 -0.10061,-11.62085 15.3169,-4.95169 10.00463,4.32767 10.00463,2.68948 0,-6.52815 l -7.92255,-7.29941 4.98762,-4.0771 c 6.75181,-5.51934 21.90702,-5.42695 30.99354,0.18924 8.65916,5.35165 14.33828,18.52741 12.41183,28.79593 -1.63579,8.71953 -13.31245,21.86774 -19.42035,21.86774 -2.38215,0 -5.59735,0.43597 -7.14491,0.96833 -1.54748,0.53259 -6.4495,-0.33058 -10.89334,-1.91774 z"
       id="path32234"
       sodipodi:nodetypes="sssssccssssccsscssssscsccscssccssssssssssccsssscscssccc" /></g></svg>
