<?xml version="1.0" encoding="UTF-8" standalone="no"?>
<!-- Created with Inkscape (http://www.inkscape.org/) -->

<svg
   width="350mm"
   height="350mm"
   viewBox="0 0 350 350"
   version="1.1"
   id="svg5"
   xml:space="preserve"
   inkscape:version="1.2.2 (732a01da63, 2022-12-09)"
   sodipodi:docname="throne.svg"
   xmlns:inkscape="http://www.inkscape.org/namespaces/inkscape"
   xmlns:sodipodi="http://sodipodi.sourceforge.net/DTD/sodipodi-0.dtd"
   xmlns="http://www.w3.org/2000/svg"
   xmlns:svg="http://www.w3.org/2000/svg"><sodipodi:namedview
     id="namedview7"
     pagecolor="#505050"
     bordercolor="#eeeeee"
     borderopacity="1"
     inkscape:showpageshadow="0"
     inkscape:pageopacity="0"
     inkscape:pagecheckerboard="0"
     inkscape:deskcolor="#505050"
     inkscape:document-units="mm"
     showgrid="false"
     inkscape:zoom="0.35812289"
     inkscape:cx="242.93337"
     inkscape:cy="478.88589"
     inkscape:window-width="1920"
     inkscape:window-height="991"
     inkscape:window-x="-9"
     inkscape:window-y="-9"
     inkscape:window-maximized="1"
     inkscape:current-layer="layer1" /><defs
     id="defs2" /><g
     inkscape:label="Vrstva 1"
     inkscape:groupmode="layer"
     id="layer1"><path
       style="fill:#ffffff;stroke-width:0.510485;fill-opacity:1"
       d="m 143.02699,331.64314 v -18.35719 h 14.06911 14.06911 l -0.14297,-6.50151 -0.14298,-6.5015 -20.82528,-0.13339 -20.82524,-0.1334 v 3.57518 3.57517 h 3.83285 3.83289 v 3.05952 3.05954 h -3.83289 -3.83285 v 2.29466 2.29463 h 3.85726 3.85723 l -0.15245,3.18702 -0.15246,3.18703 -3.7051,0.15 -3.70508,0.15 v 5.07687 5.07688 h -3.57736 -3.57735 v -5.07777 -5.07776 l -3.96062,-0.14903 -3.96064,-0.14922 -0.15226,-3.18704 -0.15246,-3.18702 h 4.11279 4.11277 v -2.29462 -2.29467 h -4.08839 -4.08837 v -3.03808 -3.0381 l 3.96062,-0.14884 3.96064,-0.14903 v -3.31449 -3.3145 l -8.04905,-0.14073 -8.04904,-0.14073 v 16.33044 16.33048 h 3.8329 3.83285 v 3.05953 3.05953 h -3.83285 -3.8329 v 2.29464 2.29465 h 3.8329 3.83285 v 3.05953 3.05956 H 101.88659 90.38796 v -3.05956 -3.05953 h 3.83289 3.83285 v -2.29465 -2.29464 h -3.83285 -3.83289 v -3.05953 -3.05953 h 3.83289 3.83285 v -19.37668 -19.37704 h 36.30052 c 28.56994,0 36.35239,-0.1359 36.5439,-0.63741 0.13408,-0.35057 0.184,-24.90374 0.11183,-54.56263 l -0.13195,-53.92528 -51.30764,51.19642 -51.30759,51.19638 1.66482,0.85903 c 2.36996,1.22284 6.68866,1.16002 8.87847,-0.12935 l 1.76149,-1.03699 1.92527,1.9673 c 2.22099,2.26951 2.04094,2.82678 -1.52532,4.721 -1.65956,0.88149 -2.95373,1.10471 -6.42228,1.10768 -3.72253,0.004 -4.8058,-0.2087 -7.57278,-1.48137 l -3.2289,-1.48517 -2.12859,2.12388 -2.12859,2.12389 4.97337,4.98107 4.97334,4.98109 -2.16279,2.15807 -2.16282,2.15802 -4.99251,-4.96277 -4.99247,-4.96279 -2.33784,2.33267 -2.33783,2.33268 9.09825,8.76114 9.09827,8.76113 -13.13806,13.10909 -13.13804,13.10907 -2.57167,-2.52743 -2.57169,-2.52743 10.22836,-10.21488 c 5.62561,-5.61822 10.22837,-10.44594 10.22837,-10.72827 0,-0.28234 -2.75838,-3.25848 -6.12972,-6.6136 l -6.12971,-6.10027 -3.57904,3.54375 -3.57904,3.54379 2.55564,2.58209 2.55564,2.58207 -2.44661,2.40453 c -1.34565,1.32248 -2.67831,2.40451 -2.96147,2.40451 -0.28316,0 -1.52986,-1.03193 -2.7704,-2.29319 l -2.25556,-2.29317 -1.68873,1.63317 -1.68875,1.63319 2.41981,2.4513 2.4198,2.45134 -2.54867,2.54306 -2.54868,2.54306 -7.902391,-7.89726 -7.902387,-7.89728 2.52483,-2.55775 2.524848,-2.55773 2.594831,2.55694 2.594809,2.55693 1.63753,-1.68578 1.6375,-1.68575 -2.30088,-2.25318 -2.300896,-2.25317 2.668156,-2.69578 2.66814,-2.69575 2.33284,2.29271 2.33284,2.29267 3.5536,-3.57316 3.55362,-3.57315 -6.50667,-6.49232 -6.50667,-6.49229 -10.476876,10.44443 -10.476897,10.44446 -2.519075,-2.54426 -2.519096,-2.54422 13.023228,-13.20005 13.023226,-13.20004 8.99683,9.28729 8.99681,9.28733 2.33776,-2.33261 2.33777,-2.33262 -5.34977,-5.35618 -5.34976,-5.3562 2.16282,-2.15804 2.16282,-2.15805 5.36763,5.33757 5.36766,5.33753 2.12878,-2.1241 2.12882,-2.12409 -1.38548,-3.08045 c -2.51199,-5.58511 -2.42975,-10.59988 0.25059,-15.28268 l 1.56624,-2.73629 2.21741,2.17144 2.21743,2.17146 -1.03359,1.39494 c -1.2718,1.7164 -1.48109,5.50098 -0.47206,8.53559 0.39633,1.19197 0.8567,2.16717 1.02305,2.16717 0.16658,0 23.41375,-23.06122 51.66098,-51.24715 l 51.35867,-51.24714 H 97.92593 30.59617 v 22.4366 22.43656 H 15.775745 0.955311 v -3.82442 -3.82439 h 10.987574 10.987553 v -7.3939 -7.39385 H 11.942885 0.955311 v -3.56946 -3.56946 h 10.987574 10.987553 v -7.64884 -7.64884 H 11.687344 0.44427 v -3.56944 -3.56946 H 11.687344 22.930438 V 164.13289 156.739 H 11.942885 0.955311 v -3.82443 -3.8244 h 10.987574 10.987553 v -7.39388 -7.39387 H 11.942885 0.955311 v -3.56944 -3.56946 H 15.775745 30.59617 v 22.18159 22.18162 h 67.32986 67.32985 L 109.04219,115.43532 C 78.12468,84.585014 52.64394,59.343864 52.41831,59.343864 c -0.80086,0 -1.97706,3.78072 -2.00093,6.43186 -0.0174,1.82544 0.31043,3.2569 1.01623,4.45056 l 1.04048,1.75957 -1.71914,1.66258 c -2.01096,1.94482 -2.61871,1.69734 -4.19938,-1.70994 -2.06325,-4.44752 -1.82537,-9.49738 0.67561,-14.34254 l 1.29707,-2.51281 -1.04959,-1.04729 -1.0496,-1.04728 L 35.78889,63.596234 25.14874,74.203924 12.574357,61.292224 0,48.380544 l 1.858995,-1.9122 c 1.022452,-1.05171 2.092827,-1.91222 2.378616,-1.91222 0.285788,0 5.126032,4.7226 10.75608,10.49462 l 10.236459,10.4946 8.40957,-8.43799 8.40957,-8.43799 -1.21621,-1.29174 c -0.6689,-0.71043 -1.45925,-1.29174 -1.75631,-1.29174 -0.29707,0 -2.67229,2.11862 -5.27822,4.708 l -4.73811,4.70802 -2.16186,-2.15711 -2.16186,-2.15707 4.71839,-4.72766 c 2.59512,-2.60022 4.7184,-4.96724 4.7184,-5.26006 0,-0.29284 -0.64557,-1.14958 -1.43462,-1.90386 l -1.43464,-1.37142 -2.1184,1.02124 C 16.800689,44.916634 3.564087,36.494244 6.0956,24.253724 6.928205,20.227904 8.282627,17.801445 11.475573,14.61555 20.313128,5.797475 34.43186,6.501598 39.43292,16.00983 c 1.31075,2.492021 1.45158,3.210122 1.29822,6.619664 -0.13211,2.93692 -0.51112,4.51412 -1.63334,6.79647 l -1.46135,2.97206 1.44146,1.50122 1.44143,1.50124 4.74964,-4.71946 4.74963,-4.71946 2.16189,2.15709 2.16184,2.15709 -4.72989,4.73917 -4.72989,4.73915 1.55791,1.48929 1.5579,1.48928 7.90888,-7.87909 7.90886,-7.87909 L 53.33719,16.509765 42.85828,6.045079 45.02615,3.882008 47.194,1.718941 l 12.65367,12.6182 12.65369,12.618203 -10.08331,10.07051 -10.0833,10.0705 1.07414,1.0718 c 1.04456,1.04227 1.12178,1.04722 2.8013,0.18031 2.30995,-1.19242 6.40052,-2.24895 8.73619,-2.25641 2.30946,-0.008 6.27028,1.27718 8.24393,2.67365 l 1.45474,1.02929 -1.83232,1.82826 -1.8323,1.82827 -1.6666,-0.9867 c -2.00447,-1.18676 -6.51369,-1.35069 -8.94904,-0.32538 -0.91353,0.38458 -1.66091,0.84391 -1.66091,1.02071 0,0.17702 25.29785,25.5622 56.21746,56.412006 l 56.21746,56.09058 -0.13001,-47.42275 -0.13001,-47.422776 -9.32667,-0.13919 -9.32665,-0.13918 v -3.048 -3.04804 h 9.4544 9.4544 v -3.04804 -3.04804 l -9.32663,-0.13918 -9.32665,-0.1392 -0.15304,-2.92043 -0.15284,-2.92047 9.3518,-0.13937 9.35182,-0.13938 0.15226,-3.18701 0.15246,-3.18701 h -9.4788 -9.47879 v -3.05953 -3.05954 h 9.4544 9.45439 v -4.33433 -4.33434 H 155.0366 138.93858 V 15.999194 1.211455 h 3.83283 3.83289 V 12.17478 23.138104 h 12.26519 12.26515 V 12.17478 1.211455 h 3.57736 3.57735 V 12.17478 23.138104 h 12.26519 12.26517 V 12.17478 1.211455 h 3.84071 3.84069 l -0.13582,14.66026 -0.13582,14.660259 -15.97027,0.13473 -15.9703,0.13474 v 4.32708 4.32707 h 9.4544 9.45442 v 3.05955 3.05953 h -9.45442 -9.4544 v 3.31448 3.31452 h 9.47992 9.47992 l -0.15362,2.93204 -0.15362,2.93203 -9.32664,0.1392 -9.32665,0.13918 v 3.03652 3.03654 l 9.32665,0.13919 9.32664,0.13918 0.15362,2.93204 0.15362,2.93207 h -9.47992 -9.47992 v 47.549156 47.54924 l 47.27231,-47.16602 c 25.99977,-25.941276 47.20164,-47.377456 47.1153,-47.635956 -0.26017,-0.77871 -5.54447,-3.33422 -8.53848,-4.12922 -5.20961,-1.38325 -10.25354,-0.68585 -14.28302,1.97485 l -1.92577,1.27157 -2.14006,-2.17573 -2.14006,-2.17577 2.71001,-1.8514 c 4.99222,-3.41049 10.6508,-4.55323 17.04504,-3.44215 3.56367,0.61922 9.69867,3.1453 12.53773,5.16246 l 1.56336,1.11077 1.50905,-1.44259 1.50905,-1.44256 -5.7541,-5.75774 -5.75409,-5.75772 2.41916,-2.41381 2.41913,-2.41383 5.7705,5.74139 5.77045,5.7414 1.37346,-1.43041 1.37344,-1.4304 -1.25391,-3.0437 c -2.01547,-4.89227 -1.58174,-10.57433 1.05531,-13.82408 l 1.1829,-1.45775 1.87347,1.84741 c 1.77931,1.75459 1.83472,1.90837 1.10274,3.05956 -1.20301,1.89197 -1.48556,4.17491 -0.83551,6.75087 0.32828,1.30077 0.74547,2.36502 0.92714,2.36502 0.18128,0 3.19855,-2.86882 6.70424,-6.37521 l 6.37392,-6.3752 -9.18547,-9.17583 -9.18545,-9.175828 1.78175,-1.698994 c 0.97996,-0.934443 5.75433,-5.56775 10.60966,-10.296226 L 308.12006,0 l 2.54956,2.505693 2.54955,2.505692 -7.79578,7.790778 -7.79583,7.790779 6.5097,6.495332 6.50971,6.49533 7.80109,-7.77175 7.80114,-7.771759 2.93252,2.926071 2.93255,2.926068 -7.78638,7.78133 -7.78635,7.78133 6.37435,6.37562 6.37437,6.37558 7.80038,-7.77099 7.80038,-7.77105 2.5545,2.54886 2.55448,2.54887 -10.47539,10.44298 -10.47542,10.44297 -8.94264,-8.91201 -8.94266,-8.91202 -6.38923,6.35981 c -3.51405,3.4979 -6.38921,6.50753 -6.38921,6.68807 0,0.65963 3.03247,1.55676 5.26217,1.55676 1.25928,0 3.03157,-0.38284 3.93837,-0.85072 1.64145,-0.84693 1.65638,-0.84332 3.37881,0.82244 0.95148,0.92021 1.73002,1.8479 1.73002,2.06151 0,0.21363 -1.09239,1.0291 -2.42747,1.81219 -2.11086,1.23808 -2.96073,1.42373 -6.51589,1.42338 -3.35494,-3.4e-4 -4.607,-0.24296 -6.97928,-1.35232 l -2.89091,-1.35192 -1.31583,1.37041 -1.31579,1.37038 5.60769,5.57799 5.60772,5.57799 -2.40944,2.44084 -2.40945,2.44083 -5.65552,-5.62704 -5.65554,-5.62706 -1.41169,1.47022 -1.41164,1.4702 2.03363,3.25884 c 3.33207,5.33945 4.36016,8.9723 4.38576,15.49698 0.0199,5.0977 -0.10815,5.88615 -1.40374,8.64716 -0.78417,1.670906 -2.0191,3.814216 -2.74432,4.762946 l -1.31857,1.72491 -2.20691,-2.16115 -2.20687,-2.16112 1.28919,-1.68643 c 2.77419,-3.629206 3.49615,-9.913426 1.77331,-15.436666 -0.97591,-3.12871 -3.37852,-7.7125 -4.04249,-7.7125 -0.19951,0 -21.63427,21.2255 -47.63277,47.167796 l -47.26996,47.16778 h 43.05487 c 47.8996,0 44.02319,0.32353 42.06283,-3.51055 -1.2497,-2.44421 -4.25737,-5.10933 -6.20456,-5.49793 -1.44524,-0.28841 -1.49127,-0.39034 -1.49127,-3.3031 v -3.00549 l 1.40539,0.30681 c 4.90417,1.07072 7.61306,2.88511 10.29868,6.89799 1.08832,1.62621 2.25769,4.11671 2.59853,5.53449 l 0.61975,2.57778 h 2.24877 2.24874 v -9.43357 -9.43355 h 3.57737 3.57733 v 9.43355 9.43357 h 2.26344 2.26346 l 0.78289,-2.68711 c 1.81328,-6.22369 6.83932,-10.98934 12.55085,-11.90066 l 2.12544,-0.3391 -0.15536,2.9238 c -0.15381,2.89235 -0.17664,2.93109 -2.12938,3.59873 -3.07649,1.05177 -5.61834,3.81177 -6.68348,7.25701 l -0.3547,1.14733 h 9.9999 9.99987 V 158.5232 145.52021 h 14.82045 14.82043 v 3.82438 3.82444 h -11.2431 -11.24307 v 9.17861 9.17857 h 10.73203 10.73204 v 3.55913 3.55912 l -10.60429,0.13802 -10.60424,0.13804 v 9.17857 9.17861 l 11.1153,0.13764 11.11533,0.13764 v 3.55951 3.55951 h -9.37492 c -5.15621,0 -11.82541,0.14981 -14.82043,0.33245 l -5.44553,0.33246 v -13.33547 -13.33548 h -9.96543 c -6.51671,0 -9.96546,0.18205 -9.96546,0.52689 0,1.15851 2.60378,5.55624 3.88511,6.56196 0.75009,0.5887 2.25252,1.33604 3.33878,1.66078 1.97228,0.5896 1.97499,0.59416 1.97499,3.31428 v 2.72384 h -1.68832 c -0.9286,0 -2.86849,-0.58679 -4.31089,-1.30397 -4.16918,-2.07301 -7.26504,-6.03928 -8.85268,-11.3416 -0.64649,-2.15905 -0.68785,-2.18985 -2.73996,-2.03971 l -2.08355,0.15271 -0.13949,9.30607 -0.1395,9.30608 h -3.56582 -3.56582 v -9.43358 -9.43355 h -2.29236 -2.29234 l -0.59226,2.34691 c -1.37892,5.46405 -6.82329,10.92766 -11.81541,11.85717 l -2.42748,0.452 v -2.95318 c 0,-2.88255 0.0375,-2.96142 1.57111,-3.29748 2.75324,-0.60338 5.76186,-3.80015 6.83089,-7.2581 l 0.35469,-1.14732 h -43.08918 -43.08923 l 43.94455,43.84989 43.94457,43.84986 5.74727,-5.71834 5.74726,-5.71829 2.31307,2.26504 2.31302,2.26508 -5.74225,5.74586 -5.74222,5.74587 2.5278,2.56071 2.52778,2.5607 5.76375,-5.73473 5.76379,-5.73474 2.41913,2.41381 2.41916,2.41381 -5.74115,5.74477 -5.74113,5.74478 2.41949,2.41415 2.41948,2.41415 5.75746,-5.72846 5.75746,-5.72849 2.41916,2.4138 2.41915,2.4138 -5.73997,5.74363 -5.73997,5.74362 3.69881,3.69066 3.69885,3.69068 10.35341,-10.32139 10.35345,-10.32139 11.4984,11.46453 c 6.32411,6.30553 11.4984,11.68806 11.4984,11.96122 0,0.27316 -1.08689,1.5977 -2.41529,2.94341 l -2.4153,2.44676 -9.21679,-9.18638 -9.21682,-9.18638 -7.65361,7.64949 -7.65363,7.6495 7.64339,7.63928 c 5.24991,5.24711 7.80841,7.47459 8.17038,7.1134 0.28986,-0.2892 0.52426,-2.52221 0.52089,-4.96217 -0.006,-4.67166 -0.95061,-7.43799 -3.47754,-10.18896 l -1.06859,-1.16337 2.10595,-2.10131 2.10594,-2.1013 1.31964,1.47993 c 2.00294,2.24626 4.32048,7.23882 4.94681,10.65655 2.37474,12.9583 -8.80319,24.36404 -21.89575,22.34198 -3.83423,-0.59217 -8.32748,-2.55319 -10.9661,-4.78596 l -1.68296,-1.42414 2.05998,-2.08163 2.06,-2.08162 2.09986,1.54083 c 2.83403,2.07958 5.8418,3.065 9.35513,3.065 2.856,0 6.14462,-0.78063 6.14462,-1.45854 0,-0.18649 -3.45057,-3.77612 -7.66789,-7.97718 l -7.66789,-7.63821 -7.78765,7.77045 -7.78763,7.7705 9.18286,9.17322 9.18286,9.17321 -2.49425,2.52674 -2.49426,2.52675 -11.9003,-11.57086 -11.90028,-11.57088 10.1907,-10.20301 c 5.60487,-5.61164 10.19072,-10.43655 10.19072,-10.72203 0,-0.28548 -1.55719,-2.06087 -3.46036,-3.94529 l -3.46034,-3.42624 -5.60207,5.60709 c -3.08111,3.08388 -5.84559,5.60709 -6.14319,5.60709 -0.29763,0 -1.50651,-0.9815 -2.68642,-2.18113 l -2.14535,-2.1811 5.61627,-5.58652 c 3.08893,-3.07256 5.61624,-5.82945 5.61624,-6.12643 0,-0.29694 -0.98367,-1.50321 -2.18589,-2.68052 l -2.18595,-2.1406 -5.59886,5.6039 c -3.07935,3.08212 -5.84235,5.60386 -6.13997,5.60386 -0.29762,0 -1.50652,-0.9815 -2.68645,-2.18111 l -2.14534,-2.18109 5.61628,-5.58651 c 3.08895,-3.07258 5.61625,-5.82947 5.61625,-6.12645 0,-0.29695 -1.03783,-1.55622 -2.30632,-2.79839 l -2.30627,-2.25848 -5.86389,5.83436 -5.86391,5.83437 -2.31305,-2.26504 -2.31304,-2.26507 5.62828,-5.63184 c 3.09556,-3.0975 5.62828,-5.85821 5.62828,-6.13491 0,-0.57852 -86.42821,-86.9326 -87.00726,-86.9326 -0.21018,0 -0.38214,24.438 -0.38214,54.30669 v 54.30671 h 36.54001 36.54002 v 19.37703 19.37705 h 3.57731 3.57737 v 3.31449 3.31446 h -3.57737 -3.57731 v 2.29468 2.29465 h 3.57731 3.57737 V 346.94046 350 h -11.24309 -11.24307 v -3.05954 -3.05953 h 3.83289 3.83283 v -2.29465 -2.29468 h -3.83283 -3.83289 v -3.31446 -3.31449 h 3.83289 3.83283 v -16.31752 -16.31749 h -8.17676 -8.1768 v 3.56946 3.56944 h 3.57737 3.57733 v 3.05952 3.05954 h -3.57733 -3.57737 v 2.29466 2.29463 h 3.57737 3.57733 v 3.31451 3.3145 h -3.57733 -3.57737 v 5.09922 5.0992 h -3.57734 -3.57735 v -5.0992 -5.09922 h -4.08841 -4.08837 v -3.3145 -3.31451 h 4.1178 4.11778 l -0.1573,-2.16718 -0.15729,-2.16715 -3.96064,-0.14884 -3.96064,-0.14903 v -3.01665 -3.01665 l 3.96064,-0.14883 3.96064,-0.14903 v -3.31449 -3.31451 l -20.82528,-0.13339 -20.82524,-0.1334 v 6.63469 6.63473 h 13.79834 13.79831 v 18.10222 18.10227 h -3.83287 -3.83285 v -14.5328 -14.5328 h -9.96546 -9.96547 v 6.11909 6.11907 h 3.85726 3.85723 l -0.15245,3.18699 -0.15227,3.18703 -3.7051,0.1498 -3.7051,0.15 v 2.01733 2.01735 h 3.83287 3.83289 v 3.3145 3.3145 h -11.49861 -11.4986 v -3.3145 -3.3145 h 4.08836 4.08839 v -2.01824 -2.01824 l -3.96062,-0.14903 -3.96063,-0.14903 -0.15226,-3.18703 -0.15245,-3.18699 h 4.11278 4.11275 v -6.11906 -6.1191 H 160.91168 150.6907 v 14.78778 14.78772 h -3.83202 -3.83287 z M 25.31122,34.327824 c 0.65811,-0.24966 1.19656,-0.6353 1.19656,-0.85697 0,-0.22166 -2.757351,-3.14713 -6.127455,-6.50104 -6.678727,-6.646638 -6.833848,-6.701326 -8.114797,-2.86108 -0.783485,2.34885 -0.728011,3.73648 0.24652,6.16671 1.728852,4.31126 7.391074,6.104 12.799172,4.05238 z m 8.81231,-8.2041 c 0.30856,-0.88322 0.56103,-2.74922 0.56103,-4.14667 0,-4.363132 -2.61428,-7.183566 -7.24559,-7.816958 -2.17504,-0.297466 -6.552741,0.514825 -6.552741,1.215872 0,0.455221 11.880441,12.353616 12.334971,12.353616 0.18776,0 0.59375,-0.72263 0.90233,-1.60586 z m 239.73202,64.32629 c -2.11319,-2.10855 -0.7326,-5.60915 2.21221,-5.60915 1.62024,0 3.40934,1.61768 3.40934,3.0827 0,1.3462 -2.20494,3.54627 -3.55412,3.54627 -0.5749,0 -1.50528,-0.45891 -2.06743,-1.01982 z m -13.28727,-13.61188 c -2.08657,-0.74408 -2.74286,-3.95639 -1.10962,-5.43116 1.37046,-1.23752 3.94825,-1.08569 4.91351,0.28935 1.12115,1.59715 0.99143,2.79699 -0.45884,4.24408 -1.2492,1.24641 -1.88714,1.41762 -3.34505,0.89773 z"
       id="path17359" /></g></svg>
