<?xml version="1.0" encoding="UTF-8" standalone="no"?>
<!-- Created with Inkscape (http://www.inkscape.org/) -->

<svg
   width="300mm"
   height="300mm"
   viewBox="0 0 299.99999 300"
   version="1.1"
   id="svg5"
   xml:space="preserve"
   inkscape:version="1.2.2 (732a01da63, 2022-12-09)"
   sodipodi:docname="viking.svg"
   xmlns:inkscape="http://www.inkscape.org/namespaces/inkscape"
   xmlns:sodipodi="http://sodipodi.sourceforge.net/DTD/sodipodi-0.dtd"
   xmlns="http://www.w3.org/2000/svg"
   xmlns:svg="http://www.w3.org/2000/svg"><sodipodi:namedview
     id="namedview7"
     pagecolor="#505050"
     bordercolor="#eeeeee"
     borderopacity="1"
     inkscape:showpageshadow="0"
     inkscape:pageopacity="0"
     inkscape:pagecheckerboard="0"
     inkscape:deskcolor="#505050"
     inkscape:document-units="mm"
     showgrid="false"
     inkscape:zoom="0.35812288"
     inkscape:cx="-233.16019"
     inkscape:cy="492.84759"
     inkscape:window-width="1920"
     inkscape:window-height="991"
     inkscape:window-x="-9"
     inkscape:window-y="-9"
     inkscape:window-maximized="1"
     inkscape:current-layer="layer1" /><defs
     id="defs2" /><g
     inkscape:label="Vrstva 1"
     inkscape:groupmode="layer"
     id="layer1"><circle
       style="fill:#ffffff;fill-opacity:1;stroke-width:0.252743"
       id="path340"
       cx="150"
       cy="150"
       r="145" /><path
       style="fill:#000000;stroke-width:2.38448"
       d="M 133.05667,298.75055 C 62.710776,288.91001 12.53267,239.15525 1.7442156,168.54594 -0.51942379,153.7304 -0.56854909,145.04799 1.5314896,130.93311 12.971733,54.04182 74.640561,0 150.94341,0 191.40021,0 227.49972,14.907905 255.76534,43.28797 285.80532,73.449516 300,107.43551 300,149.19772 c 0,29.03099 -5.08758,49.29045 -18.37196,73.15973 -29.40387,52.83278 -90.91144,84.45909 -148.57137,76.3931 z m 4.76975,-28.7696 c 0,-1.35329 -1.66874,-6.44923 -3.70837,-11.32422 -2.03956,-4.87499 -4.66818,-16.37338 -5.84142,-25.55191 -2.47392,-19.35579 -11.10456,-48.873 -14.29014,-48.873 -2.13717,0 -1.09535,54.79844 1.43907,75.69351 1.90379,15.69552 5.67229,11.95766 6.00896,-5.96013 l 0.30197,-16.09235 1.93716,14.89286 c 1.06542,8.19106 2.60247,15.96909 3.41569,17.28435 1.9468,3.14883 10.73662,3.09225 10.73662,-0.0721 z m 32.61441,-17.82958 c 0.40743,-18.57431 0.34253,-18.81011 -2.61797,-9.51039 -1.6699,5.24487 -3.76228,14.1794 -4.64969,19.85435 -1.41688,9.06058 -1.09779,10.2197 2.61797,9.51039 3.58804,-0.6848 4.29508,-3.70424 4.64969,-19.85435 z m -10.1921,-23.58365 c 9.8329,-38.00255 10.05302,-39.60607 5.24883,-38.23574 -2.75795,0.78662 -6.78343,1.91925 -8.9454,2.51683 -2.476,0.6848 -4.75397,5.24668 -6.15499,12.32711 l -2.22407,11.2405 -1.89253,-11.49587 c -1.51469,-9.20124 -3.0895,-11.9509 -7.88898,-13.775 -3.29807,-1.25347 -6.47562,-1.80004 -7.06125,-1.21472 -1.6671,1.6666 8.67661,42.44386 12.55688,49.50194 1.91336,3.48032 3.47887,11.97352 3.47887,18.87373 0,6.90012 0.58951,11.95658 1.30963,11.23655 0.7202,-0.71996 5.9282,-19.15901 11.57301,-40.97533 z m 22.73978,1.55703 c -0.10911,-28.89754 -0.80403,-38.29665 -2.51404,-34.01203 -7.21412,18.07656 -7.64452,73.94482 -0.56968,73.94482 2.60049,0 3.20522,-7.83099 3.08372,-39.93279 z m 15.68945,5.72568 -1.01757,-26.58615 3.3773,24.73944 c 1.85747,13.60668 3.96833,25.33035 4.69069,26.05244 0.72201,0.72175 7.47245,-2.91248 15.00008,-8.07707 l 13.68667,-9.39001 1.5099,-15.47035 c 0.83017,-8.50869 1.63537,-24.97234 1.7887,-36.58582 0.24247,-18.3429 -0.21634,-20.92552 -3.49366,-19.66845 -2.0748,0.79562 -4.09769,1.4471 -4.4952,1.4471 -0.39751,0 -0.22715,6.70512 0.37949,14.90034 0.60663,8.19511 0.0541,19.19151 -1.2275,24.43649 -2.10013,8.59654 -2.35333,7.50004 -2.56931,-11.12923 -0.33981,-29.34987 0.20462,-28.67984 -18.88664,-23.22215 -8.75539,2.50296 -16.19053,4.5508 -16.52268,4.5508 -1.40967,0 -0.46061,82.79006 0.96546,84.21562 0.86353,0.86321 2.97834,0.40006 4.70053,-1.02909 2.36108,-1.95882 2.881,-9.13791 2.11374,-29.18391 z m 11.12512,-10.76403 c -3.4065,-25.57644 -3.50494,-36.12141 -0.38128,-40.85458 1.80366,-2.73318 2.27094,-1.89023 1.9824,3.57603 -0.20732,3.93375 0.4516,18.68505 1.46573,32.78064 1.01388,14.0957 1.37182,25.62861 0.79502,25.62861 -0.57598,0 -2.31429,-9.50885 -3.86223,-21.1307 z m -102.99275,20.53465 c -0.007,-10.81765 -0.70308,-30.09794 -1.54767,-42.8452 l -1.53542,-23.17672 -8.151641,-2.6894 c -4.483472,-1.47908 -8.768101,-2.07323 -9.521386,-1.32021 -0.753554,0.75328 -0.180276,9.17439 1.27257,18.71397 1.453118,9.53967 3.345391,28.23571 4.204858,41.54667 1.388488,21.50248 2.128883,24.47587 6.638224,26.65914 2.791485,1.35158 5.880345,2.53008 6.864115,2.61873 0.98376,0.0902 1.7832,-8.68934 1.77635,-19.50698 z m -35.761234,16.3842 c 0,-0.49469 -1.878118,-2.37249 -4.173577,-4.17208 -3.782557,-2.96548 -3.866927,-2.88114 -0.90048,0.90015 3.115535,3.97123 5.074057,5.23415 5.074057,3.27202 z m 15.749297,-29.49648 c -3.757228,-57.75238 -4.03269,-59.69541 -8.633431,-60.89814 -3.146363,-0.82268 -4.840779,0.60189 -6.120291,5.14594 l -1.769411,6.28325 -1.420127,-7.12305 c -0.822961,-4.12711 -3.167815,-7.45949 -5.575315,-7.92299 -3.78427,-0.72805 -4.155279,2.06577 -4.155279,31.29543 0,28.22535 0.557054,32.77399 4.621203,37.72359 l 4.621113,5.62818 -1.34396,-13.38376 c -0.82206,-8.18629 -0.288442,-15.13011 1.373886,-17.88041 2.36883,-3.91915 2.533602,-3.67974 1.283026,1.86456 -2.281577,10.11536 3.437688,33.56862 9.33642,38.28674 2.832411,2.26553 6.082431,4.14297 7.222138,4.17207 1.139797,0.027 1.391824,-10.40694 0.559758,-23.19141 z m -41.307429,3.57612 c -14.006567,-15.2541 -29.294719,-51.70367 -29.294719,-69.84385 0,-4.37383 -1.073185,-8.61536 -2.384875,-9.42578 -6.2240389,-3.84527 1.855224,33.47266 11.355064,52.44902 7.51707,15.01577 19.708346,32.18469 22.853626,32.18469 1.318,0 0.180277,-2.41385 -2.529096,-5.36408 z m 206.300816,-31.75985 1.70261,-21.28522 1.19244,16.68831 1.19244,16.68829 5.20007,-9.71195 c 2.85999,-5.34156 5.9602,-16.42871 6.88935,-24.63807 1.0831,-9.56986 2.41326,-13.78428 3.70684,-11.74438 1.4478,2.28319 2.02784,1.66695 2.05397,-2.18254 0.045,-6.1707 -0.39389,-6.24406 -16.54043,-2.78247 l -12.04192,2.58154 v 24.53696 c 0,13.49532 -0.67333,28.15778 -1.49612,32.58314 -1.38298,7.43732 -1.19603,7.7626 2.47097,4.29886 2.80896,-2.65327 4.46427,-9.96165 5.66978,-25.03247 z M 49.065393,164.82295 c -2.046046,-1.27436 -3.571003,-0.15317 -4.608764,3.38798 -1.495212,5.1027 -1.562094,5.07872 -1.861173,-0.66768 -0.294751,-5.6654 -0.445282,-5.7265 -3.050455,-1.23544 -1.5072,2.59864 -2.816096,11.71762 -2.908668,20.26442 -0.144221,13.31601 0.855412,17.16622 6.986337,26.90593 l 7.154716,11.36612 0.673332,-29.05838 c 0.501169,-21.65204 -0.10636,-29.54396 -2.384875,-30.96313 z m -14.072008,-0.25951 c 0.176671,-2.61306 -1.416791,-4.17207 -4.264346,-4.17207 -4.675375,0 -4.73036,0.72806 -1.172517,15.49631 l 1.723081,7.15214 1.715779,-7.15214 c 0.943657,-3.93367 1.842785,-9.0296 1.998003,-11.32424 z m 90.908555,14.00019 c 0,-0.49468 -1.87811,-2.37248 -4.17357,-4.17207 -3.78264,-2.96547 -3.86701,-2.88114 -0.90047,0.90014 3.11553,3.97125 5.07395,5.23416 5.07395,3.27202 z m 40.70225,-4.50186 c 4.61282,-3.10748 9.50299,-9.29991 11.51281,-14.57876 3.04261,-7.99121 3.05352,-10.44009 0.0811,-18.95671 -8.42332,-24.16411 -39.08615,-27.46918 -52.39632,-5.64774 -8.55248,14.02155 -4.12706,31.09073 10.34822,39.9136 10.08736,6.14846 20.61424,5.89589 30.45057,-0.73075 z m -25.46718,-1.59163 c -14.95356,-6.36931 -19.57557,-25.62877 -9.12902,-38.03932 11.9617,-14.21056 31.79327,-11.6886 39.99305,5.08594 7.47181,15.28545 -1.1965,31.88463 -17.78066,34.04871 -4.42569,0.57757 -10.31324,0.0811 -13.08337,-1.09533 z m 27.25624,-23.35216 c 0.99531,-7.00085 -9.40726,-17.33518 -17.44984,-17.33518 -10.22158,0 -22.46234,16.08784 -16.65654,21.89155 0.67694,0.6767 8.45739,1.12335 17.29057,0.99333 14.70902,-0.21625 16.12391,-0.6839 16.81581,-5.5497 z m -51.94707,16.19821 c -4.4932,-8.39262 -2.95021,-27.3397 2.94482,-36.16087 9.55095,-14.29185 29.45246,-20.27091 46.30279,-13.91089 5.36152,2.0236 6.12048,1.93476 3.76815,-0.44152 -1.62007,-1.6364 -9.13254,-3.40806 -16.69431,-3.93698 -11.49722,-0.80375 -15.10635,-0.0361 -22.03914,4.67009 -12.81323,8.70421 -19.13597,19.75469 -19.13597,33.44418 0,10.58589 3.03215,20.94715 6.13003,20.94715 0.65619,0 0.0811,-2.07512 -1.27637,-4.61134 z m 86.9652,1.98548 c 5.24676,-1.42953 11.68597,-4.48239 14.30944,-6.78414 7.84499,-6.88301 10.87327,-8.03618 9.1218,-3.47349 -1.31278,3.41979 -0.47053,3.82029 5.39332,2.56558 3.82195,-0.81816 13.65656,-2.83032 21.85463,-4.47231 21.42359,-4.29092 19.96227,-6.80334 -4.57893,-7.87227 -3.50214,-0.15227 -7.79497,-1.3696 -9.53959,-2.70452 -1.74462,-1.33492 -12.0667,-4.80534 -22.938,-7.71197 -10.87129,-2.90663 -21.33507,-5.8867 -23.25285,-6.62241 -1.91777,-0.73526 -3.48681,-0.14958 -3.48681,1.30157 0,1.45151 1.87812,2.65561 4.17358,2.67569 2.29545,0.018 5.78335,1.06262 7.75089,2.3168 3.0473,1.94241 2.81023,2.82067 -1.59978,5.92662 -2.84746,2.0054 -5.87889,7.13151 -6.73657,11.39135 -0.8581,4.25993 -2.08813,9.62266 -2.73442,11.91729 -1.37487,4.88121 -0.41914,5.00177 12.26329,1.54621 z m -103.3277,-5.27586 c -6.940549,-7.38526 -6.564764,-9.79982 0.77699,-4.99124 l 5.96228,3.9052 v -9.65511 c 0,-5.31039 1.04668,-12.40712 2.32583,-15.77058 2.92688,-7.69547 -1.28185,-8.13033 -15.286077,-1.57956 -5.333026,2.49458 -20.965054,6.35318 -34.737892,8.57464 -13.77284,2.22139 -25.488636,4.47169 -26.035144,5.00052 -2.574075,2.4907 3.170429,3.96384 15.040632,3.85725 8.671741,-0.0811 13.424005,0.93376 14.228307,3.029 0.664319,1.73029 6.379258,4.25668 12.700105,5.6142 6.320938,1.35754 14.175577,3.53999 17.454804,4.84977 10.552475,4.21487 13.246975,3.20613 7.570435,-2.83409 z M 16.196245,133.40759 c 0,-17.42348 11.916083,-46.711629 27.089579,-66.582919 C 53.8264,53.020741 51.689765,49.780901 40.971257,63.315053 29.099702,78.305224 21.878554,92.790894 16.367688,112.6703 c -5.41568,19.53609 -6.228726,28.64876 -2.556318,28.64876 1.31169,0 2.384875,-3.56017 2.384875,-7.91147 z m 257.569765,0.31988 c 0,-7.10024 -7.51004,-33.37652 -9.08845,-31.79868 -0.69766,0.69742 -2.64916,7.96831 -4.33637,16.15731 l -3.06757,14.88898 1.36667,-20.77766 c 1.27654,-19.407157 0.95348,-21.482473 -4.89901,-31.465377 -3.44616,-5.878319 -7.05791,-11.174644 -8.02616,-11.769703 -0.96818,-0.594697 -1.65485,10.882431 -1.52577,25.505332 0.31368,35.568608 0.62014,39.699418 2.94274,39.699418 1.09166,0 1.50565,-5.77677 0.91994,-12.83718 -0.58589,-7.06052 0.0982,-14.83844 1.51991,-17.28436 2.03631,-3.50331 2.6003,-0.87673 2.65746,12.37693 0.0721,16.10784 0.35153,16.93447 6.63101,19.41481 10.77475,4.25614 14.9056,3.67136 14.9056,-2.10982 z M 42.119347,132.88859 c 0.490351,-0.49019 0.07211,-9.2537 -0.933561,-19.47466 l -1.825027,-18.583583 -4.452645,9.983083 c -2.449054,5.49069 -5.145626,15.03621 -5.992475,21.21234 l -1.539649,11.22924 6.926035,-1.73769 c 3.809328,-0.95575 7.32706,-2.13866 7.817322,-2.62873 z M 52.568702,90.328393 C 53.67055,71.694256 53.640715,71.574145 49.301014,77.216115 44.51612,83.436836 43.904893,92.539499 46.517637,118.67089 l 1.668548,16.68831 1.635196,-13.11229 c 0.899579,-7.2117 2.135643,-21.5751 2.747321,-31.918517 z M 66.66099,120.45895 c 0.375876,-8.80217 0.396609,-8.82064 1.34351,-1.19211 1.090671,8.78568 0.86172,8.71827 17.00339,4.99366 l 11.937719,-2.75462 1.501882,-18.10585 c 2.211179,-26.654806 3.019359,-27.72256 3.328709,-4.397516 0.27402,20.689176 3.67025,28.001886 6.08901,13.112186 1.45267,-8.94246 2.95591,-80.46641 1.69118,-80.463527 -3.48051,0.0082 -34.47857,18.230734 -35.488838,20.862724 -0.703979,1.833832 0.04506,7.340014 1.658992,12.235999 2.119599,6.420305 2.280946,11.853592 0.578687,19.491134 L 73.944875,94.830347 73.605053,81.71816 c -0.186586,-7.211794 -1.720016,-15.598747 -3.406772,-18.637743 -5.119216,-9.222952 -8.173095,-1.5345 -9.778276,24.61788 -0.804032,13.101203 -1.973845,27.843473 -2.599313,32.760653 -0.98521,7.74503 -0.495761,8.94011 3.66078,8.94011 3.886577,0 4.870525,-1.69823 5.179698,-8.94011 z m 17.695652,-17.01234 c -0.944468,-9.581476 -1.27825,-17.85976 -0.741837,-18.39607 2.524678,-2.523682 6.744679,24.49056 4.678801,29.95062 -1.838098,4.85795 -2.515035,2.87139 -3.936964,-11.55455 z M 235.60756,94.007863 c 0,-30.751649 -0.54714,-35.860915 -4.17358,-38.974159 -9.41628,-8.083746 -9.64713,-7.590957 -8.88095,18.954915 0.40652,14.08542 0.30737,21.854967 -0.22083,17.265701 -1.39995,-12.166257 -5.99176,-41.097769 -7.23017,-45.554939 -1.10518,-3.97772 -19.12001,-13.374216 -21.35589,-11.139143 -0.69857,0.698319 -1.49224,19.908414 -1.76436,42.689848 l -0.49486,41.420804 5.66518,0.80103 5.66519,0.80104 -1.31728,-21.065456 c -1.22282,-19.554658 -1.14908,-20.039517 1.02865,-6.761084 5.01348,30.56919 4.90424,30.32887 15.23352,33.51916 18.86087,5.82533 17.84547,7.64367 17.84547,-31.957628 z M 208.7774,82.736444 c -0.98377,-0.997109 -1.69189,-8.875776 -1.57363,-17.507996 0.1938,-14.16219 0.43897,-14.916374 2.51116,-7.723053 2.56208,8.89587 1.85017,28.056676 -0.93753,25.231049 z m -28.02269,40.994426 c 0,-0.49468 -1.87803,-2.37249 -4.17358,-4.17208 -3.78256,-2.96547 -3.86692,-2.88113 -0.90048,0.90016 3.11563,3.97122 5.07406,5.23414 5.07406,3.27201 z M 129.85847,71.392131 c 2.52495,-7.619881 3.34647,-15.486744 2.42733,-23.244488 -0.80763,-6.813346 -0.43717,-11.726451 0.88335,-11.726451 1.24986,0 2.37948,1.877443 2.51026,4.172075 0.15865,2.781385 0.87435,2.185426 2.14719,-1.787967 3.37269,-10.527504 2.74299,-11.921981 -5.36602,-11.883777 -14.59769,0.07209 -14.7293,0.461342 -15.33962,45.731728 l -0.55616,41.249509 4.73857,-15.496296 c 2.60626,-8.523012 6.45606,-20.679447 8.55519,-27.014333 z m 40.45193,33.570429 c -0.80404,-2.95024 -4.77786,-19.310744 -8.83183,-36.356678 -9.47541,-39.841876 -9.47983,-39.852689 -12.21434,-29.956556 -1.53073,5.539431 -1.40671,10.066073 0.38309,13.993602 2.21423,4.857962 2.05991,5.580609 -0.9452,4.427797 -2.65006,-1.016574 -4.26714,1.251749 -6.17013,8.654837 -1.41841,5.517895 -4.13076,15.561711 -6.02736,22.319643 -4.54846,16.206865 -4.54035,16.231295 3.47825,10.52363 10.08357,-7.177553 11.69191,-6.038167 3.65546,2.589465 -4.97374,5.33957 -5.73811,7.06771 -2.63609,5.96012 2.40272,-0.8578 7.50049,-1.55982 11.3283,-1.55982 5.00194,0 6.98651,-1.17362 7.0552,-4.17206 0.0721,-2.974579 1.11672,-2.290316 3.65347,2.38401 4.31988,7.95994 9.33832,8.7827 7.27082,1.19201 z m 14.75606,-74.534121 c -0.40382,-0.388355 -2.8808,-1.076223 -5.50419,-1.528733 -4.02801,-0.694716 -4.64302,0.289239 -3.95454,6.329476 0.44799,3.933658 1.07066,17.880405 1.38281,30.992683 0.96258,40.428825 4.5655,40.606605 6.82373,0.336994 1.09256,-19.483204 1.65602,-35.741794 1.25219,-36.13015 z m 84.00083,46.654411 c -1.36487,-2.549452 -3.66033,-5.363635 -5.1011,-6.253698 -1.44067,-0.890246 -0.77519,1.195792 1.47962,4.635308 4.77363,7.282978 7.24558,8.387584 3.62148,1.61839 z M 173.57052,53.593455 c -1.51414,-6.166658 -3.31754,-14.698771 -4.00754,-18.960321 -1.28159,-7.91462 -5.50258,-10.884144 -5.50258,-3.871123 0,2.132352 2.38604,13.665165 5.30238,25.628506 3.72045,15.26202 5.54971,19.762082 6.13147,15.083341 0.4561,-3.667484 -0.41013,-11.713656 -1.92373,-17.880403 z m 88.27102,12.920261 c 0,-0.494679 -1.87811,-2.372484 -4.17357,-4.172076 -3.78265,-2.965469 -3.86701,-2.881132 -0.90048,0.900156 3.11554,3.971232 5.07396,5.234154 5.07396,3.272011 z M 103.28557,22.306577 c 7.47795,-2.796792 19.91864,-5.745682 27.6459,-6.55312 7.72737,-0.807347 14.04966,-2.509715 14.04966,-3.782999 0,-3.1854183 -19.03465,-0.372136 -38.63546,5.709641 -16.272106,5.049075 -44.995079,22.150874 -46.752953,27.836997 -0.533618,1.724624 6.020418,-1.648034 14.563621,-7.494815 8.543114,-5.846782 21.651366,-12.918822 29.129232,-15.715704 z m 130.8449,16.815985 C 218.38063,26.648683 205.24822,20.312266 183.75757,14.817889 164.00388,9.7675527 159.29056,9.2349377 159.29056,12.053084 c 0,1.020989 7.48516,3.034582 16.63373,4.474563 17.79571,2.801206 46.48803,15.335636 58.49084,25.552365 3.93506,3.349501 8.0998,6.128542 9.25493,6.175667 1.15512,0.04505 -3.13771,-4.062688 -9.53959,-9.133117 z"
       id="path750"
       sodipodi:nodetypes="sssssssscssssccsscccssscsssscsssssssccscscssscccsssccsscsscsccsccsccsscsscsssssscssccssscssssccccsssscscccssscscsssscsssssccccssscssssssscscsscccssscsssssssssscsssssssssssssscsscsssscssssscsssssssssssssscssscssscsssccsscsssssccscsscscssscsccssssccscssssscssscccssssssscssssssscssccscssscsscssssssscsccsscsssssscscsssscssssssssscssssssscs" /></g></svg>
